EncodeSansExpanded-SemiBold.ufo
<glyph name="exclam" format="2">
  <advance width="623.8585858585859"/>
  <unicode hex="0021"/>
  <outline>
    <contour>
      <point x="227.40404040404042" y="432.72727272727275" type="line"/>
      <point x="399.69696969696975" y="432.72727272727275" type="line"/>
      <point x="460.33333333333337" y="947.2828282828283" type="line"/>
      <point x="460.33333333333337" y="1480.0" type="line"/>
      <point x="163.5252525252525" y="1480.0" type="line"/>
      <point x="163.5252525252525" y="947.2828282828283" type="line"/>
    </contour>
    <contour>
      <point x="311.92929292929296" y="-15.404040404040405" type="curve" smooth="yes"/>
      <point x="426.82828282828285" y="-15.404040404040405"/>
      <point x="497.1414141414142" y="46.42424242424243"/>
      <point x="497.1414141414142" y="140.62626262626264" type="curve" smooth="yes"/>
      <point x="497.1414141414142" y="234.82828282828288"/>
      <point x="428.989898989899" y="297.5757575757576"/>
      <point x="311.92929292929296" y="297.5757575757576" type="curve" smooth="yes"/>
      <point x="194.86868686868686" y="297.5757575757576"/>
      <point x="126.71717171717171" y="236.98989898989905"/>
      <point x="126.71717171717171" y="140.62626262626264" type="curve" smooth="yes"/>
      <point x="126.71717171717171" y="44.26262626262627"/>
      <point x="197.03030303030303" y="-15.404040404040405"/>
    </contour>
  </outline>
</glyph>
<glyph name="numbersign" format="2">
  <advance width="1329.6969696969697"/>
  <unicode hex="0023"/>
  <outline>
    <contour>
      <point x="688.2121212121212" y="0.0" type="line"/>
      <point x="909.8484848484849" y="0.0" type="line"/>
      <point x="1093.848484848485" y="1480.0" type="line"/>
      <point x="872.2121212121212" y="1480.0" type="line"/>
    </contour>
    <contour>
      <point x="110.0" y="399.96969696969694" type="line"/>
      <point x="1219.6969696969697" y="399.96969696969694" type="line"/>
      <point x="1219.6969696969697" y="617.2828282828283" type="line"/>
      <point x="110.0" y="617.2828282828283" type="line"/>
    </contour>
    <contour>
      <point x="235.84848484848484" y="0.0" type="line"/>
      <point x="457.4848484848485" y="0.0" type="line"/>
      <point x="641.4848484848485" y="1480.0" type="line"/>
      <point x="419.8484848484849" y="1480.0" type="line"/>
    </contour>
    <contour>
      <point x="110.0" y="862.7171717171717" type="line"/>
      <point x="1219.6969696969697" y="862.7171717171717" type="line"/>
      <point x="1219.6969696969697" y="1080.030303030303" type="line"/>
      <point x="110.0" y="1080.030303030303" type="line"/>
    </contour>
  </outline>
</glyph>
<glyph name="dollar" format="2">
  <advance width="1275.050505050505"/>
  <unicode hex="0024"/>
  <outline>
    <contour>
      <point x="561.7171717171717" y="-19.08080808080808" type="curve" smooth="yes"/>
      <point x="960.6767676767677" y="-19.08080808080808"/>
      <point x="1193.5858585858587" y="146.69696969696972"/>
      <point x="1193.5858585858587" y="428.31313131313135" type="curve" smooth="yes"/>
      <point x="1193.5858585858587" y="648.2020202020202"/>
      <point x="1063.4242424242425" y="783.4949494949495"/>
      <point x="715.1616161616162" y="850.89898989899" type="curve" smooth="yes"/>
      <point x="604.2525252525253" y="872.4646464646465" type="line" smooth="yes"/>
      <point x="423.4747474747475" y="908.2525252525253"/>
      <point x="366.38383838383845" y="960.5858585858585"/>
      <point x="366.38383838383845" y="1069.090909090909" type="curve" smooth="yes"/>
      <point x="366.38383838383845" y="1196.030303030303"/>
      <point x="466.6666666666667" y="1273.121212121212"/>
      <point x="741.0505050505051" y="1273.121212121212" type="curve" smooth="yes"/>
      <point x="866.1313131313132" y="1273.121212121212"/>
      <point x="1007.5858585858587" y="1254.040404040404"/>
      <point x="1118.6161616161617" y="1221.4444444444443" type="curve"/>
      <point x="1118.6161616161617" y="1451.5656565656566" type="line"/>
      <point x="1008.939393939394" y="1481.080808080808"/>
      <point x="873.2121212121212" y="1499.080808080808"/>
      <point x="729.9191919191919" y="1499.080808080808" type="curve" smooth="yes"/>
      <point x="294.3737373737374" y="1499.080808080808"/>
      <point x="81.46464646464646" y="1335.3535353535353"/>
      <point x="81.46464646464646" y="1058.6060606060605" type="curve" smooth="yes"/>
      <point x="81.46464646464646" y="833.4747474747475"/>
      <point x="212.54545454545456" y="698.6666666666666"/>
      <point x="529.7272727272727" y="637.2626262626262" type="curve" smooth="yes"/>
      <point x="640.6363636363636" y="615.6969696969696" type="line" smooth="yes"/>
      <point x="841.1414141414141" y="576.8282828282828"/>
      <point x="908.6666666666666" y="527.0909090909091"/>
      <point x="908.6666666666666" y="414.42424242424244" type="curve" smooth="yes"/>
      <point x="908.6666666666666" y="281.80808080808083"/>
      <point x="815.1919191919192" y="206.87878787878793"/>
      <point x="560.4747474747475" y="206.87878787878793" type="curve" smooth="yes"/>
      <point x="439.07070707070704" y="206.87878787878793"/>
      <point x="254.27272727272728" y="229.20202020202026"/>
      <point x="112.43434343434343" y="275.0404040404041" type="curve"/>
      <point x="112.43434343434343" y="44.91919191919192" type="line"/>
      <point x="248.0" y="4.161616161616163"/>
      <point x="402.969696969697" y="-19.08080808080808"/>
    </contour>
    <contour>
      <point x="503.8484848484849" y="-240.0" type="line"/>
      <point x="771.0404040404042" y="-240.0" type="line"/>
      <point x="771.0404040404042" y="32.424242424242436" type="line"/>
      <point x="503.8484848484849" y="32.424242424242436" type="line"/>
    </contour>
    <contour>
      <point x="503.8484848484849" y="1447.5757575757575" type="line"/>
      <point x="771.0404040404042" y="1447.5757575757575" type="line"/>
      <point x="771.0404040404042" y="1720.0" type="line"/>
      <point x="503.8484848484849" y="1720.0" type="line"/>
    </contour>
  </outline>
</glyph>
<glyph name="ampersand" format="2">
  <advance width="1742.1313131313132"/>
  <unicode hex="0026"/>
  <outline>
    <contour>
      <point x="1628.3131313131312" y="-20.0" type="line"/>
      <point x="1742.1313131313132" y="183.15151515151518" type="line"/>
      <point x="803.8282828282828" y="760.8888888888889" type="line" smooth="yes"/>
      <point x="629.2626262626263" y="877.989898989899"/>
      <point x="583.1515151515152" y="943.7272727272727"/>
      <point x="583.1515151515152" y="1042.4444444444443" type="curve" smooth="yes"/>
      <point x="583.1515151515152" y="1183.8686868686868"/>
      <point x="674.2424242424242" y="1273.121212121212"/>
      <point x="956.89898989899" y="1273.121212121212" type="curve" smooth="yes"/>
      <point x="1058.090909090909" y="1273.121212121212"/>
      <point x="1157.4949494949497" y="1260.20202020202"/>
      <point x="1234.2525252525252" y="1241.6060606060605" type="curve"/>
      <point x="1234.2525252525252" y="1471.7272727272727" type="line"/>
      <point x="1151.6060606060605" y="1488.3232323232323"/>
      <point x="1055.6060606060605" y="1499.080808080808"/>
      <point x="940.5252525252525" y="1499.080808080808" type="curve" smooth="yes"/>
      <point x="504.22222222222223" y="1499.080808080808"/>
      <point x="298.2323232323232" y="1330.8686868686868"/>
      <point x="298.2323232323232" y="1054.3333333333333" type="curve" smooth="yes"/>
      <point x="298.2323232323232" y="891.7878787878788"/>
      <point x="375.4242424242424" y="750.3333333333334"/>
      <point x="690.010101010101" y="557.7373737373737" type="curve" smooth="yes"/>
    </contour>
    <contour>
      <point x="776.3737373737374" y="-18.0" type="curve" smooth="yes"/>
      <point x="1225.6565656565656" y="-18.0"/>
      <point x="1479.969696969697" y="189.02020202020202"/>
      <point x="1479.969696969697" y="578.6767676767677" type="curve" smooth="yes"/>
      <point x="1479.969696969697" y="662.6262626262626"/>
      <point x="1466.1313131313132" y="754.3030303030304"/>
      <point x="1439.6969696969697" y="838.89898989899" type="curve"/>
      <point x="1214.060606060606" y="838.89898989899" type="line"/>
      <point x="1240.4949494949494" y="754.3030303030304"/>
      <point x="1257.2525252525252" y="659.7070707070707"/>
      <point x="1257.2525252525252" y="577.4343434343434" type="curve" smooth="yes"/>
      <point x="1257.2525252525252" y="293.2727272727273"/>
      <point x="1082.060606060606" y="178.7777777777778"/>
      <point x="807.5555555555555" y="178.7777777777778" type="curve" smooth="yes"/>
      <point x="539.9595959595961" y="178.7777777777778"/>
      <point x="422.1717171717172" y="280.89898989898995"/>
      <point x="422.1717171717172" y="431.93939393939394" type="curve" smooth="yes"/>
      <point x="422.1717171717172" y="549.4646464646464"/>
      <point x="482.39393939393943" y="633.7979797979798"/>
      <point x="598.89898989899" y="692.6666666666666" type="curve"/>
      <point x="448.8181818181818" y="802.5454545454545" type="line"/>
      <point x="263.9494949494949" y="739.0808080808081"/>
      <point x="137.25252525252523" y="597.4040404040404"/>
      <point x="137.25252525252523" y="403.24242424242425" type="curve" smooth="yes"/>
      <point x="137.25252525252523" y="153.5151515151515"/>
      <point x="341.5151515151515" y="-18.0"/>
    </contour>
  </outline>
</glyph>
<glyph name="quotesingle" format="2">
  <advance width="510.14141414141415"/>
  <unicode hex="0027"/>
  <outline>
    <contour>
      <point x="170.22222222222223" y="863.0505050505051" type="line"/>
      <point x="339.9191919191919" y="863.0505050505051" type="line"/>
      <point x="392.3434343434344" y="1616.0" type="line"/>
      <point x="117.79797979797978" y="1616.0" type="line"/>
    </contour>
  </outline>
</glyph>
<glyph name="parenleft" format="2">
  <advance width="775.1717171717172"/>
  <unicode hex="0028"/>
  <outline>
    <contour>
      <point x="530.2727272727273" y="-440.0" type="curve"/>
      <point x="839.8383838383838" y="-440.0" type="line"/>
      <point x="530.2222222222223" y="-128.16161616161617"/>
      <point x="414.81818181818187" y="193.14141414141415"/>
      <point x="414.81818181818187" y="588.0" type="curve" smooth="yes"/>
      <point x="414.81818181818187" y="982.8585858585859"/>
      <point x="530.2222222222223" y="1304.1616161616162"/>
      <point x="839.8383838383838" y="1616.0" type="curve"/>
      <point x="530.2727272727273" y="1616.0" type="line"/>
      <point x="243.73737373737373" y="1342.858585858586"/>
      <point x="128.8181818181818" y="984.5353535353536"/>
      <point x="128.8181818181818" y="588.0" type="curve" smooth="yes"/>
      <point x="128.8181818181818" y="191.46464646464645"/>
      <point x="243.73737373737373" y="-166.85858585858585"/>
    </contour>
  </outline>
</glyph>
<glyph name="parenright" format="2">
  <advance width="775.1717171717172"/>
  <unicode hex="0029"/>
  <outline>
    <contour>
      <point x="-64.66666666666671" y="-440.0" type="curve"/>
      <point x="244.89898989898992" y="-440.0" type="line"/>
      <point x="531.4343434343434" y="-166.85858585858585"/>
      <point x="646.3535353535353" y="191.46464646464645"/>
      <point x="646.3535353535353" y="588.0" type="curve" smooth="yes"/>
      <point x="646.3535353535353" y="984.5353535353536"/>
      <point x="531.4343434343434" y="1342.858585858586"/>
      <point x="244.89898989898992" y="1616.0" type="curve"/>
      <point x="-64.66666666666671" y="1616.0" type="line"/>
      <point x="244.94949494949492" y="1304.1616161616162"/>
      <point x="360.35353535353534" y="982.8585858585859"/>
      <point x="360.35353535353534" y="588.0" type="curve" smooth="yes"/>
      <point x="360.35353535353534" y="193.14141414141415"/>
      <point x="244.94949494949492" y="-128.16161616161617"/>
    </contour>
  </outline>
</glyph>
<glyph name="asterisk" format="2">
  <advance width="1020.4040404040404"/>
  <unicode hex="002A"/>
  <outline>
    <contour>
      <point x="617.2626262626263" y="1150.121212121212" type="line"/>
      <point x="797.969696969697" y="1179.7474747474748" type="line"/>
      <point x="990.4040404040404" y="1241.5858585858587" type="line"/>
      <point x="933.6565656565657" y="1415.0707070707072" type="line"/>
      <point x="742.1414141414142" y="1353.2323232323233" type="line"/>
      <point x="571.5959595959596" y="1265.5050505050506" type="line"/>
      <point x="601.6464646464647" y="1455.4545454545455" type="line"/>
      <point x="601.6464646464647" y="1616.0" type="line"/>
      <point x="418.75757575757575" y="1616.0" type="line"/>
      <point x="418.75757575757575" y="1455.4545454545455" type="line"/>
      <point x="448.80808080808083" y="1265.5050505050506" type="line"/>
      <point x="278.26262626262627" y="1353.2323232323233" type="line"/>
      <point x="86.74747474747475" y="1415.0707070707072" type="line"/>
      <point x="30.0" y="1241.5858585858587" type="line"/>
      <point x="222.43434343434342" y="1179.7474747474748" type="line"/>
      <point x="403.14141414141415" y="1150.121212121212" type="line"/>
      <point x="271.14141414141415" y="1016.8181818181818" type="line"/>
      <point x="171.1919191919192" y="879.030303030303" type="line"/>
      <point x="319.3838383838384" y="771.8585858585858" type="line"/>
      <point x="419.33333333333337" y="908.5656565656566" type="line"/>
      <point x="510.2020202020202" y="1090.1313131313132" type="line"/>
      <point x="601.070707070707" y="908.5656565656566" type="line"/>
      <point x="701.0202020202021" y="771.8585858585858" type="line"/>
      <point x="849.2121212121212" y="879.030303030303" type="line"/>
      <point x="749.2626262626263" y="1016.8181818181818" type="line"/>
    </contour>
  </outline>
</glyph>
<glyph name="plus" format="2">
  <advance width="1155.5555555555557"/>
  <unicode hex="002B"/>
  <outline>
    <contour>
      <point x="465.95959595959596" y="319.6363636363636" type="line"/>
      <point x="689.5959595959596" y="319.6363636363636" type="line"/>
      <point x="689.5959595959596" y="653.4242424242424" type="line"/>
      <point x="1006.6262626262626" y="653.4242424242424" type="line"/>
      <point x="1006.6262626262626" y="866.5757575757576" type="line"/>
      <point x="689.5959595959596" y="866.5757575757576" type="line"/>
      <point x="689.5959595959596" y="1200.3636363636365" type="line"/>
      <point x="465.95959595959596" y="1200.3636363636365" type="line"/>
      <point x="465.95959595959596" y="866.5757575757576" type="line"/>
      <point x="148.92929292929293" y="866.5757575757576" type="line"/>
      <point x="148.92929292929293" y="653.4242424242424" type="line"/>
      <point x="465.95959595959596" y="653.4242424242424" type="line"/>
    </contour>
  </outline>
</glyph>
<glyph name="period" format="2">
  <advance width="583.8585858585859"/>
  <unicode hex="002E"/>
  <outline>
    <contour>
      <point x="291.92929292929296" y="-15.404040404040405" type="curve" smooth="yes"/>
      <point x="406.82828282828285" y="-15.404040404040405"/>
      <point x="477.1414141414142" y="50.747474747474755"/>
      <point x="477.1414141414142" y="151.43434343434348" type="curve" smooth="yes"/>
      <point x="477.1414141414142" y="252.12121212121215"/>
      <point x="408.989898989899" y="319.1919191919193"/>
      <point x="291.92929292929296" y="319.1919191919193" type="curve" smooth="yes"/>
      <point x="174.86868686868686" y="319.1919191919193"/>
      <point x="106.71717171717171" y="254.28282828282832"/>
      <point x="106.71717171717171" y="151.43434343434348" type="curve" smooth="yes"/>
      <point x="106.71717171717171" y="48.585858585858595"/>
      <point x="177.03030303030303" y="-15.404040404040405"/>
    </contour>
  </outline>
</glyph>
<glyph name="slash" format="2">
  <advance width="854.8585858585859"/>
  <unicode hex="002F"/>
  <outline>
    <contour>
      <point x="0.0" y="-240.0" type="line"/>
      <point x="283.08080808080814" y="-240.0" type="line"/>
      <point x="854.8585858585859" y="1616.0" type="line"/>
      <point x="571.7777777777778" y="1616.0" type="line"/>
    </contour>
  </outline>
</glyph>
<glyph name="zero" format="2">
  <advance width="1475.6464646464647"/>
  <unicode hex="0030"/>
  <note>
600
</note>
  <outline>
    <contour>
      <point x="737.2828282828283" y="-19.08080808080808" type="curve" smooth="yes"/>
      <point x="1112.4040404040404" y="-19.08080808080808"/>
      <point x="1356.828282828283" y="212.26262626262627"/>
      <point x="1356.828282828283" y="740.0" type="curve" smooth="yes"/>
      <point x="1356.828282828283" y="1267.7373737373737"/>
      <point x="1115.1616161616162" y="1499.080808080808"/>
      <point x="737.2828282828283" y="1499.080808080808" type="curve" smooth="yes"/>
      <point x="359.4040404040404" y="1499.080808080808"/>
      <point x="118.81818181818181" y="1267.7373737373737"/>
      <point x="118.81818181818181" y="740.0" type="curve" smooth="yes"/>
      <point x="118.81818181818181" y="212.26262626262627"/>
      <point x="362.16161616161617" y="-19.08080808080808"/>
    </contour>
    <contour>
      <point x="738.3636363636364" y="215.52525252525257" type="curve" smooth="yes"/>
      <point x="531.5353535353536" y="215.52525252525257"/>
      <point x="401.5757575757576" y="337.8585858585859"/>
      <point x="401.5757575757576" y="741.8383838383838" type="curve" smooth="yes"/>
      <point x="401.5757575757576" y="1142.141414141414"/>
      <point x="533.6969696969697" y="1264.4747474747473"/>
      <point x="738.3636363636364" y="1264.4747474747473" type="curve" smooth="yes"/>
      <point x="941.9494949494949" y="1264.4747474747473"/>
      <point x="1074.0707070707072" y="1142.141414141414"/>
      <point x="1074.0707070707072" y="738.1616161616162" type="curve" smooth="yes"/>
      <point x="1074.0707070707072" y="337.8585858585859"/>
      <point x="941.9494949494949" y="215.52525252525257"/>
    </contour>
  </outline>
</glyph>
<glyph name="one" format="2">
  <advance width="944.2323232323233"/>
  <unicode hex="0031"/>
  <outline>
    <contour>
      <point x="476.22222222222223" y="0.0" type="line"/>
      <point x="764.7070707070708" y="0.0" type="line"/>
      <point x="764.7070707070708" y="1485.080808080808" type="line"/>
      <point x="570.6363636363636" y="1485.080808080808" type="line"/>
      <point x="38.969696969696976" y="1104.060606060606" type="line"/>
      <point x="38.969696969696976" y="830.5959595959595" type="line"/>
      <point x="570.6363636363636" y="1209.7777777777778" type="line"/>
      <point x="476.22222222222223" y="1320.2929292929293" type="line"/>
    </contour>
  </outline>
</glyph>
<glyph name="two" format="2">
  <advance width="1183.6464646464647"/>
  <unicode hex="0032"/>
  <outline>
    <contour>
      <point x="63.62626262626262" y="0.0" type="line"/>
      <point x="1117.6969696969697" y="0.0" type="line"/>
      <point x="1117.6969696969697" y="228.28282828282832" type="line"/>
      <point x="377.88888888888897" y="228.28282828282832" type="line"/>
      <point x="383.2424242424243" y="152.40404040404042" type="line"/>
      <point x="779.6868686868687" y="577.4545454545455" type="line" smooth="yes"/>
      <point x="966.2323232323233" y="777.4646464646464"/>
      <point x="1030.989898989899" y="912.5454545454545"/>
      <point x="1030.989898989899" y="1076.6565656565656" type="curve" smooth="yes"/>
      <point x="1030.989898989899" y="1362.111111111111"/>
      <point x="844.1313131313132" y="1499.080808080808"/>
      <point x="449.1313131313131" y="1499.080808080808" type="curve" smooth="yes"/>
      <point x="305.29292929292933" y="1499.080808080808"/>
      <point x="145.62626262626262" y="1472.7575757575758"/>
      <point x="45.62626262626262" y="1439.080808080808" type="curve"/>
      <point x="45.62626262626262" y="1208.9595959595958" type="line"/>
      <point x="149.8989898989899" y="1246.6363636363635"/>
      <point x="289.35353535353534" y="1273.121212121212"/>
      <point x="429.67676767676767" y="1273.121212121212" type="curve" smooth="yes"/>
      <point x="654.6565656565656" y="1273.121212121212"/>
      <point x="746.989898989899" y="1200.3030303030303"/>
      <point x="746.989898989899" y="1045.6363636363635" type="curve" smooth="yes"/>
      <point x="746.989898989899" y="941.7878787878788"/>
      <point x="695.959595959596" y="843.4545454545455"/>
      <point x="543.4646464646464" y="675.1717171717172" type="curve" smooth="yes"/>
      <point x="63.62626262626262" y="149.1616161616162" type="line"/>
    </contour>
  </outline>
</glyph>
<glyph name="three" format="2">
  <advance width="1193.4848484848485"/>
  <unicode hex="0033"/>
  <outline>
    <contour>
      <point x="491.3939393939394" y="-19.08080808080808" type="curve" smooth="yes"/>
      <point x="931.9191919191919" y="-19.08080808080808"/>
      <point x="1118.888888888889" y="149.56565656565655"/>
      <point x="1118.888888888889" y="414.80808080808083" type="curve" smooth="yes"/>
      <point x="1118.888888888889" y="626.3232323232323"/>
      <point x="982.6161616161617" y="746.1111111111111"/>
      <point x="754.7676767676769" y="775.3535353535353" type="curve"/>
      <point x="754.7676767676769" y="755.0808080808081" type="line"/>
      <point x="942.5050505050506" y="794.9191919191919"/>
      <point x="1065.8080808080808" y="920.5959595959596"/>
      <point x="1065.8080808080808" y="1101.7373737373737" type="curve" smooth="yes"/>
      <point x="1065.8080808080808" y="1351.3535353535353"/>
      <point x="876.3535353535353" y="1499.080808080808"/>
      <point x="502.21212121212125" y="1499.080808080808" type="curve" smooth="yes"/>
      <point x="363.5656565656566" y="1499.080808080808"/>
      <point x="209.14141414141415" y="1476.7575757575758"/>
      <point x="97.46464646464646" y="1441.8383838383838" type="curve"/>
      <point x="97.46464646464646" y="1232.2525252525252" type="line"/>
      <point x="216.97979797979798" y="1271.171717171717"/>
      <point x="355.19191919191917" y="1291.4949494949494"/>
      <point x="477.5151515151515" y="1291.4949494949494" type="curve" smooth="yes"/>
      <point x="688.4444444444445" y="1291.4949494949494"/>
      <point x="789.3737373737373" y="1213.0"/>
      <point x="789.3737373737373" y="1081.3636363636363" type="curve" smooth="yes"/>
      <point x="789.3737373737373" y="936.7474747474747"/>
      <point x="679.4646464646464" y="862.0909090909091"/>
      <point x="427.39393939393943" y="862.0909090909091" type="curve" smooth="yes"/>
      <point x="253.04040404040404" y="862.0909090909091" type="line"/>
      <point x="253.04040404040404" y="653.4242424242424" type="line"/>
      <point x="510.0" y="653.4242424242424" type="line" smooth="yes"/>
      <point x="754.1717171717172" y="653.4242424242424"/>
      <point x="850.020202020202" y="574.1717171717172"/>
      <point x="850.020202020202" y="430.85858585858585" type="curve" smooth="yes"/>
      <point x="850.020202020202" y="277.4343434343435"/>
      <point x="742.0101010101009" y="188.50505050505055"/>
      <point x="478.1010101010101" y="188.50505050505055" type="curve" smooth="yes"/>
      <point x="338.64646464646466" y="188.50505050505055"/>
      <point x="187.35353535353534" y="212.6666666666667"/>
      <point x="58.59595959595959" y="249.10101010101013" type="curve"/>
      <point x="58.59595959595959" y="39.515151515151516" type="line"/>
      <point x="186.32323232323233" y="2.919191919191919"/>
      <point x="337.13131313131316" y="-19.08080808080808"/>
    </contour>
  </outline>
</glyph>
<glyph name="four" format="2">
  <advance width="1386.2929292929293"/>
  <unicode hex="0034"/>
  <outline>
    <contour>
      <point x="45.03030303030303" y="314.8282828282828" type="line"/>
      <point x="1346.020202020202" y="314.8282828282828" type="line"/>
      <point x="1346.020202020202" y="538.7878787878788" type="line"/>
      <point x="299.7373737373738" y="538.7878787878788" type="line"/>
      <point x="327.46464646464653" y="467.3939393939394" type="line"/>
      <point x="926.3535353535353" y="1480.0" type="line"/>
      <point x="645.1616161616162" y="1480.0" type="line"/>
      <point x="45.03030303030303" y="468.3131313131313" type="line"/>
    </contour>
    <contour>
      <point x="867.2525252525252" y="0.0" type="line"/>
      <point x="1128.7171717171718" y="0.0" type="line"/>
      <point x="1128.7171717171718" y="980.0" type="line"/>
      <point x="895.3030303030303" y="980.0" type="line"/>
      <point x="867.2525252525252" y="538.7878787878788" type="line"/>
    </contour>
  </outline>
</glyph>
<glyph name="five" format="2">
  <advance width="1208.2424242424242"/>
  <unicode hex="0035"/>
  <outline>
    <contour>
      <point x="517.2323232323233" y="-19.08080808080808" type="curve" smooth="yes"/>
      <point x="941.7575757575758" y="-19.08080808080808"/>
      <point x="1144.7272727272727" y="144.96969696969697"/>
      <point x="1145.8080808080808" y="436.85858585858585" type="curve" smooth="yes"/>
      <point x="1146.888888888889" y="711.070707070707"/>
      <point x="963.0" y="860.3636363636364"/>
      <point x="455.33333333333337" y="886.2020202020202" type="curve" smooth="yes"/>
      <point x="221.07070707070707" y="898.2020202020202" type="line"/>
      <point x="417.89898989898995" y="795.8383838383838" type="line"/>
      <point x="460.6565656565657" y="1384.121212121212" type="line"/>
      <point x="336.1919191919192" y="1269.010101010101" type="line"/>
      <point x="1081.6464646464647" y="1269.010101010101" type="line"/>
      <point x="1081.6464646464647" y="1480.0" type="line"/>
      <point x="196.7070707070707" y="1480.0" type="line"/>
      <point x="141.46464646464645" y="692.7777777777777" type="line"/>
      <point x="375.72727272727275" y="680.7777777777777" type="line" smooth="yes"/>
      <point x="771.090909090909" y="659.10101010101"/>
      <point x="875.8585858585859" y="584.4444444444445"/>
      <point x="875.8585858585859" y="434.6969696969697" type="curve" smooth="yes"/>
      <point x="875.8585858585859" y="277.16161616161617"/>
      <point x="762.3333333333333" y="192.82828282828288"/>
      <point x="503.93939393939394" y="192.82828282828288" type="curve" smooth="yes"/>
      <point x="362.64646464646466" y="192.82828282828288"/>
      <point x="211.35353535353534" y="216.98989898989905"/>
      <point x="84.43434343434343" y="253.42424242424246" type="curve"/>
      <point x="84.43434343434343" y="43.838383838383834" type="line"/>
      <point x="211.24242424242425" y="6.0"/>
      <point x="362.0505050505051" y="-19.08080808080808"/>
    </contour>
  </outline>
</glyph>
<glyph name="six" format="2">
  <advance width="1362.6161616161617"/>
  <unicode hex="0036"/>
  <outline>
    <contour>
      <point x="748.959595959596" y="-19.08080808080808" type="curve" smooth="yes"/>
      <point x="1089.3737373737374" y="-19.08080808080808"/>
      <point x="1293.2626262626263" y="152.26262626262627"/>
      <point x="1293.2626262626263" y="432.26262626262627" type="curve" smooth="yes"/>
      <point x="1293.2626262626263" y="736.959595959596"/>
      <point x="1089.969696969697" y="877.7171717171717"/>
      <point x="772.1313131313132" y="877.7171717171717" type="curve" smooth="yes"/>
      <point x="621.6969696969697" y="877.7171717171717"/>
      <point x="458.5050505050506" y="833.1212121212121"/>
      <point x="363.6363636363637" y="761.929292929293" type="curve"/>
      <point x="363.6363636363637" y="569.040404040404" type="line"/>
      <point x="461.42424242424244" y="642.1818181818181"/>
      <point x="599.7070707070707" y="676.6161616161615"/>
      <point x="717.3333333333334" y="676.6161616161615" type="curve" smooth="yes"/>
      <point x="918.1111111111111" y="676.6161616161615"/>
      <point x="1031.9595959595958" y="596.4444444444445"/>
      <point x="1031.9595959595958" y="425.93939393939394" type="curve" smooth="yes"/>
      <point x="1031.9595959595958" y="261.75757575757575"/>
      <point x="920.5959595959596" y="182.02020202020205"/>
      <point x="748.959595959596" y="182.02020202020205" type="curve" smooth="yes"/>
      <point x="533.1010101010102" y="182.02020202020205"/>
      <point x="405.5757575757576" y="302.8989898989899"/>
      <point x="405.5757575757576" y="650.929292929293" type="curve" smooth="yes"/>
      <point x="405.5757575757576" y="767.7676767676768" type="line" smooth="yes"/>
      <point x="405.5757575757576" y="1106.1313131313132"/>
      <point x="561.7474747474748" y="1287.171717171717"/>
      <point x="894.1919191919192" y="1287.171717171717" type="curve" smooth="yes"/>
      <point x="995.3232323232323" y="1287.171717171717"/>
      <point x="1117.8080808080808" y="1270.8484848484848"/>
      <point x="1214.4545454545455" y="1233.7676767676767" type="curve"/>
      <point x="1214.4545454545455" y="1447.6767676767677" type="line"/>
      <point x="1112.2424242424242" y="1486.0"/>
      <point x="998.8383838383838" y="1499.080808080808"/>
      <point x="874.8989898989898" y="1499.080808080808" type="curve" smooth="yes"/>
      <point x="384.4848484848485" y="1499.080808080808"/>
      <point x="126.97979797979798" y="1215.6262626262626"/>
      <point x="126.97979797979798" y="687.5151515151515" type="curve" smooth="yes"/>
      <point x="126.97979797979798" y="203.2929292929293"/>
      <point x="370.969696969697" y="-19.08080808080808"/>
    </contour>
  </outline>
</glyph>
<glyph name="seven" format="2">
  <advance width="1121.050505050505"/>
  <unicode hex="0037"/>
  <outline>
    <contour>
      <point x="202.0" y="0.0" type="line"/>
      <point x="497.4040404040405" y="0.0" type="line"/>
      <point x="1061.2121212121212" y="1330.8383838383838" type="line"/>
      <point x="1061.2121212121212" y="1480.0" type="line"/>
      <point x="13.838383838383837" y="1480.0" type="line"/>
      <point x="13.838383838383837" y="1251.7171717171716" type="line"/>
      <point x="875.6767676767677" y="1251.7171717171716" type="line"/>
      <point x="786.1818181818181" y="1331.7575757575758" type="line"/>
    </contour>
  </outline>
</glyph>
<glyph name="eight" format="2">
  <advance width="1475.6464646464647"/>
  <unicode hex="0038"/>
  <outline>
    <contour>
      <point x="742.959595959596" y="-19.08080808080808" type="curve" smooth="yes"/>
      <point x="1173.1010101010102" y="-19.08080808080808"/>
      <point x="1368.3434343434344" y="164.42424242424244"/>
      <point x="1368.3434343434344" y="406.26262626262627" type="curve" smooth="yes"/>
      <point x="1368.3434343434344" y="617.5050505050506"/>
      <point x="1235.3131313131314" y="756.4747474747475"/>
      <point x="833.4848484848485" y="837.010101010101" type="curve" smooth="yes"/>
      <point x="504.29292929292933" y="901.6565656565657"/>
      <point x="425.3636363636364" y="972.1515151515151"/>
      <point x="425.3636363636364" y="1102.3838383838383" type="curve" smooth="yes"/>
      <point x="425.3636363636364" y="1220.888888888889"/>
      <point x="521.0505050505051" y="1304.4646464646464"/>
      <point x="747.6565656565657" y="1304.4646464646464" type="curve" smooth="yes"/>
      <point x="958.2121212121212" y="1304.4646464646464"/>
      <point x="1067.4141414141413" y="1229.8080808080808"/>
      <point x="1067.4141414141413" y="1094.979797979798" type="curve" smooth="yes"/>
      <point x="1067.4141414141413" y="973.1818181818182"/>
      <point x="996.2727272727273" y="885.8787878787879"/>
      <point x="816.7474747474747" y="814.5252525252525" type="curve"/>
      <point x="990.8282828282829" y="745.939393939394" type="line"/>
      <point x="1223.6868686868688" y="819.0202020202021"/>
      <point x="1319.1515151515152" y="955.1818181818182"/>
      <point x="1319.1515151515152" y="1127.2424242424242" type="curve" smooth="yes"/>
      <point x="1319.1515151515152" y="1360.1616161616162"/>
      <point x="1117.858585858586" y="1499.080808080808"/>
      <point x="756.1414141414142" y="1499.080808080808" type="curve" smooth="yes"/>
      <point x="350.5454545454545" y="1499.080808080808"/>
      <point x="153.4141414141414" y="1333.141414141414"/>
      <point x="153.4141414141414" y="1090.6565656565656" type="curve" smooth="yes"/>
      <point x="153.4141414141414" y="874.060606060606"/>
      <point x="290.9292929292929" y="718.2828282828283"/>
      <point x="697.1919191919192" y="642.3939393939394" type="curve" smooth="yes"/>
      <point x="1008.2222222222222" y="584.2323232323232"/>
      <point x="1099.6363636363635" y="517.0909090909091"/>
      <point x="1099.6363636363635" y="388.21212121212125" type="curve" smooth="yes"/>
      <point x="1099.6363636363635" y="252.7878787878788"/>
      <point x="987.5151515151515" y="175.53535353535358"/>
      <point x="744.959595959596" y="175.53535353535358" type="curve" smooth="yes"/>
      <point x="495.0505050505051" y="175.53535353535358"/>
      <point x="374.01010101010104" y="257.11111111111114"/>
      <point x="374.01010101010104" y="405.77777777777777" type="curve" smooth="yes"/>
      <point x="374.01010101010104" y="525.5757575757576"/>
      <point x="456.3434343434344" y="635.1515151515151"/>
      <point x="650.6767676767677" y="688.8282828282828" type="curve"/>
      <point x="453.6262626262626" y="754.1717171717172" type="line"/>
      <point x="230.97979797979798" y="692.6565656565656"/>
      <point x="104.06060606060605" y="556.8181818181818"/>
      <point x="104.06060606060605" y="367.19191919191917" type="curve" smooth="yes"/>
      <point x="104.06060606060605" y="134.21212121212122"/>
      <point x="295.4141414141414" y="-19.08080808080808"/>
    </contour>
  </outline>
</glyph>
<glyph name="nine" format="2">
  <advance width="1362.6161616161617"/>
  <unicode hex="0039"/>
  <outline>
    <contour>
      <point x="613.6565656565657" y="1499.080808080808" type="curve" smooth="yes"/>
      <point x="273.24242424242425" y="1499.080808080808"/>
      <point x="69.35353535353535" y="1327.7373737373737"/>
      <point x="69.35353535353535" y="1047.7373737373737" type="curve" smooth="yes"/>
      <point x="69.35353535353535" y="743.040404040404"/>
      <point x="272.64646464646466" y="602.2828282828283"/>
      <point x="590.4848484848485" y="602.2828282828283" type="curve" smooth="yes"/>
      <point x="740.9191919191919" y="602.2828282828283"/>
      <point x="904.1111111111111" y="646.8787878787879"/>
      <point x="998.9797979797979" y="718.070707070707" type="curve"/>
      <point x="998.9797979797979" y="910.959595959596" type="line"/>
      <point x="901.1919191919192" y="837.8181818181819"/>
      <point x="762.909090909091" y="803.3838383838385"/>
      <point x="645.2828282828283" y="803.3838383838385" type="curve" smooth="yes"/>
      <point x="444.5050505050505" y="803.3838383838385"/>
      <point x="330.6565656565657" y="883.5555555555555"/>
      <point x="330.6565656565657" y="1054.060606060606" type="curve" smooth="yes"/>
      <point x="330.6565656565657" y="1218.2424242424242"/>
      <point x="442.0202020202021" y="1297.979797979798"/>
      <point x="613.6565656565657" y="1297.979797979798" type="curve" smooth="yes"/>
      <point x="829.5151515151515" y="1297.979797979798"/>
      <point x="957.040404040404" y="1177.1010101010102"/>
      <point x="957.040404040404" y="829.070707070707" type="curve" smooth="yes"/>
      <point x="957.040404040404" y="712.2323232323232" type="line" smooth="yes"/>
      <point x="957.040404040404" y="373.8686868686869"/>
      <point x="800.8686868686868" y="192.82828282828285"/>
      <point x="468.4242424242424" y="192.82828282828285" type="curve" smooth="yes"/>
      <point x="367.29292929292933" y="192.82828282828285"/>
      <point x="244.8080808080808" y="209.15151515151518"/>
      <point x="148.16161616161617" y="246.2323232323233" type="curve"/>
      <point x="148.16161616161617" y="32.323232323232325" type="line"/>
      <point x="250.37373737373736" y="-6.0"/>
      <point x="363.77777777777777" y="-19.08080808080808"/>
      <point x="487.7171717171717" y="-19.08080808080808" type="curve" smooth="yes"/>
      <point x="978.1313131313132" y="-19.08080808080808"/>
      <point x="1235.6363636363637" y="264.37373737373736"/>
      <point x="1235.6363636363637" y="792.4848484848485" type="curve" smooth="yes"/>
      <point x="1235.6363636363637" y="1276.7070707070707"/>
      <point x="991.6464646464647" y="1499.080808080808"/>
    </contour>
  </outline>
</glyph>
<glyph name="semicolon" format="2">
  <advance width="583.8585858585859"/>
  <unicode hex="003B"/>
  <outline>
    <contour>
      <point x="171.67676767676767" y="-332.42424242424244" type="curve"/>
      <point x="331.32323232323233" y="-332.42424242424244" type="line"/>
      <point x="417.959595959596" y="-212.4848484848485"/>
      <point x="474.97979797979804" y="-55.252525252525245"/>
      <point x="474.97979797979804" y="101.17171717171719" type="curve" smooth="yes"/>
      <point x="474.97979797979804" y="247.63636363636368"/>
      <point x="408.989898989899" y="319.1919191919193"/>
      <point x="287.7676767676768" y="319.1919191919193" type="curve" smooth="yes"/>
      <point x="173.94949494949495" y="319.1919191919193"/>
      <point x="106.71717171717171" y="254.28282828282832"/>
      <point x="106.71717171717171" y="152.3535353535354" type="curve" smooth="yes"/>
      <point x="106.71717171717171" y="49.50505050505051"/>
      <point x="177.03030303030303" y="-15.404040404040405"/>
      <point x="291.92929292929296" y="-15.404040404040405" type="curve" smooth="yes"/>
      <point x="327.7070707070707" y="-15.404040404040405" type="line"/>
      <point x="269.6666666666667" y="33.61616161616162" type="line"/>
      <point x="269.6666666666667" y="-85.67676767676768"/>
      <point x="233.6161616161616" y="-196.8080808080808"/>
    </contour>
    <contour>
      <point x="291.92929292929296" y="771.6161616161615" type="curve" smooth="yes"/>
      <point x="406.82828282828285" y="771.6161616161615"/>
      <point x="477.1414141414142" y="837.7676767676767"/>
      <point x="477.1414141414142" y="938.4545454545454" type="curve" smooth="yes"/>
      <point x="477.1414141414142" y="1039.141414141414"/>
      <point x="408.989898989899" y="1106.2121212121212"/>
      <point x="291.92929292929296" y="1106.2121212121212" type="curve" smooth="yes"/>
      <point x="174.86868686868686" y="1106.2121212121212"/>
      <point x="106.71717171717171" y="1041.3030303030303"/>
      <point x="106.71717171717171" y="938.4545454545454" type="curve" smooth="yes"/>
      <point x="106.71717171717171" y="835.6060606060605"/>
      <point x="177.03030303030303" y="771.6161616161615"/>
    </contour>
  </outline>
</glyph>
<glyph name="less" format="2">
  <advance width="1155.5555555555557"/>
  <unicode hex="003C"/>
  <outline>
    <contour>
      <point x="1006.6262626262626" y="305.48484848484844" type="line"/>
      <point x="1006.6262626262626" y="522.3131313131313" type="line"/>
      <point x="306.95959595959596" y="783.8888888888889" type="line"/>
      <point x="306.95959595959596" y="741.5151515151515" type="line"/>
      <point x="1006.6262626262626" y="997.6868686868687" type="line"/>
      <point x="1006.6262626262626" y="1214.5151515151515" type="line"/>
      <point x="148.92929292929293" y="887.5959595959596" type="line"/>
      <point x="148.92929292929293" y="632.4040404040404" type="line"/>
    </contour>
  </outline>
</glyph>
<glyph name="equal" format="2">
  <advance width="1155.5555555555557"/>
  <unicode hex="003D"/>
  <outline>
    <contour>
      <point x="148.92929292929293" y="872.1717171717172" type="line"/>
      <point x="1006.6262626262626" y="872.1717171717172" type="line"/>
      <point x="1006.6262626262626" y="1085.3232323232323" type="line"/>
      <point x="148.92929292929293" y="1085.3232323232323" type="line"/>
    </contour>
    <contour>
      <point x="148.92929292929293" y="434.67676767676767" type="line"/>
      <point x="1006.6262626262626" y="434.67676767676767" type="line"/>
      <point x="1006.6262626262626" y="647.8282828282828" type="line"/>
      <point x="148.92929292929293" y="647.8282828282828" type="line"/>
    </contour>
  </outline>
</glyph>
<glyph name="question" format="2">
  <advance width="1076.7777777777778"/>
  <unicode hex="003F"/>
  <outline>
    <contour>
      <point x="409.67676767676767" y="425.3737373737374" type="line"/>
      <point x="581.969696969697" y="425.3737373737374" type="line"/>
      <point x="601.6969696969697" y="666.2727272727273" type="line"/>
      <point x="878.3535353535353" y="748.1717171717172"/>
      <point x="1013.1010101010102" y="875.2525252525253"/>
      <point x="1013.1010101010102" y="1096.3333333333333" type="curve" smooth="yes"/>
      <point x="1013.1010101010102" y="1351.3535353535353"/>
      <point x="823.6464646464647" y="1499.080808080808"/>
      <point x="449.50505050505046" y="1499.080808080808" type="curve" smooth="yes"/>
      <point x="310.85858585858585" y="1499.080808080808"/>
      <point x="156.43434343434342" y="1476.7575757575758"/>
      <point x="44.75757575757575" y="1441.8383838383838" type="curve"/>
      <point x="44.75757575757575" y="1221.4444444444443" type="line"/>
      <point x="164.27272727272728" y="1260.3636363636363"/>
      <point x="300.32323232323233" y="1280.6868686868686"/>
      <point x="422.64646464646466" y="1280.6868686868686" type="curve" smooth="yes"/>
      <point x="635.7373737373737" y="1280.6868686868686"/>
      <point x="736.6666666666666" y="1205.4343434343434"/>
      <point x="736.6666666666666" y="1079.20202020202" type="curve" smooth="yes"/>
      <point x="736.6666666666666" y="952.5353535353536"/>
      <point x="651.7979797979798" y="867.2323232323232"/>
      <point x="360.9292929292929" y="807.2222222222223" type="curve"/>
    </contour>
    <contour>
      <point x="496.3636363636364" y="-15.404040404040405" type="curve" smooth="yes"/>
      <point x="612.1818181818182" y="-15.404040404040405"/>
      <point x="681.5757575757576" y="47.34343434343435"/>
      <point x="681.5757575757576" y="140.62626262626264" type="curve" smooth="yes"/>
      <point x="681.5757575757576" y="234.82828282828288"/>
      <point x="613.4242424242425" y="297.5757575757576"/>
      <point x="496.3636363636364" y="297.5757575757576" type="curve" smooth="yes"/>
      <point x="379.3030303030303" y="297.5757575757576"/>
      <point x="311.1515151515151" y="236.98989898989905"/>
      <point x="311.1515151515151" y="140.62626262626264" type="curve" smooth="yes"/>
      <point x="311.1515151515151" y="45.18181818181819"/>
      <point x="381.4646464646464" y="-15.404040404040405"/>
    </contour>
  </outline>
</glyph>
<glyph name="at" format="2">
  <advance width="2272.060606060606"/>
  <unicode hex="0040"/>
  <outline>
    <contour>
      <point x="1187.8686868686868" y="-460.0" type="curve" smooth="yes"/>
      <point x="1355.8080808080808" y="-460.0"/>
      <point x="1523.2626262626263" y="-441.0808080808081"/>
      <point x="1679.5252525252527" y="-405.0808080808081" type="curve"/>
      <point x="1679.5252525252527" y="-224.67676767676764" type="line"/>
      <point x="1512.0707070707072" y="-262.5151515151515"/>
      <point x="1354.888888888889" y="-280.5151515151515"/>
      <point x="1187.8686868686868" y="-280.5151515151515" type="curve" smooth="yes"/>
      <point x="588.3030303030304" y="-280.5151515151515"/>
      <point x="315.919191919192" y="-36.121212121212096"/>
      <point x="315.919191919192" y="521.8383838383838" type="curve" smooth="yes"/>
      <point x="315.919191919192" y="1071.5252525252524"/>
      <point x="586.4646464646464" y="1318.5151515151515"/>
      <point x="1143.111111111111" y="1318.5151515151515" type="curve" smooth="yes"/>
      <point x="1699.919191919192" y="1318.5151515151515"/>
      <point x="1967.7070707070707" y="1079.5252525252524"/>
      <point x="1970.9494949494951" y="568.0505050505051" type="curve" smooth="yes"/>
      <point x="1973.1111111111113" y="251.2828282828283"/>
      <point x="1882.6161616161617" y="155.00000000000003"/>
      <point x="1771.2020202020203" y="155.00000000000003" type="curve" smooth="yes"/>
      <point x="1692.2222222222222" y="155.00000000000003"/>
      <point x="1646.1111111111113" y="192.19191919191923"/>
      <point x="1646.1111111111113" y="298.95959595959596" type="curve" smooth="yes"/>
      <point x="1646.1111111111113" y="649.3737373737374" type="line" smooth="yes"/>
      <point x="1646.1111111111113" y="986.060606060606"/>
      <point x="1477.7373737373737" y="1097.080808080808"/>
      <point x="1122.8989898989898" y="1097.080808080808" type="curve" smooth="yes"/>
      <point x="999.6060606060606" y="1097.080808080808"/>
      <point x="861.5555555555555" y="1076.919191919192"/>
      <point x="748.1010101010102" y="1038.7575757575758" type="curve"/>
      <point x="748.1010101010102" y="833.4949494949494" type="line"/>
      <point x="857.4545454545455" y="871.1717171717171"/>
      <point x="984.1010101010102" y="889.4949494949494"/>
      <point x="1078.4242424242425" y="889.4949494949494" type="curve" smooth="yes"/>
      <point x="1279.939393939394" y="889.4949494949494"/>
      <point x="1369.5151515151515" y="836.8989898989898"/>
      <point x="1369.5151515151515" y="659.2626262626262" type="curve" smooth="yes"/>
      <point x="1369.5151515151515" y="264.47474747474746" type="line"/>
      <point x="1304.4242424242425" y="203.2727272727273"/>
      <point x="1198.6868686868688" y="172.13131313131316"/>
      <point x="1117.2121212121212" y="172.13131313131316" type="curve" smooth="yes"/>
      <point x="998.2222222222223" y="172.13131313131316"/>
      <point x="926.1111111111112" y="220.46464646464648"/>
      <point x="926.1111111111112" y="316.31313131313135" type="curve" smooth="yes"/>
      <point x="926.1111111111112" y="412.4848484848485"/>
      <point x="989.2525252525254" y="456.3838383838384"/>
      <point x="1135.6464646464647" y="471.57575757575756" type="curve" smooth="yes"/>
      <point x="1449.0707070707072" y="502.1212121212121" type="line"/>
      <point x="1429.888888888889" y="653.5050505050505" type="line"/>
      <point x="1114.030303030303" y="622.959595959596" type="line" smooth="yes"/>
      <point x="786.8585858585859" y="596.3636363636364"/>
      <point x="644.5959595959596" y="488.31313131313135"/>
      <point x="644.5959595959596" y="291.77777777777777" type="curve" smooth="yes"/>
      <point x="644.5959595959596" y="104.05050505050505"/>
      <point x="780.1616161616162" y="-19.242424242424242"/>
      <point x="1035.0707070707072" y="-19.242424242424242" type="curve" smooth="yes"/>
      <point x="1177.3434343434344" y="-19.242424242424242"/>
      <point x="1311.6161616161617" y="28.707070707070702"/>
      <point x="1374.919191919192" y="131.08080808080808" type="curve"/>
      <point x="1392.4848484848485" y="131.08080808080808" type="line"/>
      <point x="1446.7474747474748" y="33.35353535353535"/>
      <point x="1550.2525252525252" y="-19.242424242424242"/>
      <point x="1704.5151515151515" y="-19.242424242424242" type="curve" smooth="yes"/>
      <point x="1974.6565656565658" y="-19.242424242424242"/>
      <point x="2162.3232323232323" y="144.59595959595958"/>
      <point x="2163.2424242424245" y="575.1313131313132" type="curve" smooth="yes"/>
      <point x="2164.161616161616" y="1177.4545454545455"/>
      <point x="1805.848484848485" y="1498.0"/>
      <point x="1143.111111111111" y="1498.0" type="curve" smooth="yes"/>
      <point x="482.3737373737374" y="1498.0"/>
      <point x="108.81818181818181" y="1177.4545454545455"/>
      <point x="108.81818181818181" y="520.0" type="curve" smooth="yes"/>
      <point x="108.81818181818181" y="-139.2929292929293"/>
      <point x="483.29292929292933" y="-459.0808080808081"/>
    </contour>
  </outline>
</glyph>
<glyph name="A" format="2">
  <advance width="1613.848484848485"/>
  <unicode hex="0041"/>
  <note>
520
</note>
  <anchor x="807.3838383838383" y="0.0" name="bottom"/>
  <anchor x="1583.1414141414143" y="0.0" name="ogonek"/>
  <anchor x="806.3030303030303" y="1520.0" name="top"/>
  <outline>
    <contour>
      <point x="30.707070707070706" y="0.0" type="line"/>
      <point x="313.30303030303037" y="0.0" type="line"/>
      <point x="821.7070707070707" y="1355.6969696969697" type="line"/>
      <point x="789.060606060606" y="1355.6969696969697" type="line"/>
      <point x="1297.4646464646464" y="0.0" type="line"/>
      <point x="1583.1414141414143" y="0.0" type="line"/>
      <point x="1012.5858585858587" y="1480.0" type="line"/>
      <point x="601.2626262626262" y="1480.0" type="line"/>
    </contour>
    <contour>
      <point x="418.1919191919192" y="423.16161616161617" type="line"/>
      <point x="1193.4949494949497" y="423.16161616161617" type="line"/>
      <point x="1125.939393939394" y="642.6363636363636" type="line"/>
      <point x="486.82828282828285" y="642.6363636363636" type="line"/>
    </contour>
  </outline>
</glyph>
<glyph name="B" format="2">
  <advance width="1439.2727272727273"/>
  <unicode hex="0042"/>
  <anchor x="743.4444444444445" y="0.0" name="bottom"/>
  <anchor x="743.4444444444445" y="1480.0" name="top"/>
  <outline>
    <contour>
      <point x="612.8080808080808" y="-15.404040404040405" type="curve" smooth="yes"/>
      <point x="1179.0" y="-15.404040404040405"/>
      <point x="1367.8080808080808" y="144.96969696969697"/>
      <point x="1367.8080808080808" y="416.2121212121212" type="curve" smooth="yes"/>
      <point x="1367.8080808080808" y="618.5353535353536"/>
      <point x="1249.0" y="742.9191919191919"/>
      <point x="1038.4444444444446" y="768.9191919191919" type="curve"/>
      <point x="1035.6868686868688" y="755.0808080808081" type="line"/>
      <point x="1224.5656565656566" y="787.0808080808081"/>
      <point x="1327.050505050505" y="914.5959595959596"/>
      <point x="1327.050505050505" y="1086.5454545454545" type="curve" smooth="yes"/>
      <point x="1327.050505050505" y="1353.1919191919192"/>
      <point x="1138.5151515151515" y="1497.2424242424242"/>
      <point x="675.8282828282829" y="1497.2424242424242" type="curve" smooth="yes"/>
      <point x="499.34343434343435" y="1497.2424242424242"/>
      <point x="319.25252525252523" y="1475.5151515151515"/>
      <point x="169.5252525252525" y="1442.111111111111" type="curve"/>
      <point x="169.5252525252525" y="13.838383838383837" type="line"/>
      <point x="314.8787878787879" y="-5.080808080808081"/>
      <point x="478.80808080808083" y="-15.404040404040405"/>
    </contour>
    <contour>
      <point x="685.060606060606" y="187.85858585858588" type="curve" smooth="yes"/>
      <point x="598.2929292929293" y="187.85858585858588"/>
      <point x="530.0707070707072" y="190.61616161616166"/>
      <point x="451.5252525252526" y="201.21212121212125" type="curve"/>
      <point x="451.5252525252526" y="1271.3838383838383" type="line"/>
      <point x="522.6666666666667" y="1285.060606060606"/>
      <point x="603.0505050505051" y="1293.979797979798"/>
      <point x="705.929292929293" y="1293.979797979798" type="curve" smooth="yes"/>
      <point x="961.5757575757575" y="1293.979797979798"/>
      <point x="1056.939393939394" y="1227.919191919192"/>
      <point x="1056.939393939394" y="1075.7373737373737" type="curve" smooth="yes"/>
      <point x="1056.939393939394" y="929.2323232323232"/>
      <point x="961.7373737373737" y="861.010101010101"/>
      <point x="743.2323232323233" y="861.010101010101" type="curve" smooth="yes"/>
      <point x="416.0707070707071" y="861.010101010101" type="line"/>
      <point x="416.0707070707071" y="654.5050505050505" type="line"/>
      <point x="771.2828282828283" y="654.5050505050505" type="line" smooth="yes"/>
      <point x="1007.4646464646464" y="654.5050505050505"/>
      <point x="1104.3434343434344" y="584.6060606060606"/>
      <point x="1104.3434343434344" y="425.6161616161616" type="curve" smooth="yes"/>
      <point x="1104.3434343434344" y="270.1919191919192"/>
      <point x="1012.3333333333333" y="187.85858585858588"/>
    </contour>
  </outline>
</glyph>
<glyph name="C" format="2">
  <advance width="1388.7272727272727"/>
  <unicode hex="0043"/>
  <anchor x="834.040404040404" y="0.0" name="bottom"/>
  <anchor x="824.8484848484849" y="1520.0" name="top"/>
  <outline>
    <contour>
      <point x="945.0505050505051" y="-19.08080808080808" type="curve" smooth="yes"/>
      <point x="1081.3232323232323" y="-19.08080808080808"/>
      <point x="1209.6464646464647" y="-1.242424242424243"/>
      <point x="1325.0" y="32.868686868686865" type="curve"/>
      <point x="1325.0" y="267.31313131313135" type="line"/>
      <point x="1204.020202020202" y="232.60606060606065"/>
      <point x="1089.858585858586" y="216.60606060606065"/>
      <point x="962.1818181818182" y="216.60606060606065" type="curve" smooth="yes"/>
      <point x="604.8282828282829" y="216.60606060606065"/>
      <point x="411.0303030303031" y="368.23232323232327"/>
      <point x="411.0303030303031" y="740.9191919191919" type="curve" smooth="yes"/>
      <point x="411.0303030303031" y="1100.7373737373737"/>
      <point x="599.3131313131314" y="1263.3939393939393"/>
      <point x="979.4242424242425" y="1263.3939393939393" type="curve" smooth="yes"/>
      <point x="1101.858585858586" y="1263.3939393939393"/>
      <point x="1216.888888888889" y="1248.7979797979797"/>
      <point x="1325.0" y="1222.5252525252524" type="curve"/>
      <point x="1325.0" y="1456.969696969697" type="line"/>
      <point x="1207.3232323232323" y="1485.4040404040404"/>
      <point x="1092.080808080808" y="1499.080808080808"/>
      <point x="958.7272727272727" y="1499.080808080808" type="curve" smooth="yes"/>
      <point x="414.9191919191919" y="1499.080808080808"/>
      <point x="108.81818181818181" y="1234.171717171717"/>
      <point x="108.81818181818181" y="736.9191919191919" type="curve" smooth="yes"/>
      <point x="108.81818181818181" y="211.66666666666669"/>
      <point x="418.1111111111111" y="-19.08080808080808"/>
    </contour>
  </outline>
</glyph>
<glyph name="F" format="2">
  <advance width="1365.5353535353536"/>
  <unicode hex="0046"/>
  <outline>
    <contour>
      <point x="169.5252525252525" y="0.0" type="line"/>
      <point x="458.01010101010104" y="0.0" type="line"/>
      <point x="458.01010101010104" y="1255.121212121212" type="line"/>
      <point x="1288.939393939394" y="1255.121212121212" type="line"/>
      <point x="1288.939393939394" y="1480.0" type="line"/>
      <point x="169.5252525252525" y="1480.0" type="line"/>
    </contour>
    <contour>
      <point x="337.6060606060606" y="618.8383838383838" type="line"/>
      <point x="1182.4545454545455" y="618.8383838383838" type="line"/>
      <point x="1182.4545454545455" y="843.7171717171717" type="line"/>
      <point x="337.6060606060606" y="843.7171717171717" type="line"/>
    </contour>
  </outline>
</glyph>
<glyph name="H" format="2">
  <advance width="1693.8080808080808"/>
  <unicode hex="0048"/>
  <anchor x="847.4444444444445" y="0.0" name="bottom"/>
  <anchor x="847.4444444444445" y="1184.3131313131314" name="center"/>
  <anchor x="847.4444444444445" y="1520.0" name="top"/>
  <anchor x="44.91919191919192" y="1480.0" name="topleft"/>
  <outline>
    <contour>
      <point x="169.5252525252525" y="0.0" type="line"/>
      <point x="458.01010101010104" y="0.0" type="line"/>
      <point x="458.01010101010104" y="633.969696969697" type="line"/>
      <point x="1235.7979797979797" y="633.969696969697" type="line"/>
      <point x="1235.7979797979797" y="0.0" type="line"/>
      <point x="1524.2828282828282" y="0.0" type="line"/>
      <point x="1524.2828282828282" y="1480.0" type="line"/>
      <point x="1235.7979797979797" y="1480.0" type="line"/>
      <point x="1235.7979797979797" y="881.5454545454545" type="line"/>
      <point x="458.01010101010104" y="881.5454545454545" type="line"/>
      <point x="458.01010101010104" y="1480.0" type="line"/>
      <point x="169.5252525252525" y="1480.0" type="line"/>
    </contour>
  </outline>
</glyph>
<glyph name="I" format="2">
  <advance width="627.5353535353536"/>
  <unicode hex="0049"/>
  <anchor x="312.6868686868687" y="0.0" name="bottom"/>
  <anchor x="458.01010101010104" y="0.0" name="ogonek"/>
  <anchor x="313.7676767676768" y="1520.0" name="top"/>
  <outline>
    <contour>
      <point x="169.5252525252525" y="0.0" type="line"/>
      <point x="458.01010101010104" y="0.0" type="line"/>
      <point x="458.01010101010104" y="1480.0" type="line"/>
      <point x="169.5252525252525" y="1480.0" type="line"/>
    </contour>
  </outline>
</glyph>
<glyph name="J" format="2">
  <advance width="627.5353535353536"/>
  <unicode hex="004A"/>
  <anchor x="487.42424242424244" y="0.0" name="bottom"/>
  <anchor x="314.8484848484849" y="1520.0" name="top"/>
  <outline>
    <contour>
      <point x="175.21212121212125" y="-349.72727272727275" type="line"/>
      <point x="380.6060606060606" y="-143.67676767676767"/>
      <point x="451.5757575757576" y="46.85858585858587"/>
      <point x="458.01010101010104" y="286.74747474747477" type="curve"/>
      <point x="458.01010101010104" y="1480.0" type="line"/>
      <point x="171.68686868686868" y="1480.0" type="line"/>
      <point x="171.68686868686868" y="294.64646464646466" type="line" smooth="yes"/>
      <point x="171.68686868686868" y="77.61616161616162"/>
      <point x="121.8989898989899" y="-75.04040404040403"/>
      <point x="-4.646464646464651" y="-227.26262626262624" type="curve"/>
    </contour>
  </outline>
</glyph>
<glyph name="K" format="2">
  <advance width="1444.888888888889"/>
  <unicode hex="004B"/>
  <anchor x="751.6565656565657" y="0.0" name="bottom"/>
  <anchor x="748.4141414141415" y="1480.0" name="top"/>
  <outline>
    <contour>
      <point x="1145.4242424242425" y="0.0" type="line"/>
      <point x="1464.7171717171718" y="0.0" type="line"/>
      <point x="859.6767676767678" y="794.5353535353536" type="line"/>
      <point x="853.1919191919193" y="724.060606060606" type="line"/>
      <point x="1418.3939393939395" y="1480.0" type="line"/>
      <point x="1109.7474747474748" y="1480.0" type="line"/>
      <point x="567.5151515151515" y="755.8383838383838" type="line"/>
    </contour>
    <contour>
      <point x="169.5252525252525" y="0.0" type="line"/>
      <point x="458.01010101010104" y="0.0" type="line"/>
      <point x="458.01010101010104" y="1480.0" type="line"/>
      <point x="169.5252525252525" y="1480.0" type="line"/>
    </contour>
    <contour>
      <point x="416.0707070707071" y="633.969696969697" type="line"/>
      <point x="691.3333333333334" y="633.969696969697" type="line"/>
      <point x="691.3333333333334" y="881.5454545454546" type="line"/>
      <point x="416.0707070707071" y="881.5454545454546" type="line"/>
    </contour>
  </outline>
</glyph>
<glyph name="L" format="2">
  <advance width="1271.0"/>
  <unicode hex="004C"/>
  <anchor x="712.4242424242425" y="0.0" name="bottom"/>
  <anchor x="841.5454545454545" y="1616.0" name="caronalt"/>
  <anchor x="935.0505050505051" y="858.3030303030304" name="periodcentered"/>
  <anchor x="313.7676767676768" y="817.2323232323232" name="slash"/>
  <anchor x="313.7676767676768" y="1520.0" name="top"/>
  <outline>
    <contour>
      <point x="169.5252525252525" y="0.0" type="line"/>
      <point x="1254.4040404040404" y="0.0" type="line"/>
      <point x="1254.4040404040404" y="229.20202020202024" type="line"/>
      <point x="458.01010101010104" y="229.20202020202024" type="line"/>
      <point x="458.01010101010104" y="1480.0" type="line"/>
      <point x="169.5252525252525" y="1480.0" type="line"/>
    </contour>
  </outline>
</glyph>
<glyph name="M" format="2">
  <advance width="2034.4444444444443"/>
  <unicode hex="004D"/>
  <anchor x="1034.5151515151515" y="0.0" name="bottom"/>
  <anchor x="1034.5151515151515" y="1480.0" name="top"/>
  <outline>
    <contour>
      <point x="173.5252525252525" y="0.0" type="line"/>
      <point x="443.79797979797985" y="0.0" type="line"/>
      <point x="443.79797979797985" y="1247.8282828282827" type="line"/>
      <point x="363.80808080808083" y="1247.8282828282827" type="line"/>
      <point x="893.8383838383838" y="210.8080808080808" type="line"/>
      <point x="1140.6060606060605" y="210.8080808080808" type="line"/>
      <point x="1656.7474747474748" y="1247.8282828282827" type="line"/>
      <point x="1590.6464646464647" y="1247.8282828282827" type="line"/>
      <point x="1590.6464646464647" y="0.0" type="line"/>
      <point x="1860.9191919191921" y="0.0" type="line"/>
      <point x="1860.9191919191921" y="1480.0" type="line"/>
      <point x="1514.5555555555557" y="1480.0" type="line"/>
      <point x="999.979797979798" y="438.4343434343435" type="line"/>
      <point x="1043.8686868686868" y="438.4343434343435" type="line"/>
      <point x="519.8888888888889" y="1480.0" type="line"/>
      <point x="173.5252525252525" y="1480.0" type="line"/>
    </contour>
  </outline>
</glyph>
<glyph name="N" format="2">
  <advance width="1713.0"/>
  <unicode hex="004E"/>
  <anchor x="856.959595959596" y="0.0" name="bottom"/>
  <anchor x="856.959595959596" y="1520.0" name="top"/>
  <outline>
    <contour>
      <point x="169.5252525252525" y="0.0" type="line"/>
      <point x="441.959595959596" y="0.0" type="line"/>
      <point x="441.959595959596" y="1157.3636363636363" type="line"/>
      <point x="388.18181818181824" y="1157.3636363636363" type="line"/>
      <point x="1252.2323232323233" y="0.0" type="line"/>
      <point x="1543.4747474747476" y="0.0" type="line"/>
      <point x="1543.4747474747476" y="1480.0" type="line"/>
      <point x="1271.0404040404042" y="1480.0" type="line"/>
      <point x="1271.0404040404042" y="322.6363636363637" type="line"/>
      <point x="1324.8181818181818" y="322.6363636363637" type="line"/>
      <point x="460.7676767676768" y="1480.0" type="line"/>
      <point x="169.5252525252525" y="1480.0" type="line"/>
    </contour>
  </outline>
</glyph>
<glyph name="P" format="2">
  <advance width="1429.6464646464647"/>
  <unicode hex="0050"/>
  <outline>
    <contour>
      <point x="169.5252525252525" y="0.0" type="line"/>
      <point x="458.01010101010104" y="0.0" type="line"/>
      <point x="458.01010101010104" y="455.2626262626262" type="line"/>
      <point x="524.5050505050506" y="450.66666666666663"/>
      <point x="583.2121212121212" y="447.7474747474747"/>
      <point x="650.030303030303" y="447.7474747474747" type="curve" smooth="yes"/>
      <point x="1117.4343434343434" y="447.7474747474747"/>
      <point x="1338.7777777777778" y="630.070707070707"/>
      <point x="1338.7777777777778" y="974.3333333333334" type="curve" smooth="yes"/>
      <point x="1338.7777777777778" y="1337.3535353535353"/>
      <point x="1103.1616161616162" y="1497.2424242424242"/>
      <point x="645.6666666666667" y="1497.2424242424242" type="curve" smooth="yes"/>
      <point x="470.16161616161617" y="1497.2424242424242"/>
      <point x="322.4949494949495" y="1480.919191919192"/>
      <point x="169.5252525252525" y="1451.8383838383838" type="curve"/>
    </contour>
    <contour>
      <point x="652.1919191919192" y="654.2525252525253" type="curve" smooth="yes"/>
      <point x="578.4545454545455" y="654.2525252525253"/>
      <point x="522.3939393939395" y="658.0909090909091"/>
      <point x="458.01010101010104" y="666.8484848484849" type="curve"/>
      <point x="458.01010101010104" y="1273.5454545454545" type="line"/>
      <point x="522.6666666666667" y="1285.060606060606"/>
      <point x="587.9191919191919" y="1290.7373737373737"/>
      <point x="670.5252525252525" y="1290.7373737373737" type="curve" smooth="yes"/>
      <point x="932.060606060606" y="1290.7373737373737"/>
      <point x="1058.1818181818182" y="1195.1616161616162"/>
      <point x="1058.1818181818182" y="973.4141414141415" type="curve" smooth="yes"/>
      <point x="1058.1818181818182" y="752.6969696969697"/>
      <point x="940.3333333333334" y="654.2525252525253"/>
    </contour>
  </outline>
</glyph>
<glyph name="Q" format="2">
  <advance width="1744.9292929292928"/>
  <unicode hex="0051"/>
  <outline>
    <contour>
      <point x="1575.5757575757575" y="-295.64646464646466" type="curve"/>
      <point x="1617.080808080808" y="-76.17171717171716" type="line"/>
      <point x="1338.3333333333335" y="-48.28282828282827"/>
      <point x="1055.5757575757575" y="-0.5555555555555429"/>
      <point x="833.1010101010102" y="80.25252525252527" type="curve"/>
      <point x="740.959595959596" y="11.45454545454546" type="line"/>
      <point x="1342.1717171717173" y="-58.161616161616166"/>
      <point x="1636.1111111111113" y="238.15151515151516"/>
      <point x="1636.1111111111113" y="740.0" type="curve" smooth="yes"/>
      <point x="1636.1111111111113" y="1241.8484848484848"/>
      <point x="1334.9292929292928" y="1499.080808080808"/>
      <point x="872.4646464646464" y="1499.080808080808" type="curve" smooth="yes"/>
      <point x="410.0" y="1499.080808080808"/>
      <point x="108.81818181818181" y="1238.4949494949494"/>
      <point x="108.81818181818181" y="729.1919191919192" type="curve" smooth="yes"/>
      <point x="108.81818181818181" y="188.15151515151516"/>
      <point x="421.83838383838383" y="-155.2828282828283"/>
    </contour>
    <contour>
      <point x="872.4646464646464" y="211.0404040404041" type="curve" smooth="yes"/>
      <point x="581.1010101010102" y="211.0404040404041"/>
      <point x="403.46464646464653" y="368.4545454545455"/>
      <point x="403.46464646464653" y="746.1616161616162" type="curve" smooth="yes"/>
      <point x="403.46464646464653" y="1109.3838383838383"/>
      <point x="586.5050505050506" y="1268.9595959595958"/>
      <point x="872.4646464646464" y="1268.9595959595958" type="curve" smooth="yes"/>
      <point x="1158.4242424242425" y="1268.9595959595958"/>
      <point x="1341.4646464646464" y="1106.141414141414"/>
      <point x="1341.4646464646464" y="733.8383838383838" type="curve" smooth="yes"/>
      <point x="1341.4646464646464" y="373.8585858585859"/>
      <point x="1161.6666666666667" y="211.0404040404041"/>
    </contour>
  </outline>
</glyph>
<glyph name="T" format="2">
  <advance width="1399.6363636363635"/>
  <unicode hex="0054"/>
  <anchor x="699.8181818181819" y="0.0" name="bottom"/>
  <anchor x="699.8181818181819" y="745.959595959596" name="center"/>
  <anchor x="699.8181818181819" y="1520.0" name="top"/>
  <outline>
    <contour>
      <point x="555.5757575757575" y="0.0" type="line"/>
      <point x="844.0606060606061" y="0.0" type="line"/>
      <point x="844.0606060606061" y="1250.7979797979797" type="line"/>
      <point x="1378.5555555555557" y="1250.7979797979797" type="line"/>
      <point x="1378.5555555555557" y="1480.0" type="line"/>
      <point x="21.08080808080808" y="1480.0" type="line"/>
      <point x="21.08080808080808" y="1250.7979797979797" type="line"/>
      <point x="555.5757575757575" y="1250.7979797979797" type="line"/>
    </contour>
  </outline>
</glyph>
<glyph name="V" format="2">
  <advance width="1580.9797979797981"/>
  <unicode hex="0056"/>
  <outline>
    <contour>
      <point x="582.989898989899" y="0.0" type="line"/>
      <point x="997.9898989898991" y="0.0" type="line"/>
      <point x="1566.7070707070707" y="1480.0" type="line"/>
      <point x="1280.7070707070707" y="1480.0" type="line"/>
      <point x="764.4141414141415" y="124.30303030303033" type="line"/>
      <point x="832.2929292929293" y="124.30303030303033" type="line"/>
      <point x="320.4848484848485" y="1480.0" type="line"/>
      <point x="14.27272727272727" y="1480.0" type="line"/>
    </contour>
  </outline>
</glyph>
<glyph name="X" format="2">
  <advance width="1489.050505050505"/>
  <unicode hex="0058"/>
  <outline>
    <contour>
      <point x="1181.7979797979797" y="0.0" type="line"/>
      <point x="1508.4949494949497" y="0.0" type="line"/>
      <point x="912.979797979798" y="766.3737373737374" type="line"/>
      <point x="745.6060606060606" y="955.4747474747476" type="line"/>
      <point x="336.8686868686869" y="1480.0" type="line"/>
      <point x="10.171717171717162" y="1480.0" type="line"/>
      <point x="571.9090909090909" y="761.1313131313132" type="line"/>
      <point x="739.2828282828283" y="572.030303030303" type="line"/>
    </contour>
    <contour>
      <point x="-19.282828282828298" y="0.0" type="line"/>
      <point x="297.8484848484849" y="0.0" type="line"/>
      <point x="739.2828282828283" y="572.030303030303" type="line"/>
      <point x="912.979797979798" y="766.3737373737374" type="line"/>
      <point x="1469.3131313131314" y="1480.0" type="line"/>
      <point x="1154.1818181818182" y="1480.0" type="line"/>
      <point x="745.6060606060606" y="955.4747474747476" type="line"/>
      <point x="571.9090909090909" y="761.1313131313132" type="line"/>
    </contour>
  </outline>
</glyph>
<glyph name="bracketleft" format="2">
  <advance width="775.1717171717172"/>
  <unicode hex="005B"/>
  <outline>
    <contour>
      <point x="189.5252525252525" y="-440.0" type="line"/>
      <point x="794.6363636363636" y="-440.0" type="line"/>
      <point x="794.6363636363636" y="-216.04040404040398" type="line"/>
      <point x="471.52525252525254" y="-216.04040404040398" type="line"/>
      <point x="471.52525252525254" y="1392.040404040404" type="line"/>
      <point x="805.4444444444445" y="1392.040404040404" type="line"/>
      <point x="805.4444444444445" y="1616.0" type="line"/>
      <point x="189.5252525252525" y="1616.0" type="line"/>
    </contour>
  </outline>
</glyph>
<glyph name="backslash" format="2">
  <advance width="858.5353535353536"/>
  <unicode hex="005C"/>
  <outline>
    <contour>
      <point x="573.6161616161617" y="-240.0" type="line"/>
      <point x="858.5353535353536" y="-240.0" type="line"/>
      <point x="284.919191919192" y="1616.0" type="line"/>
      <point x="0.0" y="1616.0" type="line"/>
    </contour>
  </outline>
</glyph>
<glyph name="bracketright" format="2">
  <advance width="775.1717171717172"/>
  <unicode hex="005D"/>
  <outline>
    <contour>
      <point x="-19.46464646464646" y="-440.0" type="line"/>
      <point x="585.6464646464647" y="-440.0" type="line"/>
      <point x="585.6464646464647" y="1616.0" type="line"/>
      <point x="-30.27272727272727" y="1616.0" type="line"/>
      <point x="-30.27272727272727" y="1392.040404040404" type="line"/>
      <point x="303.6464646464646" y="1392.040404040404" type="line"/>
      <point x="303.6464646464646" y="-216.04040404040398" type="line"/>
      <point x="-19.46464646464646" y="-216.04040404040398" type="line"/>
    </contour>
  </outline>
</glyph>
<glyph name="asciicircum" format="2">
  <advance width="1329.6969696969697"/>
  <unicode hex="005E"/>
  <outline>
    <contour>
      <point x="70.76767676767676" y="740.0" type="line"/>
      <point x="358.1212121212122" y="740.0" type="line"/>
      <point x="726.1313131313132" y="1352.939393939394" type="line"/>
      <point x="603.5656565656566" y="1352.939393939394" type="line"/>
      <point x="971.5757575757575" y="740.0" type="line"/>
      <point x="1258.929292929293" y="740.0" type="line"/>
      <point x="811.3636363636364" y="1480.0" type="line"/>
      <point x="517.4141414141415" y="1480.0" type="line"/>
    </contour>
  </outline>
</glyph>
<glyph name="underscore" format="2">
  <advance width="1344.1313131313132"/>
  <unicode hex="005F"/>
  <outline>
    <contour>
      <point x="94.5959595959596" y="-225.04040404040407" type="line"/>
      <point x="1249.5353535353536" y="-225.04040404040407" type="line"/>
      <point x="1249.5353535353536" y="-1.080808080808081" type="line"/>
      <point x="94.5959595959596" y="-1.080808080808081" type="line"/>
    </contour>
  </outline>
</glyph>
<glyph name="grave" format="2">
  <advance width="1200.0"/>
  <unicode hex="0060"/>
  <anchor x="600.0" y="1200.0" name="_top"/>
  <anchor x="600.0" y="1610.0404040404042" name="top"/>
  <outline>
    <contour>
      <point x="464.5656565656566" y="1240.2222222222222" type="line"/>
      <point x="735.4343434343434" y="1240.2222222222222" type="line"/>
      <point x="472.83838383838383" y="1616.0" type="line"/>
      <point x="159.70707070707067" y="1616.0" type="line"/>
    </contour>
  </outline>
</glyph>
<glyph name="b" format="2">
  <advance width="1369.5858585858587"/>
  <unicode hex="0062"/>
  <anchor x="686.2525252525253" y="0.0" name="bottom"/>
  <anchor x="293.7676767676768" y="1616.0" name="top"/>
  <outline>
    <contour>
      <point x="610.5757575757576" y="-20.161616161616163" type="curve" smooth="yes"/>
      <point x="1049.5858585858587" y="-20.161616161616163"/>
      <point x="1275.090909090909" y="183.88888888888889"/>
      <point x="1275.090909090909" y="570.8080808080808" type="curve" smooth="yes"/>
      <point x="1275.090909090909" y="943.6767676767677"/>
      <point x="1057.959595959596" y="1107.888888888889"/>
      <point x="792.7171717171718" y="1107.888888888889" type="curve" smooth="yes"/>
      <point x="648.4444444444446" y="1107.888888888889"/>
      <point x="532.1717171717172" y="1061.6161616161617"/>
      <point x="448.33333333333337" y="981.1818181818182" type="curve"/>
      <point x="434.7676767676768" y="981.1818181818182" type="line"/>
      <point x="434.7676767676768" y="1616.0" type="line"/>
      <point x="152.76767676767676" y="1616.0" type="line"/>
      <point x="152.76767676767676" y="40.80808080808081" type="line"/>
      <point x="296.1111111111111" y="-2.0"/>
      <point x="456.9090909090909" y="-20.161616161616163"/>
    </contour>
    <contour>
      <point x="636.9494949494949" y="193.90909090909093" type="curve" smooth="yes"/>
      <point x="557.3737373737374" y="193.90909090909093"/>
      <point x="487.31313131313135" y="204.50505050505055"/>
      <point x="434.7676767676768" y="218.93939393939397" type="curve"/>
      <point x="434.7676767676768" y="784.020202020202" type="line"/>
      <point x="506.989898989899" y="852.3030303030303"/>
      <point x="603.1616161616162" y="880.8484848484848"/>
      <point x="699.010101010101" y="880.8484848484848" type="curve" smooth="yes"/>
      <point x="873.1313131313132" y="880.8484848484848"/>
      <point x="994.4949494949494" y="793.4343434343434"/>
      <point x="994.4949494949494" y="549.8383838383838" type="curve" smooth="yes"/>
      <point x="994.4949494949494" y="307.5959595959596"/>
      <point x="875.8888888888889" y="193.90909090909093"/>
    </contour>
  </outline>
</glyph>
<glyph name="c" format="2">
  <advance width="1081.858585858586"/>
  <unicode hex="0063"/>
  <anchor x="626.3636363636364" y="0.0" name="bottom"/>
  <anchor x="613.9898989898991" y="1200.0" name="top"/>
  <outline>
    <contour>
      <point x="707.4343434343434" y="-20.161616161616163" type="curve" smooth="yes"/>
      <point x="823.969696969697" y="-20.161616161616163"/>
      <point x="933.6969696969697" y="-2.161616161616162"/>
      <point x="1022.1313131313132" y="27.35353535353535" type="curve"/>
      <point x="1022.1313131313132" y="246.6666666666667" type="line"/>
      <point x="903.6464646464647" y="215.31313131313135"/>
      <point x="822.4545454545455" y="202.5555555555556"/>
      <point x="736.1313131313132" y="202.5555555555556" type="curve" smooth="yes"/>
      <point x="504.8787878787879" y="202.5555555555556"/>
      <point x="382.6565656565657" y="309.80808080808083"/>
      <point x="382.6565656565657" y="545.0808080808081" type="curve" smooth="yes"/>
      <point x="382.6565656565657" y="777.7575757575758"/>
      <point x="503.15151515151524" y="885.1717171717171"/>
      <point x="764.4040404040404" y="885.1717171717171" type="curve" smooth="yes"/>
      <point x="856.4040404040404" y="885.1717171717171"/>
      <point x="933.3232323232323" y="874.4141414141413"/>
      <point x="1022.1313131313132" y="855.8181818181818" type="curve"/>
      <point x="1022.1313131313132" y="1075.1313131313132" type="line"/>
      <point x="938.4040404040404" y="1096.969696969697"/>
      <point x="841.9191919191919" y="1107.888888888889"/>
      <point x="738.4646464646464" y="1107.888888888889" type="curve" smooth="yes"/>
      <point x="319.4040404040404" y="1107.888888888889"/>
      <point x="94.49494949494948" y="913.3535353535353"/>
      <point x="94.49494949494948" y="543.2424242424242" type="curve" smooth="yes"/>
      <point x="94.49494949494948" y="172.21212121212122"/>
      <point x="311.5656565656566" y="-20.161616161616163"/>
    </contour>
  </outline>
</glyph>
<glyph name="f" format="2">
  <advance width="884.4040404040404"/>
  <unicode hex="0066"/>
  <outline>
    <contour>
      <point x="244.7070707070707" y="0.0" type="line"/>
      <point x="526.7070707070708" y="0.0" type="line"/>
      <point x="526.7070707070708" y="1172.8282828282827" type="line" smooth="yes"/>
      <point x="526.7070707070708" y="1342.4141414141413"/>
      <point x="610.1717171717172" y="1414.3636363636363"/>
      <point x="794.6666666666667" y="1414.3636363636363" type="curve" smooth="yes"/>
      <point x="838.1818181818182" y="1414.3636363636363"/>
      <point x="883.0505050505051" y="1410.5252525252524"/>
      <point x="929.4848484848485" y="1403.7676767676767" type="curve"/>
      <point x="929.4848484848485" y="1623.080808080808" type="line"/>
      <point x="870.8383838383838" y="1631.080808080808"/>
      <point x="819.3232323232323" y="1636.0"/>
      <point x="753.2727272727273" y="1636.0" type="curve" smooth="yes"/>
      <point x="427.6666666666667" y="1636.0"/>
      <point x="244.7070707070707" y="1462.6060606060605"/>
      <point x="244.7070707070707" y="1161.5858585858587" type="curve" smooth="yes"/>
    </contour>
    <contour>
      <point x="37.131313131313135" y="866.8484848484848" type="line"/>
      <point x="879.0" y="866.8484848484848" type="line"/>
      <point x="879.0" y="1090.8080808080808" type="line"/>
      <point x="37.131313131313135" y="1090.8080808080808" type="line"/>
    </contour>
  </outline>
</glyph>
<glyph name="j" format="2">
  <advance width="587.5353535353536"/>
  <unicode hex="006A"/>
  <anchor x="288.3636363636364" y="1205.5151515151515" name="_top"/>
  <anchor x="288.3636363636364" y="1205.5151515151515" name="top"/>
  <outline>
    <contour>
      <point x="154.13131313131316" y="-468.64646464646466" type="line"/>
      <point x="357.3636363636364" y="-262.5959595959596"/>
      <point x="434.7676767676768" y="-65.03030303030303"/>
      <point x="434.7676767676768" y="184.05050505050505" type="curve" smooth="yes"/>
      <point x="434.7676767676768" y="1090.8080808080808" type="line"/>
      <point x="152.76767676767676" y="1090.8080808080808" type="line"/>
      <point x="152.76767676767676" y="173.56565656565658" type="line" smooth="yes"/>
      <point x="152.76767676767676" y="-43.46464646464646"/>
      <point x="102.97979797979798" y="-196.12121212121212"/>
      <point x="-23.565656565656568" y="-348.3434343434343" type="curve"/>
    </contour>
    <contour>
      <point x="288.3636363636364" y="1282.2929292929293" type="curve" smooth="yes"/>
      <point x="407.5858585858586" y="1282.2929292929293"/>
      <point x="464.92929292929296" y="1333.3131313131314"/>
      <point x="464.92929292929296" y="1425.3535353535353" type="curve" smooth="yes"/>
      <point x="464.92929292929296" y="1517.3939393939395"/>
      <point x="407.5858585858586" y="1569.3333333333333"/>
      <point x="288.3636363636364" y="1569.3333333333333" type="curve" smooth="yes"/>
      <point x="169.14141414141415" y="1569.3333333333333"/>
      <point x="111.79797979797978" y="1517.3939393939395"/>
      <point x="111.79797979797978" y="1425.3535353535353" type="curve" smooth="yes"/>
      <point x="111.79797979797978" y="1333.3131313131314"/>
      <point x="169.14141414141415" y="1282.2929292929293"/>
    </contour>
  </outline>
</glyph>
<glyph name="k" format="2">
  <advance width="1284.1111111111113"/>
  <unicode hex="006B"/>
  <anchor x="668.9494949494949" y="0.0" name="bottom"/>
  <anchor x="293.7676767676768" y="1616.0" name="top"/>
  <outline>
    <contour>
      <point x="995.5151515151515" y="0.0" type="line"/>
      <point x="1307.4040404040404" y="0.0" type="line"/>
      <point x="834.0404040404042" y="599.8282828282828" type="line"/>
      <point x="834.0404040404042" y="531.1919191919192" type="line"/>
      <point x="1272.1616161616162" y="1090.8080808080808" type="line"/>
      <point x="965.6767676767677" y="1090.8080808080808" type="line"/>
      <point x="540.040404040404" y="559.5656565656566" type="line"/>
    </contour>
    <contour>
      <point x="410.1212121212122" y="444.3434343434343" type="line"/>
      <point x="645.4848484848485" y="444.3434343434343" type="line"/>
      <point x="645.4848484848485" y="674.7878787878788" type="line"/>
      <point x="410.1212121212122" y="674.7878787878788" type="line"/>
    </contour>
    <contour>
      <point x="152.76767676767676" y="0.0" type="line"/>
      <point x="434.7676767676768" y="0.0" type="line"/>
      <point x="434.7676767676768" y="1616.0" type="line"/>
      <point x="152.76767676767676" y="1616.0" type="line"/>
    </contour>
  </outline>
</glyph>
<glyph name="l" format="2">
  <advance width="587.5353535353536"/>
  <unicode hex="006C"/>
  <anchor x="292.6868686868687" y="0.0" name="bottom"/>
  <anchor x="553.1515151515152" y="1616.0" name="caronalt"/>
  <anchor x="690.4242424242425" y="794.0" name="periodcentered"/>
  <anchor x="293.7676767676768" y="714.0" name="slash"/>
  <anchor x="293.7676767676768" y="1616.0" name="top"/>
  <outline>
    <contour>
      <point x="152.76767676767676" y="0.0" type="line"/>
      <point x="434.7676767676768" y="0.0" type="line"/>
      <point x="434.7676767676768" y="1616.0" type="line"/>
      <point x="152.76767676767676" y="1616.0" type="line"/>
    </contour>
  </outline>
</glyph>
<glyph name="m" format="2">
  <advance width="1982.6060606060605"/>
  <unicode hex="006D"/>
  <anchor x="1004.3030303030303" y="0.0" name="bottom"/>
  <anchor x="1004.3030303030303" y="1200.0" name="top"/>
  <outline>
    <contour>
      <point x="152.76767676767676" y="0.0" type="line"/>
      <point x="434.7676767676768" y="0.0" type="line"/>
      <point x="434.7676767676768" y="752.7272727272727" type="line"/>
      <point x="497.10101010101016" y="831.1717171717171"/>
      <point x="586.9494949494949" y="870.0404040404039"/>
      <point x="679.7676767676768" y="870.0404040404039" type="curve" smooth="yes"/>
      <point x="795.2929292929293" y="870.0404040404039"/>
      <point x="865.4646464646464" y="811.9797979797979"/>
      <point x="865.4646464646464" y="638.989898989899" type="curve" smooth="yes"/>
      <point x="865.4646464646464" y="0.0" type="line"/>
      <point x="1142.060606060606" y="0.0" type="line"/>
      <point x="1142.060606060606" y="657.2020202020202" type="line" smooth="yes"/>
      <point x="1142.060606060606" y="977.1919191919192"/>
      <point x="984.2828282828283" y="1107.888888888889"/>
      <point x="760.3434343434344" y="1107.888888888889" type="curve" smooth="yes"/>
      <point x="624.0202020202021" y="1107.888888888889"/>
      <point x="503.42424242424244" y="1061.2929292929293"/>
      <point x="416.989898989899" y="977.3434343434343" type="curve"/>
      <point x="402.5050505050505" y="977.3434343434343" type="line"/>
      <point x="384.61616161616166" y="1090.8080808080808" type="line"/>
      <point x="152.76767676767676" y="1090.8080808080808" type="line"/>
    </contour>
    <contour>
      <point x="1561.5151515151515" y="0.0" type="line"/>
      <point x="1842.4343434343436" y="0.0" type="line"/>
      <point x="1842.4343434343436" y="653.959595959596" type="line" smooth="yes"/>
      <point x="1842.4343434343436" y="977.1919191919192"/>
      <point x="1679.5757575757575" y="1107.888888888889"/>
      <point x="1443.1515151515152" y="1107.888888888889" type="curve" smooth="yes"/>
      <point x="1311.909090909091" y="1107.888888888889"/>
      <point x="1167.6363636363637" y="1063.2929292929293"/>
      <point x="1045.7979797979797" y="935.8282828282828" type="curve"/>
      <point x="1109.787878787879" y="736.1818181818181" type="line"/>
      <point x="1173.0404040404042" y="831.1717171717171"/>
      <point x="1269.4343434343434" y="870.0404040404039"/>
      <point x="1368.7373737373737" y="870.0404040404039" type="curve" smooth="yes"/>
      <point x="1484.1010101010102" y="870.0404040404039"/>
      <point x="1561.5151515151515" y="811.9797979797979"/>
      <point x="1561.5151515151515" y="638.989898989899" type="curve" smooth="yes"/>
    </contour>
  </outline>
</glyph>
<glyph name="n" format="2">
  <advance width="1361.8080808080808"/>
  <unicode hex="006E"/>
  <anchor x="13.838383838383837" y="1200.0" name="apostrophe"/>
  <anchor x="688.2020202020202" y="0.0" name="bottom"/>
  <anchor x="688.2020202020202" y="1200.0" name="top"/>
  <outline>
    <contour>
      <point x="152.76767676767676" y="0.0" type="line"/>
      <point x="434.7676767676768" y="0.0" type="line"/>
      <point x="434.7676767676768" y="755.4848484848485" type="line"/>
      <point x="510.61616161616166" y="834.8484848484848"/>
      <point x="621.6565656565657" y="870.0404040404039"/>
      <point x="720.1515151515151" y="870.0404040404039" type="curve" smooth="yes"/>
      <point x="858.7070707070707" y="870.0404040404039"/>
      <point x="939.6363636363636" y="810.1414141414141"/>
      <point x="939.6363636363636" y="637.1515151515151" type="curve" smooth="yes"/>
      <point x="939.6363636363636" y="0.0" type="line"/>
      <point x="1221.6363636363637" y="0.0" type="line"/>
      <point x="1221.6363636363637" y="650.2828282828283" type="line" smooth="yes"/>
      <point x="1221.6363636363637" y="976.2727272727273"/>
      <point x="1047.1010101010102" y="1107.888888888889"/>
      <point x="794.7272727272727" y="1107.888888888889" type="curve" smooth="yes"/>
      <point x="650.1313131313132" y="1107.888888888889"/>
      <point x="514.939393939394" y="1061.2929292929293"/>
      <point x="416.989898989899" y="977.3434343434344" type="curve"/>
      <point x="402.5050505050505" y="977.3434343434344" type="line"/>
      <point x="384.61616161616166" y="1090.8080808080808" type="line"/>
      <point x="152.76767676767676" y="1090.8080808080808" type="line"/>
    </contour>
  </outline>
</glyph>
<glyph name="p" format="2">
  <advance width="1369.5858585858587"/>
  <unicode hex="0070"/>
  <outline>
    <contour>
      <point x="152.76767676767676" y="-440.0" type="line"/>
      <point x="434.7676767676768" y="-440.0" type="line"/>
      <point x="434.7676767676768" y="-4.808080808080811" type="line"/>
      <point x="494.8787878787879" y="-12.484848484848486"/>
      <point x="569.5858585858587" y="-20.161616161616163"/>
      <point x="645.2121212121212" y="-20.161616161616163" type="curve" smooth="yes"/>
      <point x="1046.3434343434344" y="-20.161616161616163"/>
      <point x="1275.090909090909" y="187.13131313131314"/>
      <point x="1275.090909090909" y="567.5656565656566" type="curve" smooth="yes"/>
      <point x="1275.090909090909" y="953.4040404040404"/>
      <point x="1048.3939393939395" y="1107.888888888889"/>
      <point x="768.5050505050506" y="1107.888888888889" type="curve" smooth="yes"/>
      <point x="622.5050505050506" y="1107.888888888889"/>
      <point x="502.0707070707071" y="1055.1313131313132"/>
      <point x="419.1515151515152" y="971.939393939394" type="curve"/>
      <point x="405.5858585858586" y="971.939393939394" type="line"/>
      <point x="388.939393939394" y="1090.8080808080808" type="line"/>
      <point x="152.76767676767676" y="1090.8080808080808" type="line"/>
    </contour>
    <contour>
      <point x="628.6767676767677" y="194.98989898989902" type="curve" smooth="yes"/>
      <point x="557.3737373737374" y="194.98989898989902"/>
      <point x="487.31313131313135" y="203.7474747474748"/>
      <point x="434.7676767676768" y="216.18181818181822" type="curve"/>
      <point x="434.7676767676768" y="773.10101010101" type="line"/>
      <point x="504.82828282828285" y="851.2222222222222"/>
      <point x="602.2424242424242" y="880.8484848484848"/>
      <point x="696.4141414141415" y="880.8484848484848" type="curve" smooth="yes"/>
      <point x="872.0505050505051" y="880.8484848484848"/>
      <point x="994.4949494949494" y="793.4343434343434"/>
      <point x="994.4949494949494" y="547.6767676767677" type="curve" smooth="yes"/>
      <point x="994.4949494949494" y="308.67676767676767"/>
      <point x="875.8888888888889" y="194.98989898989902"/>
    </contour>
  </outline>
</glyph>
<glyph name="q" format="2">
  <advance width="1369.5858585858587"/>
  <unicode hex="0071"/>
  <outline>
    <contour>
      <point x="934.8181818181818" y="-440.0" type="line"/>
      <point x="1216.818181818182" y="-440.0" type="line"/>
      <point x="1216.818181818182" y="1046.919191919192" type="line"/>
      <point x="1083.2020202020203" y="1086.4848484848485"/>
      <point x="912.6767676767677" y="1107.888888888889"/>
      <point x="759.010101010101" y="1107.888888888889" type="curve" smooth="yes"/>
      <point x="320.0" y="1107.888888888889"/>
      <point x="94.49494949494948" y="903.8383838383838"/>
      <point x="94.49494949494948" y="516.9191919191919" type="curve" smooth="yes"/>
      <point x="94.49494949494948" y="144.05050505050505"/>
      <point x="311.62626262626264" y="-20.161616161616163"/>
      <point x="576.8686868686868" y="-20.161616161616163" type="curve" smooth="yes"/>
      <point x="721.1414141414141" y="-20.161616161616163"/>
      <point x="837.4141414141413" y="26.111111111111107"/>
      <point x="921.2525252525252" y="106.54545454545453" type="curve"/>
      <point x="934.8181818181818" y="106.54545454545453" type="line"/>
    </contour>
    <contour>
      <point x="670.5757575757576" y="206.87878787878793" type="curve" smooth="yes"/>
      <point x="496.4545454545455" y="206.87878787878793"/>
      <point x="375.0909090909091" y="294.29292929292933"/>
      <point x="375.0909090909091" y="537.8888888888889" type="curve" smooth="yes"/>
      <point x="375.0909090909091" y="780.1313131313132"/>
      <point x="498.0202020202021" y="893.8181818181818"/>
      <point x="732.6363636363636" y="893.8181818181818" type="curve" smooth="yes"/>
      <point x="813.2929292929293" y="893.8181818181818"/>
      <point x="882.2727272727273" y="884.1414141414141"/>
      <point x="934.8181818181818" y="870.6262626262626" type="curve"/>
      <point x="934.8181818181818" y="303.7070707070707" type="line"/>
      <point x="862.5959595959596" y="235.42424242424246"/>
      <point x="764.5858585858587" y="206.87878787878793"/>
    </contour>
  </outline>
</glyph>
<glyph name="r" format="2">
  <advance width="876.1919191919192"/>
  <unicode hex="0072"/>
  <anchor x="293.7676767676768" y="0.0" name="bottom"/>
  <anchor x="508.1010101010101" y="1200.0" name="top"/>
  <outline>
    <contour>
      <point x="152.76767676767676" y="0.0" type="line"/>
      <point x="434.7676767676768" y="0.0" type="line"/>
      <point x="434.7676767676768" y="734.8383838383838" type="line"/>
      <point x="508.66666666666674" y="817.7676767676767"/>
      <point x="639.0" y="853.7171717171717"/>
      <point x="740.7878787878788" y="853.7171717171717" type="curve" smooth="yes"/>
      <point x="780.6262626262626" y="853.7171717171717"/>
      <point x="824.1919191919192" y="851.7171717171717"/>
      <point x="862.3535353535353" y="844.6363636363635" type="curve"/>
      <point x="862.3535353535353" y="1095.2929292929293" type="line"/>
      <point x="829.0" y="1101.1313131313132"/>
      <point x="794.6767676767677" y="1104.2121212121212"/>
      <point x="755.9191919191919" y="1104.2121212121212" type="curve" smooth="yes"/>
      <point x="622.0808080808081" y="1104.2121212121212"/>
      <point x="496.0202020202021" y="1051.7777777777778"/>
      <point x="420.23232323232327" y="955.7777777777778" type="curve"/>
      <point x="405.74747474747477" y="955.7777777777778" type="line"/>
      <point x="383.5353535353536" y="1090.8080808080808" type="line"/>
      <point x="152.76767676767676" y="1090.8080808080808" type="line"/>
    </contour>
  </outline>
</glyph>
<glyph name="v" format="2">
  <advance width="1289.7979797979797"/>
  <unicode hex="0076"/>
  <anchor x="645.8181818181818" y="0.0" name="bottom"/>
  <anchor x="645.8181818181818" y="1200.0" name="top"/>
  <outline>
    <contour>
      <point x="472.44444444444446" y="0.0" type="line"/>
      <point x="816.2727272727273" y="0.0" type="line"/>
      <point x="1279.8989898989898" y="1090.8080808080808" type="line"/>
      <point x="1003.4646464646464" y="1090.8080808080808" type="line"/>
      <point x="646.3030303030303" y="217.41414141414145" type="line"/>
      <point x="665.7070707070707" y="217.41414141414145" type="line"/>
      <point x="308.5454545454546" y="1090.8080808080808" type="line"/>
      <point x="9.898989898989889" y="1090.8080808080808" type="line"/>
    </contour>
  </outline>
</glyph>
<glyph name="w" format="2">
  <advance width="1990.9797979797981"/>
  <unicode hex="0077"/>
  <anchor x="996.9494949494949" y="0.0" name="bottom"/>
  <anchor x="996.9494949494949" y="1200.0" name="top"/>
  <outline>
    <contour>
      <point x="411.3636363636364" y="0.0" type="line"/>
      <point x="732.3333333333334" y="0.0" type="line"/>
      <point x="1007.1111111111111" y="870.4747474747475" type="line"/>
      <point x="989.2727272727273" y="870.4747474747475" type="line"/>
      <point x="1260.6464646464647" y="0.0" type="line"/>
      <point x="1581.6161616161617" y="0.0" type="line"/>
      <point x="1918.1111111111113" y="1090.8080808080808" type="line"/>
      <point x="1655.888888888889" y="1090.8080808080808" type="line"/>
      <point x="1400.080808080808" y="250.75757575757584" type="line"/>
      <point x="1421.4848484848485" y="250.75757575757584" type="line"/>
      <point x="1161.8383838383838" y="1090.8080808080808" type="line"/>
      <point x="840.8686868686868" y="1090.8080808080808" type="line"/>
      <point x="579.979797979798" y="251.8383838383839" type="line"/>
      <point x="595.979797979798" y="251.8383838383839" type="line"/>
      <point x="346.81818181818187" y="1090.8080808080808" type="line"/>
      <point x="72.86868686868686" y="1090.8080808080808" type="line"/>
    </contour>
  </outline>
</glyph>
<glyph name="x" format="2">
  <advance width="1236.5050505050506"/>
  <unicode hex="0078"/>
  <anchor x="619.1717171717172" y="0.0" name="bottom"/>
  <anchor x="619.1717171717172" y="1200.0" name="top"/>
  <outline>
    <contour>
      <point x="906.5555555555555" y="0.0" type="line"/>
      <point x="1224.4444444444443" y="0.0" type="line"/>
      <point x="782.0606060606061" y="553.5656565656566" type="line"/>
      <point x="622.4141414141415" y="736.5050505050506" type="line"/>
      <point x="339.6262626262627" y="1090.8080808080808" type="line"/>
      <point x="21.73737373737373" y="1090.8080808080808" type="line"/>
      <point x="453.2020202020202" y="549.4040404040404" type="line"/>
      <point x="616.0909090909091" y="366.4646464646464" type="line"/>
    </contour>
    <contour>
      <point x="12.81818181818181" y="0.0" type="line"/>
      <point x="323.1414141414142" y="0.0" type="line"/>
      <point x="616.0909090909091" y="366.4646464646464" type="line"/>
      <point x="782.0606060606061" y="553.5656565656566" type="line"/>
      <point x="1211.3636363636365" y="1090.8080808080808" type="line"/>
      <point x="902.8787878787879" y="1090.8080808080808" type="line"/>
      <point x="622.4141414141415" y="736.5050505050506" type="line"/>
      <point x="453.2020202020202" y="549.4040404040404" type="line"/>
    </contour>
  </outline>
</glyph>
<glyph name="y" format="2">
  <advance width="1289.7979797979797"/>
  <unicode hex="0079"/>
  <anchor x="1024.0" y="0.0" name="bottom"/>
  <anchor x="645.8181818181818" y="1200.0" name="top"/>
  <outline>
    <contour>
      <point x="351.5656565656566" y="-440.0" type="line"/>
      <point x="628.9191919191919" y="-440.0" type="line"/>
      <point x="1279.8989898989898" y="1090.8080808080808" type="line"/>
      <point x="1003.4646464646464" y="1090.8080808080808" type="line"/>
      <point x="646.3030303030303" y="217.41414141414145" type="line"/>
      <point x="540.0" y="0.0" type="line"/>
    </contour>
    <contour>
      <point x="472.44444444444446" y="0.0" type="line"/>
      <point x="745.6363636363637" y="0.0" type="line"/>
      <point x="308.5454545454546" y="1090.8080808080808" type="line"/>
      <point x="9.898989898989889" y="1090.8080808080808" type="line"/>
    </contour>
  </outline>
</glyph>
<glyph name="z" format="2">
  <advance width="1142.5555555555557"/>
  <unicode hex="007A"/>
  <anchor x="579.2222222222223" y="0.0" name="bottom"/>
  <anchor x="579.2222222222223" y="1200.0" name="top"/>
  <outline>
    <contour>
      <point x="80.96969696969697" y="0.0" type="line"/>
      <point x="1076.3939393939395" y="0.0" type="line"/>
      <point x="1076.3939393939395" y="223.95959595959602" type="line"/>
      <point x="413.7171717171718" y="223.95959595959602" type="line"/>
      <point x="413.7171717171718" y="174.02020202020208" type="line"/>
      <point x="1064.5555555555557" y="910.3030303030303" type="line"/>
      <point x="1064.5555555555557" y="1090.8080808080808" type="line"/>
      <point x="92.8080808080808" y="1090.8080808080808" type="line"/>
      <point x="92.8080808080808" y="866.8484848484848" type="line"/>
      <point x="731.8080808080808" y="866.8484848484848" type="line"/>
      <point x="731.8080808080808" y="916.7878787878788" type="line"/>
      <point x="80.96969696969697" y="180.50505050505055" type="line"/>
    </contour>
  </outline>
</glyph>
<glyph name="braceleft" format="2">
  <advance width="815.1717171717172"/>
  <unicode hex="007B"/>
  <outline>
    <contour>
      <point x="674.6464646464647" y="-460.0" type="curve" smooth="yes"/>
      <point x="740.2626262626263" y="-460.0"/>
      <point x="798.1515151515151" y="-454.9191919191919"/>
      <point x="845.4444444444445" y="-447.83838383838383" type="curve"/>
      <point x="845.4444444444445" y="-231.87878787878782" type="line"/>
      <point x="720.3636363636364" y="-231.87878787878782" type="line" smooth="yes"/>
      <point x="581.8585858585859" y="-231.87878787878782"/>
      <point x="511.52525252525254" y="-180.14141414141412"/>
      <point x="511.52525252525254" y="-39.636363636363626" type="curve" smooth="yes"/>
      <point x="511.52525252525254" y="362.1111111111111" type="line" smooth="yes"/>
      <point x="511.52525252525254" y="539.7272727272727"/>
      <point x="425.5353535353536" y="631.1818181818182"/>
      <point x="220.85858585858585" y="643.1313131313132" type="curve"/>
      <point x="220.85858585858585" y="611.6767676767677" type="line"/>
      <point x="425.5353535353536" y="623.6262626262626"/>
      <point x="511.52525252525254" y="715.0808080808081"/>
      <point x="511.52525252525254" y="892.6969696969697" type="curve" smooth="yes"/>
      <point x="511.52525252525254" y="1215.6363636363635" type="line" smooth="yes"/>
      <point x="511.52525252525254" y="1356.141414141414"/>
      <point x="581.8585858585859" y="1407.8787878787878"/>
      <point x="720.3636363636364" y="1407.8787878787878" type="curve" smooth="yes"/>
      <point x="845.4444444444445" y="1407.8787878787878" type="line"/>
      <point x="845.4444444444445" y="1623.8383838383838" type="line"/>
      <point x="798.1515151515151" y="1630.919191919192"/>
      <point x="740.2626262626263" y="1636.0"/>
      <point x="674.6464646464647" y="1636.0" type="curve" smooth="yes"/>
      <point x="379.8989898989899" y="1636.0"/>
      <point x="229.5252525252525" y="1497.4646464646464"/>
      <point x="229.5252525252525" y="1232.3333333333333" type="curve" smooth="yes"/>
      <point x="229.5252525252525" y="893.2323232323232" type="line" smooth="yes"/>
      <point x="229.5252525252525" y="790.1414141414142"/>
      <point x="175.09090909090907" y="739.3838383838385"/>
      <point x="76.5959595959596" y="739.3838383838385" type="curve" smooth="yes"/>
      <point x="24.656565656565643" y="739.3838383838385" type="line"/>
      <point x="24.656565656565643" y="515.4242424242424" type="line"/>
      <point x="76.5959595959596" y="515.4242424242424" type="line" smooth="yes"/>
      <point x="175.09090909090907" y="515.4242424242424"/>
      <point x="229.5252525252525" y="464.66666666666663"/>
      <point x="229.5252525252525" y="361.57575757575756" type="curve" smooth="yes"/>
      <point x="229.5252525252525" y="-56.33333333333333" type="line" smooth="yes"/>
      <point x="229.5252525252525" y="-321.4646464646465"/>
      <point x="379.8989898989899" y="-460.0"/>
    </contour>
  </outline>
</glyph>
<glyph name="bar" format="2">
  <advance width="597.2727272727273"/>
  <unicode hex="007C"/>
  <outline>
    <contour>
      <point x="169.5252525252525" y="-440.0" type="line"/>
      <point x="427.74747474747477" y="-440.0" type="line"/>
      <point x="427.74747474747477" y="1616.0" type="line"/>
      <point x="169.5252525252525" y="1616.0" type="line"/>
    </contour>
  </outline>
</glyph>
<glyph name="braceright" format="2">
  <advance width="815.1717171717172"/>
  <unicode hex="007D"/>
  <outline>
    <contour>
      <point x="140.52525252525254" y="-460.0" type="curve" smooth="yes"/>
      <point x="435.27272727272725" y="-460.0"/>
      <point x="585.6464646464647" y="-321.4646464646465"/>
      <point x="585.6464646464647" y="-56.33333333333333" type="curve" smooth="yes"/>
      <point x="585.6464646464647" y="361.57575757575756" type="line" smooth="yes"/>
      <point x="585.6464646464647" y="464.66666666666663"/>
      <point x="640.0808080808081" y="515.4242424242424"/>
      <point x="738.5757575757576" y="515.4242424242424" type="curve" smooth="yes"/>
      <point x="790.5151515151515" y="515.4242424242424" type="line"/>
      <point x="790.5151515151515" y="739.3838383838385" type="line"/>
      <point x="738.5757575757576" y="739.3838383838385" type="line" smooth="yes"/>
      <point x="640.0808080808081" y="739.3838383838385"/>
      <point x="585.6464646464647" y="790.1414141414142"/>
      <point x="585.6464646464647" y="893.2323232323232" type="curve" smooth="yes"/>
      <point x="585.6464646464647" y="1232.3333333333333" type="line" smooth="yes"/>
      <point x="585.6464646464647" y="1497.4646464646464"/>
      <point x="435.27272727272725" y="1636.0"/>
      <point x="140.52525252525254" y="1636.0" type="curve" smooth="yes"/>
      <point x="74.90909090909092" y="1636.0"/>
      <point x="17.020202020202028" y="1630.919191919192"/>
      <point x="-30.27272727272727" y="1623.8383838383838" type="curve"/>
      <point x="-30.27272727272727" y="1407.8787878787878" type="line"/>
      <point x="94.80808080808082" y="1407.8787878787878" type="line" smooth="yes"/>
      <point x="233.3131313131313" y="1407.8787878787878"/>
      <point x="303.6464646464646" y="1356.141414141414"/>
      <point x="303.6464646464646" y="1215.6363636363635" type="curve" smooth="yes"/>
      <point x="303.6464646464646" y="892.6969696969697" type="line" smooth="yes"/>
      <point x="303.6464646464646" y="715.0808080808081"/>
      <point x="389.6363636363636" y="623.6262626262626"/>
      <point x="594.3131313131313" y="611.6767676767677" type="curve"/>
      <point x="594.3131313131313" y="643.1313131313132" type="line"/>
      <point x="389.6363636363636" y="631.1818181818182"/>
      <point x="303.6464646464646" y="539.7272727272727"/>
      <point x="303.6464646464646" y="362.1111111111111" type="curve" smooth="yes"/>
      <point x="303.6464646464646" y="-39.636363636363626" type="line" smooth="yes"/>
      <point x="303.6464646464646" y="-180.14141414141412"/>
      <point x="233.3131313131313" y="-231.87878787878782"/>
      <point x="94.80808080808082" y="-231.87878787878782" type="curve" smooth="yes"/>
      <point x="-30.27272727272727" y="-231.87878787878782" type="line"/>
      <point x="-30.27272727272727" y="-447.83838383838383" type="line"/>
      <point x="17.020202020202028" y="-454.9191919191919"/>
      <point x="74.90909090909092" y="-460.0"/>
    </contour>
  </outline>
</glyph>
<glyph name="asciitilde" format="2">
  <advance width="1155.5555555555557"/>
  <unicode hex="007E"/>
  <outline>
    <contour>
      <point x="773.5555555555555" y="593.7474747474747" type="curve" smooth="yes"/>
      <point x="872.0909090909091" y="593.7474747474747"/>
      <point x="947.4949494949495" y="624.6666666666666"/>
      <point x="1006.6262626262626" y="690.2323232323232" type="curve"/>
      <point x="1006.6262626262626" y="912.7373737373738" type="line"/>
      <point x="935.3333333333334" y="837.4949494949495"/>
      <point x="864.8484848484849" y="803.6565656565657"/>
      <point x="774.7979797979798" y="803.6565656565657" type="curve" smooth="yes"/>
      <point x="652.4242424242425" y="803.6565656565657"/>
      <point x="535.6161616161617" y="920.7373737373738"/>
      <point x="382.0" y="920.7373737373738" type="curve" smooth="yes"/>
      <point x="283.4646464646465" y="920.7373737373738"/>
      <point x="208.06060606060606" y="889.8181818181819"/>
      <point x="148.92929292929293" y="824.2525252525253" type="curve"/>
      <point x="148.92929292929293" y="601.7474747474747" type="line"/>
      <point x="220.22222222222223" y="676.989898989899"/>
      <point x="290.7070707070707" y="710.8282828282828"/>
      <point x="380.75757575757575" y="710.8282828282828" type="curve" smooth="yes"/>
      <point x="503.13131313131316" y="710.8282828282828"/>
      <point x="619.939393939394" y="593.7474747474747"/>
    </contour>
  </outline>
</glyph>
<glyph name="exclamdown" format="2">
  <advance width="623.8585858585859"/>
  <unicode hex="00A1"/>
  <outline>
    <contour>
      <point x="227.40404040404042" y="636.4646464646464" type="line"/>
      <point x="163.5252525252525" y="132.7171717171717" type="line"/>
      <point x="163.5252525252525" y="-380.0" type="line"/>
      <point x="460.33333333333337" y="-380.0" type="line"/>
      <point x="460.33333333333337" y="132.7171717171717" type="line"/>
      <point x="399.69696969696975" y="636.4646464646464" type="line"/>
    </contour>
    <contour>
      <point x="311.92929292929296" y="1106.2121212121212" type="curve" smooth="yes"/>
      <point x="197.03030303030303" y="1106.2121212121212"/>
      <point x="126.71717171717171" y="1042.2222222222222"/>
      <point x="126.71717171717171" y="939.3737373737374" type="curve" smooth="yes"/>
      <point x="126.71717171717171" y="836.5252525252524"/>
      <point x="194.86868686868686" y="771.6161616161615"/>
      <point x="311.92929292929296" y="771.6161616161615" type="curve" smooth="yes"/>
      <point x="428.989898989899" y="771.6161616161615"/>
      <point x="497.1414141414142" y="838.6868686868686"/>
      <point x="497.1414141414142" y="939.3737373737374" type="curve" smooth="yes"/>
      <point x="497.1414141414142" y="1040.060606060606"/>
      <point x="426.82828282828285" y="1106.2121212121212"/>
    </contour>
  </outline>
</glyph>
<glyph name="cent" format="2">
  <advance width="1093.5353535353536"/>
  <unicode hex="00A2"/>
  <outline>
    <contour>
      <point x="707.4343434343434" y="-20.161616161616163" type="curve" smooth="yes"/>
      <point x="823.969696969697" y="-20.161616161616163"/>
      <point x="933.6969696969697" y="-2.161616161616162"/>
      <point x="1022.1313131313132" y="27.35353535353535" type="curve"/>
      <point x="1022.1313131313132" y="246.6666666666667" type="line"/>
      <point x="903.6464646464647" y="215.31313131313135"/>
      <point x="822.4545454545455" y="202.5555555555556"/>
      <point x="736.1313131313132" y="202.5555555555556" type="curve" smooth="yes"/>
      <point x="504.8787878787879" y="202.5555555555556"/>
      <point x="382.6565656565657" y="309.80808080808083"/>
      <point x="382.6565656565657" y="545.0808080808081" type="curve" smooth="yes"/>
      <point x="382.6565656565657" y="777.7575757575758"/>
      <point x="499.4747474747475" y="885.1717171717171"/>
      <point x="763.4848484848485" y="885.1717171717171" type="curve" smooth="yes"/>
      <point x="855.4848484848485" y="885.1717171717171"/>
      <point x="931.4848484848485" y="874.4141414141413"/>
      <point x="1022.1313131313132" y="855.8181818181818" type="curve"/>
      <point x="1022.1313131313132" y="1075.1313131313132" type="line"/>
      <point x="934.7272727272727" y="1096.969696969697"/>
      <point x="843.7575757575758" y="1107.888888888889"/>
      <point x="738.4646464646464" y="1107.888888888889" type="curve" smooth="yes"/>
      <point x="318.4848484848485" y="1107.888888888889"/>
      <point x="94.49494949494948" y="913.3535353535353"/>
      <point x="94.49494949494948" y="543.2424242424242" type="curve" smooth="yes"/>
      <point x="94.49494949494948" y="172.21212121212122"/>
      <point x="310.64646464646466" y="-20.161616161616163"/>
    </contour>
    <contour>
      <point x="554.3838383838383" y="-240.0" type="line"/>
      <point x="799.9595959595961" y="-240.0" type="line"/>
      <point x="799.9595959595961" y="32.424242424242436" type="line"/>
      <point x="554.3838383838383" y="32.424242424242436" type="line"/>
    </contour>
    <contour>
      <point x="554.3838383838383" y="1058.3838383838383" type="line"/>
      <point x="799.9595959595961" y="1058.3838383838383" type="line"/>
      <point x="799.9595959595961" y="1330.8080808080808" type="line"/>
      <point x="554.3838383838383" y="1330.8080808080808" type="line"/>
    </contour>
  </outline>
</glyph>
<glyph name="sterling" format="2">
  <advance width="1497.5959595959596"/>
  <unicode hex="00A3"/>
  <outline>
    <contour>
      <point x="312.979797979798" y="81.71717171717174" type="line"/>
      <point x="589.5757575757576" y="81.71717171717174" type="line"/>
      <point x="589.5757575757576" y="1001.4141414141415" type="line" smooth="yes"/>
      <point x="589.5757575757576" y="1202.4646464646464"/>
      <point x="701.5353535353536" y="1273.121212121212"/>
      <point x="978.0808080808081" y="1273.121212121212" type="curve" smooth="yes"/>
      <point x="1103.1616161616162" y="1273.121212121212"/>
      <point x="1244.6161616161617" y="1254.040404040404"/>
      <point x="1355.6464646464647" y="1221.4444444444443" type="curve"/>
      <point x="1355.6464646464647" y="1451.5656565656566" type="line"/>
      <point x="1245.969696969697" y="1481.080808080808"/>
      <point x="1110.2424242424242" y="1499.080808080808"/>
      <point x="966.9494949494949" y="1499.080808080808" type="curve" smooth="yes"/>
      <point x="531.4040404040404" y="1499.080808080808"/>
      <point x="312.979797979798" y="1330.979797979798"/>
      <point x="312.979797979798" y="987.3636363636364" type="curve" smooth="yes"/>
    </contour>
    <contour>
      <point x="85.4040404040404" y="0.0" type="line"/>
      <point x="1409.2121212121212" y="0.0" type="line"/>
      <point x="1409.2121212121212" y="218.5555555555556" type="line"/>
      <point x="85.4040404040404" y="218.5555555555556" type="line"/>
    </contour>
    <contour>
      <point x="85.4040404040404" y="648.8282828282828" type="line"/>
      <point x="1134.030303030303" y="648.8282828282828" type="line"/>
      <point x="1134.030303030303" y="851.1717171717172" type="line"/>
      <point x="85.4040404040404" y="851.1717171717172" type="line"/>
    </contour>
  </outline>
</glyph>
<glyph name="currency" format="2">
  <advance width="1329.6969696969697"/>
  <unicode hex="00A4"/>
  <outline>
    <contour>
      <point x="440.8484848484849" y="864.3434343434343" type="line"/>
      <point x="540.5050505050506" y="963.0808080808081" type="line"/>
      <point x="384.30303030303037" y="1149.4444444444443" type="line"/>
      <point x="264.52525252525254" y="1272.141414141414" type="line"/>
      <point x="131.78787878787878" y="1139.4040404040404" type="line"/>
      <point x="255.40404040404042" y="1019.6262626262626" type="line"/>
    </contour>
    <contour>
      <point x="888.8484848484849" y="864.3434343434343" type="line"/>
      <point x="1074.2929292929293" y="1019.6262626262626" type="line"/>
      <point x="1197.909090909091" y="1139.4040404040404" type="line"/>
      <point x="1065.1717171717173" y="1272.141414141414" type="line"/>
      <point x="945.3939393939394" y="1149.4444444444443" type="line"/>
      <point x="789.1919191919192" y="963.0808080808081" type="line"/>
    </contour>
    <contour>
      <point x="1064.2525252525252" y="207.85858585858585" type="line"/>
      <point x="1196.989898989899" y="340.5959595959596" type="line"/>
      <point x="1074.2929292929293" y="460.37373737373736" type="line"/>
      <point x="893.4444444444445" y="611.0606060606061" type="line"/>
      <point x="793.7878787878788" y="510.4848484848485" type="line"/>
      <point x="944.4747474747475" y="330.55555555555554" type="line"/>
    </contour>
    <contour>
      <point x="265.44444444444446" y="207.85858585858585" type="line"/>
      <point x="385.2222222222223" y="330.55555555555554" type="line"/>
      <point x="535.909090909091" y="510.4848484848485" type="line"/>
      <point x="436.2525252525253" y="611.0606060606061" type="line"/>
      <point x="255.40404040404042" y="460.37373737373736" type="line"/>
      <point x="132.7070707070707" y="340.5959595959596" type="line"/>
    </contour>
    <contour>
      <point x="664.8484848484849" y="379.8989898989899" type="curve" smooth="yes"/>
      <point x="870.1414141414141" y="379.8989898989899"/>
      <point x="1019.9191919191919" y="523.7878787878788"/>
      <point x="1019.9191919191919" y="740.0" type="curve" smooth="yes"/>
      <point x="1019.9191919191919" y="954.2121212121212"/>
      <point x="870.1414141414141" y="1098.1010101010102"/>
      <point x="664.8484848484849" y="1098.1010101010102" type="curve" smooth="yes"/>
      <point x="458.6363636363636" y="1098.1010101010102"/>
      <point x="309.77777777777777" y="954.2121212121212"/>
      <point x="309.77777777777777" y="740.0" type="curve" smooth="yes"/>
      <point x="309.77777777777777" y="523.7878787878788"/>
      <point x="458.6363636363636" y="379.8989898989899"/>
    </contour>
    <contour>
      <point x="664.8484848484849" y="529.4444444444445" type="curve" smooth="yes"/>
      <point x="550.5151515151515" y="529.4444444444445"/>
      <point x="469.0505050505051" y="607.8282828282828"/>
      <point x="469.0505050505051" y="740.0" type="curve" smooth="yes"/>
      <point x="469.0505050505051" y="872.1717171717172"/>
      <point x="550.5151515151515" y="950.5555555555555"/>
      <point x="666.8484848484849" y="950.5555555555555" type="curve" smooth="yes"/>
      <point x="787.7777777777778" y="950.5555555555555"/>
      <point x="860.6464646464647" y="862.3333333333334"/>
      <point x="860.6464646464647" y="740.0" type="curve" smooth="yes"/>
      <point x="860.6464646464647" y="606.9090909090909"/>
      <point x="779.1818181818182" y="529.4444444444445"/>
    </contour>
  </outline>
</glyph>
<glyph name="yen" format="2">
  <advance width="1419.5353535353536"/>
  <unicode hex="00A5"/>
  <outline>
    <contour>
      <point x="567.6868686868687" y="0.0" type="line"/>
      <point x="856.1717171717172" y="0.0" type="line"/>
      <point x="856.1717171717172" y="743.8282828282828" type="line"/>
      <point x="797.2626262626263" y="551.4848484848485" type="line"/>
      <point x="1436.7171717171718" y="1480.0" type="line"/>
      <point x="1145.20202020202" y="1480.0" type="line"/>
      <point x="672.3131313131313" y="800.3030303030304" type="line"/>
      <point x="762.030303030303" y="800.3030303030304" type="line"/>
      <point x="283.7373737373738" y="1480.0" type="line"/>
      <point x="-27.989898989898997" y="1480.0" type="line"/>
      <point x="626.5959595959596" y="551.4848484848485" type="line"/>
      <point x="567.6868686868687" y="747.070707070707" type="line"/>
    </contour>
    <contour>
      <point x="233.09090909090907" y="267.04040404040404" type="line"/>
      <point x="1190.7676767676767" y="267.04040404040404" type="line"/>
      <point x="1190.7676767676767" y="431.55555555555554" type="line"/>
      <point x="233.09090909090907" y="431.55555555555554" type="line"/>
    </contour>
    <contour>
      <point x="233.09090909090907" y="616.4444444444445" type="line"/>
      <point x="1190.7676767676767" y="616.4444444444445" type="line"/>
      <point x="1190.7676767676767" y="780.959595959596" type="line"/>
      <point x="233.09090909090907" y="780.959595959596" type="line"/>
    </contour>
  </outline>
</glyph>
<glyph name="brokenbar" format="2">
  <advance width="597.2727272727273"/>
  <unicode hex="00A6"/>
  <outline>
    <contour>
      <point x="169.5252525252525" y="836.0" type="line"/>
      <point x="427.74747474747477" y="836.0" type="line"/>
      <point x="427.74747474747477" y="1616.0" type="line"/>
      <point x="169.5252525252525" y="1616.0" type="line"/>
    </contour>
    <contour>
      <point x="169.5252525252525" y="-440.0" type="line"/>
      <point x="427.74747474747477" y="-440.0" type="line"/>
      <point x="427.74747474747477" y="340.0" type="line"/>
      <point x="169.5252525252525" y="340.0" type="line"/>
    </contour>
  </outline>
</glyph>
<glyph name="section" format="2">
  <advance width="1244.5050505050506"/>
  <unicode hex="00A7"/>
  <outline>
    <contour>
      <point x="537.2323232323232" y="-20.161616161616163" type="curve" smooth="yes"/>
      <point x="904.5656565656566" y="-20.161616161616163"/>
      <point x="1071.151515151515" y="110.8080808080808"/>
      <point x="1071.151515151515" y="318.74747474747477" type="curve" smooth="yes"/>
      <point x="1071.151515151515" y="481.55555555555554"/>
      <point x="962.4545454545455" y="566.6363636363636"/>
      <point x="759.2626262626263" y="601.3939393939394" type="curve" smooth="yes"/>
      <point x="516.5252525252525" y="642.2020202020202" type="line" smooth="yes"/>
      <point x="395.64646464646466" y="663.3939393939394"/>
      <point x="360.7777777777778" y="716.2121212121212"/>
      <point x="360.7777777777778" y="781.4646464646464" type="curve" smooth="yes"/>
      <point x="360.7777777777778" y="827.2020202020202"/>
      <point x="381.80808080808083" y="872.8282828282828"/>
      <point x="437.27272727272725" y="916.989898989899" type="curve"/>
      <point x="292.32323232323233" y="1016.2727272727273" type="line"/>
      <point x="184.54545454545453" y="957.9494949494949"/>
      <point x="124.17171717171716" y="873.6262626262626"/>
      <point x="124.17171717171716" y="763.2525252525253" type="curve" smooth="yes"/>
      <point x="124.17171717171716" y="591.6363636363636"/>
      <point x="235.35353535353534" y="495.6363636363636"/>
      <point x="432.54545454545456" y="461.95959595959596" type="curve" smooth="yes"/>
      <point x="674.2020202020202" y="422.2323232323232" type="line" smooth="yes"/>
      <point x="779.7878787878788" y="404.2828282828283"/>
      <point x="814.3333333333333" y="368.22222222222223"/>
      <point x="814.3333333333333" y="299.93939393939394" type="curve" smooth="yes"/>
      <point x="814.3333333333333" y="219.54545454545456"/>
      <point x="751.8383838383838" y="166.8888888888889"/>
      <point x="535.6666666666667" y="166.8888888888889" type="curve" smooth="yes"/>
      <point x="412.5353535353535" y="166.8888888888889"/>
      <point x="293.5151515151515" y="179.05050505050508"/>
      <point x="165.19191919191917" y="212.8888888888889" type="curve"/>
      <point x="165.19191919191917" y="24.919191919191917" type="line"/>
      <point x="280.16161616161617" y="-6.0"/>
      <point x="415.98989898989896" y="-20.161616161616163"/>
    </contour>
    <contour>
      <point x="944.8888888888889" y="459.0808080808081" type="line"/>
      <point x="1054.5555555555557" y="518.4848484848485"/>
      <point x="1120.3333333333335" y="603.1313131313132"/>
      <point x="1120.3333333333335" y="718.7474747474747" type="curve" smooth="yes"/>
      <point x="1120.3333333333335" y="892.3636363636364"/>
      <point x="1011.6363636363637" y="981.6060606060606"/>
      <point x="809.5252525252525" y="1014.2020202020202" type="curve" smooth="yes"/>
      <point x="557.0606060606061" y="1052.8484848484848" type="line" smooth="yes"/>
      <point x="452.39393939393943" y="1070.79797979798"/>
      <point x="419.3636363636364" y="1114.050505050505"/>
      <point x="419.3636363636364" y="1173.8989898989898" type="curve" smooth="yes"/>
      <point x="419.3636363636364" y="1247.5353535353536"/>
      <point x="482.3434343434344" y="1310.030303030303"/>
      <point x="742.3434343434344" y="1310.030303030303" type="curve" smooth="yes"/>
      <point x="839.5858585858587" y="1310.030303030303"/>
      <point x="928.5555555555557" y="1300.030303030303"/>
      <point x="1029.1515151515152" y="1275.4343434343434" type="curve"/>
      <point x="1029.1515151515152" y="1463.4040404040404" type="line"/>
      <point x="937.1515151515152" y="1485.080808080808"/>
      <point x="826.4545454545455" y="1497.080808080808"/>
      <point x="721.8080808080808" y="1497.080808080808" type="curve" smooth="yes"/>
      <point x="316.969696969697" y="1497.080808080808"/>
      <point x="162.54545454545453" y="1358.2727272727273"/>
      <point x="162.54545454545453" y="1157.8484848484848" type="curve" smooth="yes"/>
      <point x="162.54545454545453" y="1002.4444444444445"/>
      <point x="272.64646464646466" y="909.5252525252525"/>
      <point x="482.80808080808083" y="873.6868686868687" type="curve" smooth="yes"/>
      <point x="724.4646464646464" y="832.8787878787879" type="line" smooth="yes"/>
      <point x="846.2626262626263" y="811.6868686868687"/>
      <point x="883.7272727272727" y="766.060606060606"/>
      <point x="883.7272727272727" y="692.3737373737374" type="curve" smooth="yes"/>
      <point x="883.7272727272727" y="635.070707070707"/>
      <point x="855.1313131313132" y="593.6060606060606"/>
      <point x="788.6969696969697" y="550.2020202020202" type="curve"/>
    </contour>
  </outline>
</glyph>
<glyph name="copyright" format="2">
  <advance width="1712.121212121212"/>
  <unicode hex="00A9"/>
  <outline>
    <contour>
      <point x="856.060606060606" y="-22.0" type="curve" smooth="yes"/>
      <point x="1305.3030303030303" y="-22.0"/>
      <point x="1603.3030303030303" y="282.0"/>
      <point x="1603.3030303030303" y="740.0" type="curve" smooth="yes"/>
      <point x="1603.3030303030303" y="1198.0"/>
      <point x="1305.3030303030303" y="1502.0"/>
      <point x="856.060606060606" y="1502.0" type="curve" smooth="yes"/>
      <point x="406.8181818181818" y="1502.0"/>
      <point x="108.81818181818181" y="1198.0"/>
      <point x="108.81818181818181" y="740.0" type="curve" smooth="yes"/>
      <point x="108.81818181818181" y="282.0"/>
      <point x="406.8181818181818" y="-22.0"/>
    </contour>
    <contour>
      <point x="909.5151515151515" y="324.0" type="curve" smooth="yes"/>
      <point x="989.6767676767677" y="324.0"/>
      <point x="1061.6767676767677" y="336.0"/>
      <point x="1119.949494949495" y="359.5151515151515" type="curve"/>
      <point x="1119.949494949495" y="524.9494949494949" type="line"/>
      <point x="1040.111111111111" y="500.51515151515156"/>
      <point x="984.3232323232323" y="492.6767676767677"/>
      <point x="927.4040404040404" y="492.6767676767677" type="curve" smooth="yes"/>
      <point x="776.7979797979798" y="492.6767676767677"/>
      <point x="687.2222222222223" y="572.4141414141415"/>
      <point x="687.2222222222223" y="734.7575757575758" type="curve" smooth="yes"/>
      <point x="687.2222222222223" y="895.4242424242424"/>
      <point x="773.5555555555555" y="975.3232323232323"/>
      <point x="944.0" y="975.3232323232323" type="curve" smooth="yes"/>
      <point x="1006.4343434343434" y="975.3232323232323"/>
      <point x="1059.030303030303" y="967.4848484848485"/>
      <point x="1119.949494949495" y="953.8080808080808" type="curve"/>
      <point x="1119.949494949495" y="1119.2424242424242" type="line"/>
      <point x="1060.2727272727273" y="1136.0"/>
      <point x="999.1919191919192" y="1144.0"/>
      <point x="927.9494949494949" y="1144.0" type="curve" smooth="yes"/>
      <point x="655.3030303030303" y="1144.0"/>
      <point x="492.010101010101" y="993.8383838383838"/>
      <point x="492.010101010101" y="732.9191919191919" type="curve" smooth="yes"/>
      <point x="492.010101010101" y="468.4848484848485"/>
      <point x="656.8181818181818" y="324.0"/>
    </contour>
    <contour>
      <point x="856.060606060606" y="123.81818181818184" type="curve" smooth="yes"/>
      <point x="486.80808080808083" y="123.81818181818184"/>
      <point x="260.04040404040404" y="364.1515151515152"/>
      <point x="260.04040404040404" y="740.0" type="curve" smooth="yes"/>
      <point x="260.04040404040404" y="1115.8484848484848"/>
      <point x="486.80808080808083" y="1356.1818181818182"/>
      <point x="856.060606060606" y="1356.1818181818182" type="curve" smooth="yes"/>
      <point x="1225.3131313131314" y="1356.1818181818182"/>
      <point x="1452.080808080808" y="1115.8484848484848"/>
      <point x="1452.080808080808" y="740.0" type="curve" smooth="yes"/>
      <point x="1452.080808080808" y="364.1515151515152"/>
      <point x="1225.3131313131314" y="123.81818181818184"/>
    </contour>
  </outline>
</glyph>
<glyph name="ordfeminine" format="2">
  <advance width="1040.5151515151515"/>
  <unicode hex="00AA"/>
  <outline>
    <contour>
      <point x="395.67676767676767" y="593.8383838383838" type="curve" smooth="yes"/>
      <point x="508.70707070707067" y="593.8383838383838"/>
      <point x="616.6565656565656" y="631.9494949494949"/>
      <point x="682.1717171717171" y="698.7070707070707" type="curve"/>
      <point x="694.6565656565656" y="698.7070707070707" type="line"/>
      <point x="713.6262626262626" y="610.0" type="line"/>
      <point x="933.909090909091" y="610.0" type="line"/>
      <point x="933.909090909091" y="1114.939393939394" type="line" smooth="yes"/>
      <point x="933.909090909091" y="1402.5454545454545"/>
      <point x="788.4545454545455" y="1497.4040404040404"/>
      <point x="469.1818181818182" y="1497.4040404040404" type="curve" smooth="yes"/>
      <point x="367.6161616161616" y="1497.4040404040404"/>
      <point x="246.16161616161617" y="1484.4848484848485"/>
      <point x="142.54545454545453" y="1454.4848484848485" type="curve"/>
      <point x="142.54545454545453" y="1271.5959595959596" type="line"/>
      <point x="236.06060606060606" y="1299.111111111111"/>
      <point x="341.6262626262626" y="1312.1919191919192"/>
      <point x="426.1111111111111" y="1312.1919191919192" type="curve" smooth="yes"/>
      <point x="609.1919191919192" y="1312.1919191919192"/>
      <point x="672.1212121212121" y="1271.7575757575758"/>
      <point x="672.1212121212121" y="1153.8484848484848" type="curve" smooth="yes"/>
      <point x="672.1212121212121" y="824.7474747474747" type="line"/>
      <point x="616.5454545454545" y="781.979797979798"/>
      <point x="546.8585858585859" y="760.6767676767677"/>
      <point x="480.73737373737373" y="760.6767676767677" type="curve" smooth="yes"/>
      <point x="372.4545454545455" y="760.6767676767677"/>
      <point x="326.23232323232327" y="803.979797979798"/>
      <point x="326.23232323232327" y="870.9090909090909" type="curve" smooth="yes"/>
      <point x="326.23232323232327" y="937.0808080808081"/>
      <point x="371.21212121212125" y="975.6262626262626"/>
      <point x="496.2020202020202" y="986.8181818181818" type="curve" smooth="yes"/>
      <point x="750.4343434343434" y="1006.6060606060606" type="line"/>
      <point x="726.4949494949494" y="1130.5353535353536" type="line"/>
      <point x="455.29292929292933" y="1109.6666666666667" type="line" smooth="yes"/>
      <point x="181.3030303030303" y="1092.3131313131314"/>
      <point x="65.84848484848484" y="1006.7474747474747"/>
      <point x="65.84848484848484" y="845.2929292929293" type="curve" smooth="yes"/>
      <point x="65.84848484848484" y="696.969696969697"/>
      <point x="171.68686868686868" y="593.8383838383838"/>
    </contour>
  </outline>
</glyph>
<glyph name="guillemetleft" format="2">
  <advance width="1327.2828282828284"/>
  <unicode hex="00AB"/>
  <outline>
    <contour>
      <point x="415.95959595959596" y="134.59595959595958" type="line"/>
      <point x="712.1212121212121" y="134.59595959595958" type="line"/>
      <point x="402.1717171717172" y="565.4040404040404" type="line"/>
      <point x="712.1212121212121" y="996.2121212121212" type="line"/>
      <point x="415.95959595959596" y="996.2121212121212" type="line"/>
      <point x="106.010101010101" y="565.4040404040404" type="line"/>
    </contour>
    <contour>
      <point x="965.1111111111111" y="134.59595959595958" type="line"/>
      <point x="1261.2727272727275" y="134.59595959595958" type="line"/>
      <point x="951.3232323232324" y="565.4040404040404" type="line"/>
      <point x="1261.2727272727275" y="996.2121212121212" type="line"/>
      <point x="965.1111111111111" y="996.2121212121212" type="line"/>
      <point x="655.1616161616162" y="565.4040404040404" type="line"/>
    </contour>
  </outline>
</glyph>
<glyph name="logicalnot" format="2">
  <advance width="1425.8383838383838"/>
  <unicode hex="00AC"/>
  <outline>
    <contour>
      <point x="1062.030303030303" y="201.72727272727272" type="line"/>
      <point x="1285.6666666666667" y="201.72727272727272" type="line"/>
      <point x="1285.6666666666667" y="866.5757575757576" type="line"/>
      <point x="148.92929292929293" y="866.5757575757576" type="line"/>
      <point x="148.92929292929293" y="653.4242424242424" type="line"/>
      <point x="1062.030303030303" y="653.4242424242424" type="line"/>
    </contour>
  </outline>
</glyph>
<glyph name="softhyphen" format="2">
  <advance width="1044.2929292929293"/>
  <unicode hex="00AD"/>
  <outline>
    <contour>
      <point x="148.92929292929293" y="450.18181818181813" type="line"/>
      <point x="895.3636363636364" y="450.18181818181813" type="line"/>
      <point x="895.3636363636364" y="680.6262626262627" type="line"/>
      <point x="148.92929292929293" y="680.6262626262627" type="line"/>
    </contour>
  </outline>
</glyph>
<glyph name="registered" format="2">
  <advance width="1505.5353535353536"/>
  <unicode hex="00AE"/>
  <outline>
    <contour>
      <point x="752.7676767676768" y="268.0" type="curve" smooth="yes"/>
      <point x="1114.7676767676767" y="268.0"/>
      <point x="1362.7676767676767" y="518.0"/>
      <point x="1362.7676767676767" y="882.0" type="curve" smooth="yes"/>
      <point x="1362.7676767676767" y="1246.0"/>
      <point x="1114.7676767676767" y="1498.0"/>
      <point x="752.7676767676768" y="1498.0" type="curve" smooth="yes"/>
      <point x="390.76767676767673" y="1498.0"/>
      <point x="142.76767676767676" y="1246.0"/>
      <point x="142.76767676767676" y="882.0" type="curve" smooth="yes"/>
      <point x="142.76767676767676" y="518.0"/>
      <point x="390.76767676767673" y="268.0"/>
    </contour>
    <contour>
      <point x="891.8585858585858" y="600.0" type="line"/>
      <point x="1025.141414141414" y="600.0" type="line"/>
      <point x="862.1111111111111" y="838.3838383838383" type="line"/>
      <point x="745.9090909090909" y="812.3838383838383" type="line"/>
    </contour>
    <contour>
      <point x="752.7676767676768" y="382.6363636363636" type="curve" smooth="yes"/>
      <point x="457.19191919191917" y="382.6363636363636"/>
      <point x="264.80808080808083" y="579.1818181818182"/>
      <point x="264.80808080808083" y="882.0" type="curve" smooth="yes"/>
      <point x="264.80808080808083" y="1185.8989898989898"/>
      <point x="457.19191919191917" y="1383.3636363636363"/>
      <point x="752.7676767676768" y="1383.3636363636363" type="curve" smooth="yes"/>
      <point x="1048.3434343434344" y="1383.3636363636363"/>
      <point x="1240.7272727272727" y="1185.8989898989898"/>
      <point x="1240.7272727272727" y="882.0" type="curve" smooth="yes"/>
      <point x="1240.7272727272727" y="579.1818181818182"/>
      <point x="1048.3434343434344" y="382.6363636363636"/>
    </contour>
    <contour>
      <point x="537.2020202020202" y="600.0" type="line"/>
      <point x="657.2424242424242" y="600.0" type="line"/>
      <point x="660.4848484848485" y="804.3838383838383" type="line"/>
      <point x="742.010101010101" y="804.3838383838383" type="line" smooth="yes"/>
      <point x="913.7373737373737" y="804.3838383838383"/>
      <point x="996.8181818181818" y="869.3030303030303"/>
      <point x="996.8181818181818" y="997.1919191919192" type="curve" smooth="yes"/>
      <point x="996.8181818181818" y="1125.080808080808"/>
      <point x="911.7373737373737" y="1192.0"/>
      <point x="742.010101010101" y="1192.0" type="curve" smooth="yes"/>
      <point x="537.2020202020202" y="1192.0" type="line"/>
    </contour>
    <contour>
      <point x="660.4848484848485" y="904.2121212121212" type="line"/>
      <point x="660.4848484848485" y="1092.171717171717" type="line"/>
      <point x="761.5757575757576" y="1092.171717171717" type="line" smooth="yes"/>
      <point x="838.989898989899" y="1092.171717171717"/>
      <point x="878.9393939393939" y="1060.8181818181818"/>
      <point x="878.9393939393939" y="997.1919191919192" type="curve" smooth="yes"/>
      <point x="878.9393939393939" y="933.5656565656566"/>
      <point x="840.989898989899" y="904.2121212121212"/>
      <point x="761.5757575757576" y="904.2121212121212" type="curve" smooth="yes"/>
    </contour>
  </outline>
</glyph>
<glyph name="macron" format="2">
  <advance width="1200.0"/>
  <unicode hex="00AF"/>
  <anchor x="600.0" y="1200.0" name="_top"/>
  <anchor x="600.0" y="1588.4242424242425" name="top"/>
  <outline>
    <contour>
      <point x="229.95959595959596" y="1339.9595959595958" type="line"/>
      <point x="970.040404040404" y="1339.9595959595958" type="line"/>
      <point x="970.040404040404" y="1502.6363636363637" type="line"/>
      <point x="229.95959595959596" y="1502.6363636363637" type="line"/>
    </contour>
  </outline>
</glyph>
<glyph name="degree" format="2">
  <advance width="1038.7070707070707"/>
  <unicode hex="00B0"/>
  <outline>
    <contour>
      <point x="519.3535353535353" y="752.5555555555555" type="curve" smooth="yes"/>
      <point x="737.7272727272727" y="752.5555555555555"/>
      <point x="895.939393939394" y="909.5252525252525"/>
      <point x="895.939393939394" y="1125.8989898989898" type="curve" smooth="yes"/>
      <point x="895.939393939394" y="1342.2727272727273"/>
      <point x="737.7272727272727" y="1498.1616161616162"/>
      <point x="519.3535353535353" y="1498.1616161616162" type="curve" smooth="yes"/>
      <point x="300.979797979798" y="1498.1616161616162"/>
      <point x="142.76767676767676" y="1342.2727272727273"/>
      <point x="142.76767676767676" y="1125.8989898989898" type="curve" smooth="yes"/>
      <point x="142.76767676767676" y="909.5252525252525"/>
      <point x="300.979797979798" y="752.5555555555555"/>
    </contour>
    <contour>
      <point x="519.3535353535353" y="915.989898989899" type="curve" smooth="yes"/>
      <point x="401.6666666666667" y="915.989898989899"/>
      <point x="315.7676767676768" y="996.969696969697"/>
      <point x="315.7676767676768" y="1125.8989898989898" type="curve" smooth="yes"/>
      <point x="315.7676767676768" y="1255.909090909091"/>
      <point x="402.74747474747477" y="1334.7272727272727"/>
      <point x="519.3535353535353" y="1334.7272727272727" type="curve" smooth="yes"/>
      <point x="635.959595959596" y="1334.7272727272727"/>
      <point x="722.9393939393939" y="1255.909090909091"/>
      <point x="722.9393939393939" y="1125.8989898989898" type="curve" smooth="yes"/>
      <point x="722.9393939393939" y="996.969696969697"/>
      <point x="637.040404040404" y="915.989898989899"/>
    </contour>
  </outline>
</glyph>
<glyph name="plusminus" format="2">
  <advance width="1155.5555555555557"/>
  <unicode hex="00B1"/>
  <outline>
    <contour>
      <point x="465.95959595959596" y="366.7979797979798" type="line"/>
      <point x="689.5959595959596" y="366.7979797979798" type="line"/>
      <point x="689.5959595959596" y="668.1616161616162" type="line"/>
      <point x="1006.6262626262626" y="668.1616161616162" type="line"/>
      <point x="1006.6262626262626" y="881.3131313131314" type="line"/>
      <point x="689.5959595959596" y="881.3131313131314" type="line"/>
      <point x="689.5959595959596" y="1182.6767676767677" type="line"/>
      <point x="465.95959595959596" y="1182.6767676767677" type="line"/>
      <point x="465.95959595959596" y="881.3131313131314" type="line"/>
      <point x="148.92929292929293" y="881.3131313131314" type="line"/>
      <point x="148.92929292929293" y="668.1616161616162" type="line"/>
      <point x="465.95959595959596" y="668.1616161616162" type="line"/>
    </contour>
    <contour>
      <point x="148.92929292929293" y="0.0" type="line"/>
      <point x="1006.6262626262626" y="0.0" type="line"/>
      <point x="1006.6262626262626" y="213.1515151515152" type="line"/>
      <point x="148.92929292929293" y="213.1515151515152" type="line"/>
    </contour>
  </outline>
</glyph>
<glyph name="acute" format="2">
  <advance width="1200.0"/>
  <unicode hex="00B4"/>
  <anchor x="600.0" y="1200.0" name="_top"/>
  <anchor x="600.0" y="1610.0404040404042" name="top"/>
  <outline>
    <contour>
      <point x="464.5656565656566" y="1240.2222222222222" type="line"/>
      <point x="735.4343434343434" y="1240.2222222222222" type="line"/>
      <point x="1040.2929292929293" y="1616.0" type="line"/>
      <point x="727.1616161616162" y="1616.0" type="line"/>
    </contour>
  </outline>
</glyph>
<glyph name="micro" format="2">
  <advance width="1351.8080808080808"/>
  <unicode hex="00B5"/>
  <outline>
    <contour>
      <point x="619.6060606060606" y="-18.0" type="curve" smooth="yes"/>
      <point x="738.1010101010102" y="-18.0"/>
      <point x="850.7575757575758" y="27.676767676767675"/>
      <point x="936.9797979797979" y="110.7070707070707" type="curve"/>
      <point x="949.3030303030303" y="110.7070707070707" type="line"/>
      <point x="967.1919191919192" y="0.0" type="line"/>
      <point x="1199.0404040404042" y="0.0" type="line"/>
      <point x="1199.0404040404042" y="1090.8080808080808" type="line"/>
      <point x="917.040404040404" y="1090.8080808080808" type="line"/>
      <point x="917.040404040404" y="335.32323232323233" type="line"/>
      <point x="843.030303030303" y="258.71717171717177"/>
      <point x="735.6666666666667" y="219.84848484848487"/>
      <point x="635.6565656565657" y="219.84848484848487" type="curve" smooth="yes"/>
      <point x="505.8585858585859" y="219.84848484848487"/>
      <point x="422.1717171717172" y="277.909090909091"/>
      <point x="422.1717171717172" y="450.89898989898995" type="curve" smooth="yes"/>
      <point x="422.1717171717172" y="598.8888888888889" type="line"/>
      <point x="263.92929292929296" y="598.8888888888889" type="line"/>
      <point x="263.92929292929296" y="435.92929292929296" type="line" smooth="yes"/>
      <point x="263.92929292929296" y="112.6969696969697"/>
      <point x="403.33333333333337" y="-18.0"/>
    </contour>
    <contour>
      <point x="140.17171717171715" y="-440.0" type="line"/>
      <point x="422.1717171717172" y="-440.0" type="line"/>
      <point x="422.1717171717172" y="1089.7272727272727" type="line"/>
      <point x="140.17171717171715" y="1089.7272727272727" type="line"/>
    </contour>
  </outline>
</glyph>
<glyph name="paragraph" format="2">
  <advance width="1429.6464646464647"/>
  <unicode hex="00B6"/>
  <outline>
    <contour>
      <point x="713.1111111111111" y="0.0" type="line"/>
      <point x="916.2121212121212" y="0.0" type="line"/>
      <point x="916.2121212121212" y="1480.0" type="line"/>
      <point x="815.5656565656566" y="1491.2424242424242"/>
      <point x="704.4848484848485" y="1497.2424242424242"/>
      <point x="591.5656565656566" y="1497.2424242424242" type="curve" smooth="yes"/>
      <point x="258.54545454545456" y="1497.2424242424242"/>
      <point x="90.86868686868686" y="1337.3535353535353"/>
      <point x="90.86868686868686" y="974.3333333333334" type="curve" smooth="yes"/>
      <point x="90.86868686868686" y="630.070707070707"/>
      <point x="247.1919191919192" y="447.7474747474747"/>
      <point x="581.5252525252525" y="447.7474747474747" type="curve" smooth="yes"/>
      <point x="629.4242424242424" y="447.7474747474747"/>
      <point x="670.8888888888889" y="450.66666666666663"/>
      <point x="713.1111111111111" y="455.2626262626262" type="curve"/>
    </contour>
    <contour>
      <point x="1057.020202020202" y="0.0" type="line"/>
      <point x="1260.1212121212122" y="0.0" type="line"/>
      <point x="1260.1212121212122" y="1480.0" type="line"/>
      <point x="1057.020202020202" y="1480.0" type="line"/>
    </contour>
  </outline>
</glyph>
<glyph name="periodcentered" format="2">
  <advance width="583.8585858585859"/>
  <unicode hex="00B7"/>
  <anchor x="291.92929292929296" y="560.0" name="_periodcentered"/>
  <outline>
    <contour>
      <point x="291.92929292929296" y="392.24242424242425" type="curve" smooth="yes"/>
      <point x="406.82828282828285" y="392.24242424242425"/>
      <point x="477.1414141414142" y="458.3939393939394"/>
      <point x="477.1414141414142" y="559.0808080808081" type="curve" smooth="yes"/>
      <point x="477.1414141414142" y="659.7676767676768"/>
      <point x="408.989898989899" y="726.8383838383838"/>
      <point x="291.92929292929296" y="726.8383838383838" type="curve" smooth="yes"/>
      <point x="174.86868686868686" y="726.8383838383838"/>
      <point x="106.71717171717171" y="661.929292929293"/>
      <point x="106.71717171717171" y="559.0808080808081" type="curve" smooth="yes"/>
      <point x="106.71717171717171" y="456.2323232323232"/>
      <point x="177.03030303030303" y="392.24242424242425"/>
    </contour>
  </outline>
</glyph>
<glyph name="ordmasculine" format="2">
  <advance width="1140.1919191919192"/>
  <unicode hex="00BA"/>
  <outline>
    <contour>
      <point x="569.5555555555555" y="593.8383838383838" type="curve" smooth="yes"/>
      <point x="879.969696969697" y="593.8383838383838"/>
      <point x="1069.5858585858587" y="758.6969696969697"/>
      <point x="1069.5858585858587" y="1048.1616161616162" type="curve" smooth="yes"/>
      <point x="1069.5858585858587" y="1337.6262626262626"/>
      <point x="879.969696969697" y="1497.4040404040404"/>
      <point x="569.5555555555555" y="1497.4040404040404" type="curve" smooth="yes"/>
      <point x="259.14141414141415" y="1497.4040404040404"/>
      <point x="70.6060606060606" y="1337.6262626262626"/>
      <point x="70.6060606060606" y="1048.1616161616162" type="curve" smooth="yes"/>
      <point x="70.6060606060606" y="758.6969696969697"/>
      <point x="259.14141414141415" y="593.8383838383838"/>
    </contour>
    <contour>
      <point x="569.5555555555555" y="792.939393939394" type="curve" smooth="yes"/>
      <point x="425.0" y="792.939393939394"/>
      <point x="332.0707070707071" y="872.6767676767677"/>
      <point x="332.0707070707071" y="1048.1616161616162" type="curve" smooth="yes"/>
      <point x="332.0707070707071" y="1223.6464646464647"/>
      <point x="425.0" y="1298.3030303030303"/>
      <point x="569.5555555555555" y="1298.3030303030303" type="curve" smooth="yes"/>
      <point x="716.2727272727273" y="1298.3030303030303"/>
      <point x="808.1212121212121" y="1223.6464646464647"/>
      <point x="808.1212121212121" y="1048.1616161616162" type="curve" smooth="yes"/>
      <point x="808.1212121212121" y="872.6767676767677"/>
      <point x="716.2727272727273" y="792.939393939394"/>
    </contour>
  </outline>
</glyph>
<glyph name="guillemetright" format="2">
  <advance width="1327.2828282828284"/>
  <unicode hex="00BB"/>
  <outline>
    <contour>
      <point x="66.010101010101" y="134.59595959595958" type="line"/>
      <point x="362.1717171717172" y="134.59595959595958" type="line"/>
      <point x="672.1212121212121" y="565.4040404040404" type="line"/>
      <point x="362.1717171717172" y="996.2121212121212" type="line"/>
      <point x="66.010101010101" y="996.2121212121212" type="line"/>
      <point x="375.95959595959596" y="565.4040404040404" type="line"/>
    </contour>
    <contour>
      <point x="615.1616161616162" y="134.59595959595958" type="line"/>
      <point x="911.3232323232324" y="134.59595959595958" type="line"/>
      <point x="1221.2727272727275" y="565.4040404040404" type="line"/>
      <point x="911.3232323232324" y="996.2121212121212" type="line"/>
      <point x="615.1616161616162" y="996.2121212121212" type="line"/>
      <point x="925.1111111111111" y="565.4040404040404" type="line"/>
    </contour>
  </outline>
</glyph>
<glyph name="onequarter" format="2">
  <advance width="2210.3535353535353"/>
  <unicode hex="00BC"/>
  <outline>
    <contour>
      <point x="387.4141414141414" y="646.8080808080808" type="line"/>
      <point x="615.6969696969697" y="646.8080808080808" type="line"/>
      <point x="615.6969696969697" y="1620.0" type="line"/>
      <point x="461.4545454545455" y="1620.0" type="line"/>
      <point x="136.11111111111111" y="1406.919191919192" type="line"/>
      <point x="136.11111111111111" y="1210.7878787878788" type="line"/>
      <point x="461.4545454545455" y="1423.8686868686868" type="line"/>
      <point x="387.4141414141414" y="1497.3131313131312" type="line"/>
    </contour>
    <contour>
      <point x="136.11111111111111" y="616.0" type="line"/>
      <point x="853.0" y="616.0" type="line"/>
      <point x="853.0" y="792.5656565656566" type="line"/>
      <point x="136.11111111111111" y="792.5656565656566" type="line"/>
    </contour>
    <contour>
      <point x="548.5252525252525" y="-136.0" type="line"/>
      <point x="785.2929292929293" y="-136.0" type="line"/>
      <point x="1661.828282828283" y="1616.0" type="line"/>
      <point x="1425.060606060606" y="1616.0" type="line"/>
    </contour>
    <contour>
      <point x="1330.3232323232323" y="67.36363636363635" type="line"/>
      <point x="2188.5151515151515" y="67.36363636363635" type="line"/>
      <point x="2188.5151515151515" y="239.7676767676768" type="line"/>
      <point x="1523.7474747474748" y="239.7676767676768" type="line"/>
      <point x="1539.909090909091" y="185.34343434343435" type="line"/>
      <point x="1894.090909090909" y="864.0" type="line"/>
      <point x="1684.5050505050506" y="864.0" type="line"/>
      <point x="1330.3232323232323" y="186.26262626262627" type="line"/>
    </contour>
    <contour>
      <point x="1846.5454545454545" y="-136.0" type="line"/>
      <point x="2047.969696969697" y="-136.0" type="line"/>
      <point x="2047.969696969697" y="526.0" type="line"/>
      <point x="1879.080808080808" y="526.0" type="line"/>
      <point x="1846.5454545454545" y="239.7676767676768" type="line"/>
    </contour>
  </outline>
</glyph>
<glyph name="onehalf" format="2">
  <advance width="2210.3535353535353"/>
  <unicode hex="00BD"/>
  <outline>
    <contour>
      <point x="387.4141414141414" y="646.8080808080808" type="line"/>
      <point x="615.6969696969697" y="646.8080808080808" type="line"/>
      <point x="615.6969696969697" y="1620.0" type="line"/>
      <point x="461.4545454545455" y="1620.0" type="line"/>
      <point x="136.11111111111111" y="1406.919191919192" type="line"/>
      <point x="136.11111111111111" y="1210.7878787878788" type="line"/>
      <point x="461.4545454545455" y="1423.8686868686868" type="line"/>
      <point x="387.4141414141414" y="1497.3131313131312" type="line"/>
    </contour>
    <contour>
      <point x="136.11111111111111" y="616.0" type="line"/>
      <point x="853.0" y="616.0" type="line"/>
      <point x="853.0" y="792.5656565656566" type="line"/>
      <point x="136.11111111111111" y="792.5656565656566" type="line"/>
    </contour>
    <contour>
      <point x="548.5252525252525" y="-136.0" type="line"/>
      <point x="785.2929292929293" y="-136.0" type="line"/>
      <point x="1661.828282828283" y="1616.0" type="line"/>
      <point x="1425.060606060606" y="1616.0" type="line"/>
    </contour>
    <contour>
      <point x="1385.6767676767677" y="-136.0" type="line"/>
      <point x="2139.4343434343436" y="-136.0" type="line"/>
      <point x="2139.4343434343436" y="40.565656565656596" type="line"/>
      <point x="1644.6565656565658" y="40.565656565656596" type="line"/>
      <point x="1638.767676767677" y="-18.18181818181816" type="line"/>
      <point x="1906.7777777777778" y="256.969696969697" type="line" smooth="yes"/>
      <point x="2032.5656565656568" y="386.86868686868684"/>
      <point x="2083.4848484848485" y="477.9494949494949"/>
      <point x="2083.4848484848485" y="588.3838383838383" type="curve" smooth="yes"/>
      <point x="2083.4848484848485" y="783.3535353535353"/>
      <point x="1949.2727272727275" y="877.0808080808081"/>
      <point x="1670.1010101010102" y="877.0808080808081" type="curve" smooth="yes"/>
      <point x="1560.5353535353536" y="877.0808080808081"/>
      <point x="1452.3232323232323" y="863.0808080808081"/>
      <point x="1373.6767676767677" y="837.0808080808081" type="curve"/>
      <point x="1373.6767676767677" y="659.5959595959596" type="line"/>
      <point x="1445.030303030303" y="684.3535353535353"/>
      <point x="1544.0" y="703.7575757575758"/>
      <point x="1642.1616161616162" y="703.7575757575758" type="curve" smooth="yes"/>
      <point x="1796.7070707070707" y="703.7575757575758"/>
      <point x="1858.6060606060605" y="658.2929292929293"/>
      <point x="1858.6060606060605" y="562.929292929293" type="curve" smooth="yes"/>
      <point x="1858.6060606060605" y="498.1111111111111"/>
      <point x="1820.3333333333335" y="435.8888888888889"/>
      <point x="1719.3535353535353" y="329.55555555555554" type="curve" smooth="yes"/>
      <point x="1385.6767676767677" y="-21.26262626262624" type="line"/>
    </contour>
  </outline>
</glyph>
<glyph name="questiondown" format="2">
  <advance width="1076.7777777777778"/>
  <unicode hex="00BF"/>
  <outline>
    <contour>
      <point x="667.1010101010102" y="665.4343434343434" type="line"/>
      <point x="494.80808080808083" y="665.4343434343434" type="line"/>
      <point x="475.0808080808081" y="424.5353535353535" type="line"/>
      <point x="198.42424242424244" y="342.6363636363636"/>
      <point x="63.676767676767675" y="215.55555555555557"/>
      <point x="63.676767676767675" y="-1.848484848484837" type="curve" smooth="yes"/>
      <point x="63.676767676767675" y="-252.27272727272728"/>
      <point x="253.13131313131314" y="-400.0"/>
      <point x="627.2727272727273" y="-400.0" type="curve" smooth="yes"/>
      <point x="765.9191919191919" y="-400.0"/>
      <point x="920.3434343434344" y="-377.67676767676767"/>
      <point x="1032.020202020202" y="-342.75757575757575" type="curve"/>
      <point x="1032.020202020202" y="-122.36363636363632" type="line"/>
      <point x="912.5050505050506" y="-161.28282828282823"/>
      <point x="776.4545454545455" y="-181.60606060606057"/>
      <point x="654.1313131313132" y="-181.60606060606057" type="curve" smooth="yes"/>
      <point x="441.0404040404041" y="-181.60606060606057"/>
      <point x="340.11111111111114" y="-106.3535353535353"/>
      <point x="340.11111111111114" y="15.28282828282829" type="curve" smooth="yes"/>
      <point x="340.11111111111114" y="138.27272727272728"/>
      <point x="424.97979797979804" y="223.57575757575756"/>
      <point x="715.8484848484849" y="283.58585858585855" type="curve"/>
    </contour>
    <contour>
      <point x="580.4141414141415" y="1106.2121212121212" type="curve" smooth="yes"/>
      <point x="464.5959595959596" y="1106.2121212121212"/>
      <point x="395.2020202020202" y="1043.4646464646464"/>
      <point x="395.2020202020202" y="950.1818181818181" type="curve" smooth="yes"/>
      <point x="395.2020202020202" y="855.9797979797979"/>
      <point x="463.35353535353534" y="793.2323232323232"/>
      <point x="580.4141414141415" y="793.2323232323232" type="curve" smooth="yes"/>
      <point x="697.4747474747476" y="793.2323232323232"/>
      <point x="765.6262626262627" y="853.8181818181818"/>
      <point x="765.6262626262627" y="950.1818181818181" type="curve" smooth="yes"/>
      <point x="765.6262626262627" y="1045.6262626262626"/>
      <point x="695.3131313131314" y="1106.2121212121212"/>
    </contour>
  </outline>
</glyph>
<glyph name="Atilde" format="2">
  <advance width="1613.848484848485"/>
  <unicode hex="00C3"/>
  <anchor x="806.3030303030303" y="1520.0" name="_top"/>
  <anchor x="807.3838383838383" y="0.0" name="bottom"/>
  <anchor x="1583.1414141414143" y="0.0" name="ogonek"/>
  <anchor x="806.3030303030303" y="1520.0" name="top"/>
  <outline>
    <contour>
      <point x="30.707070707070706" y="0.0" type="line"/>
      <point x="313.30303030303037" y="0.0" type="line"/>
      <point x="821.7070707070707" y="1355.6969696969697" type="line"/>
      <point x="789.060606060606" y="1355.6969696969697" type="line"/>
      <point x="1297.4646464646464" y="0.0" type="line"/>
      <point x="1583.1414141414143" y="0.0" type="line"/>
      <point x="1012.5858585858587" y="1480.0" type="line"/>
      <point x="601.2626262626262" y="1480.0" type="line"/>
    </contour>
    <contour>
      <point x="418.1919191919192" y="423.16161616161617" type="line"/>
      <point x="1193.4949494949497" y="423.16161616161617" type="line"/>
      <point x="1125.939393939394" y="642.6363636363636" type="line"/>
      <point x="486.82828282828285" y="642.6363636363636" type="line"/>
    </contour>
    <contour>
      <point x="986.8383838383838" y="1637.4747474747473" type="curve" smooth="yes"/>
      <point x="1081.969696969697" y="1637.4747474747473"/>
      <point x="1146.6161616161617" y="1658.5555555555557"/>
      <point x="1200.6666666666667" y="1705.040404040404" type="curve"/>
      <point x="1200.6666666666667" y="1861.6666666666667" type="line"/>
      <point x="1137.5353535353536" y="1815.828282828283"/>
      <point x="1079.050505050505" y="1794.909090909091"/>
      <point x="993.3232323232323" y="1794.909090909091" type="curve" smooth="yes"/>
      <point x="868.6262626262626" y="1794.909090909091"/>
      <point x="769.2222222222222" y="1868.909090909091"/>
      <point x="625.7676767676768" y="1868.909090909091" type="curve" smooth="yes"/>
      <point x="530.6363636363636" y="1868.909090909091"/>
      <point x="465.98989898989896" y="1846.7474747474748"/>
      <point x="411.93939393939394" y="1800.2626262626263" type="curve"/>
      <point x="411.93939393939394" y="1643.6363636363635" type="line"/>
      <point x="475.07070707070704" y="1689.4747474747473"/>
      <point x="533.5555555555555" y="1710.3939393939395"/>
      <point x="619.2828282828283" y="1710.3939393939395" type="curve" smooth="yes"/>
      <point x="743.979797979798" y="1710.3939393939395"/>
      <point x="843.3838383838383" y="1637.4747474747473"/>
    </contour>
  </outline>
</glyph>
<glyph name="Adieresis" format="2">
  <advance width="1613.848484848485"/>
  <unicode hex="00C4"/>
  <anchor x="806.3030303030303" y="1520.0" name="_top"/>
  <anchor x="807.3838383838383" y="0.0" name="bottom"/>
  <anchor x="1583.1414141414143" y="0.0" name="ogonek"/>
  <anchor x="806.3030303030303" y="1520.0" name="top"/>
  <outline>
    <contour>
      <point x="30.707070707070706" y="0.0" type="line"/>
      <point x="313.30303030303037" y="0.0" type="line"/>
      <point x="821.7070707070707" y="1355.6969696969697" type="line"/>
      <point x="789.060606060606" y="1355.6969696969697" type="line"/>
      <point x="1297.4646464646464" y="0.0" type="line"/>
      <point x="1583.1414141414143" y="0.0" type="line"/>
      <point x="1012.5858585858587" y="1480.0" type="line"/>
      <point x="601.2626262626262" y="1480.0" type="line"/>
    </contour>
    <contour>
      <point x="418.1919191919192" y="423.16161616161617" type="line"/>
      <point x="1193.4949494949497" y="423.16161616161617" type="line"/>
      <point x="1125.939393939394" y="642.6363636363636" type="line"/>
      <point x="486.82828282828285" y="642.6363636363636" type="line"/>
    </contour>
    <contour>
      <point x="1085.7575757575758" y="1625.151515151515" type="curve" smooth="yes"/>
      <point x="1188.767676767677" y="1625.151515151515"/>
      <point x="1237.4646464646464" y="1672.9292929292928"/>
      <point x="1237.4646464646464" y="1750.919191919192" type="curve" smooth="yes"/>
      <point x="1237.4646464646464" y="1828.909090909091"/>
      <point x="1188.767676767677" y="1877.6060606060605"/>
      <point x="1085.7575757575758" y="1877.6060606060605" type="curve" smooth="yes"/>
      <point x="982.7474747474748" y="1877.6060606060605"/>
      <point x="934.0505050505051" y="1828.909090909091"/>
      <point x="934.0505050505051" y="1750.919191919192" type="curve" smooth="yes"/>
      <point x="934.0505050505051" y="1672.9292929292928"/>
      <point x="982.7474747474748" y="1625.151515151515"/>
    </contour>
    <contour>
      <point x="526.8484848484849" y="1625.151515151515" type="curve" smooth="yes"/>
      <point x="629.8585858585859" y="1625.151515151515"/>
      <point x="678.5555555555557" y="1672.9292929292928"/>
      <point x="678.5555555555557" y="1750.919191919192" type="curve" smooth="yes"/>
      <point x="678.5555555555557" y="1828.909090909091"/>
      <point x="629.8585858585859" y="1877.6060606060605"/>
      <point x="526.8484848484849" y="1877.6060606060605" type="curve" smooth="yes"/>
      <point x="423.83838383838383" y="1877.6060606060605"/>
      <point x="375.14141414141415" y="1828.909090909091"/>
      <point x="375.14141414141415" y="1750.919191919192" type="curve" smooth="yes"/>
      <point x="375.14141414141415" y="1672.9292929292928"/>
      <point x="423.83838383838383" y="1625.151515151515"/>
    </contour>
  </outline>
</glyph>
<glyph name="Aring" format="2">
  <advance width="1613.848484848485"/>
  <unicode hex="00C5"/>
  <anchor x="807.2222222222222" y="1437.2727272727273" name="_top"/>
  <anchor x="807.3838383838383" y="0.0" name="bottom"/>
  <anchor x="1583.1414141414143" y="0.0" name="ogonek"/>
  <anchor x="806.3030303030303" y="1520.0" name="top"/>
  <outline>
    <contour>
      <point x="30.707070707070706" y="0.0" type="line"/>
      <point x="313.30303030303037" y="0.0" type="line"/>
      <point x="821.7070707070707" y="1355.6969696969697" type="line"/>
      <point x="789.060606060606" y="1355.6969696969697" type="line"/>
      <point x="1297.4646464646464" y="0.0" type="line"/>
      <point x="1583.1414141414143" y="0.0" type="line"/>
      <point x="1012.5858585858587" y="1480.0" type="line"/>
      <point x="601.2626262626262" y="1480.0" type="line"/>
    </contour>
    <contour>
      <point x="418.1919191919192" y="423.16161616161617" type="line"/>
      <point x="1193.4949494949497" y="423.16161616161617" type="line"/>
      <point x="1125.939393939394" y="642.6363636363636" type="line"/>
      <point x="486.82828282828285" y="642.6363636363636" type="line"/>
    </contour>
    <contour>
      <point x="807.2222222222222" y="1506.5757575757575" type="curve" smooth="yes"/>
      <point x="927.2727272727273" y="1506.5757575757575"/>
      <point x="1015.0" y="1592.141414141414"/>
      <point x="1015.0" y="1710.030303030303" type="curve" smooth="yes"/>
      <point x="1015.0" y="1827.919191919192"/>
      <point x="927.2727272727273" y="1913.4848484848485"/>
      <point x="807.2222222222222" y="1913.4848484848485" type="curve" smooth="yes"/>
      <point x="687.1717171717172" y="1913.4848484848485"/>
      <point x="599.4444444444445" y="1827.919191919192"/>
      <point x="599.4444444444445" y="1710.030303030303" type="curve" smooth="yes"/>
      <point x="599.4444444444445" y="1592.141414141414"/>
      <point x="687.1717171717172" y="1506.5757575757575"/>
    </contour>
    <contour>
      <point x="807.2222222222222" y="1605.050505050505" type="curve" smooth="yes"/>
      <point x="747.4343434343434" y="1605.050505050505"/>
      <point x="705.3232323232323" y="1645.3232323232323"/>
      <point x="705.3232323232323" y="1710.030303030303" type="curve" smooth="yes"/>
      <point x="705.3232323232323" y="1774.7373737373737"/>
      <point x="747.4343434343434" y="1815.010101010101"/>
      <point x="807.2222222222222" y="1815.010101010101" type="curve" smooth="yes"/>
      <point x="867.010101010101" y="1815.010101010101"/>
      <point x="909.1212121212121" y="1774.7373737373737"/>
      <point x="909.1212121212121" y="1710.030303030303" type="curve" smooth="yes"/>
      <point x="909.1212121212121" y="1645.3232323232323"/>
      <point x="867.010101010101" y="1605.050505050505"/>
    </contour>
  </outline>
</glyph>
<glyph name="AE" format="2">
  <advance width="2189.888888888889"/>
  <unicode hex="00C6"/>
  <anchor x="1150.5151515151515" y="0.0" name="bottom"/>
  <anchor x="1095.3636363636365" y="1520.0" name="top"/>
  <outline>
    <contour>
      <point x="30.707070707070706" y="0.0" type="line"/>
      <point x="313.30303030303037" y="0.0" type="line"/>
      <point x="792.6868686868687" y="1260.5252525252524" type="line"/>
      <point x="1070.5555555555557" y="1260.5252525252524" type="line"/>
      <point x="1072.3939393939395" y="1480.0" type="line"/>
      <point x="605.8585858585858" y="1480.0" type="line"/>
    </contour>
    <contour>
      <point x="422.7878787878788" y="423.16161616161617" type="line"/>
      <point x="1111.2727272727273" y="423.16161616161617" type="line"/>
      <point x="1111.2727272727273" y="642.6363636363636" type="line"/>
      <point x="491.42424242424244" y="642.6363636363636" type="line"/>
    </contour>
    <contour>
      <point x="1070.959595959596" y="0.0" type="line"/>
      <point x="2093.777777777778" y="0.0" type="line"/>
      <point x="2093.777777777778" y="219.47474747474752" type="line"/>
      <point x="1341.3939393939395" y="219.47474747474752" type="line"/>
      <point x="1245.929292929293" y="1260.5252525252524" type="line"/>
      <point x="2083.777777777778" y="1260.5252525252524" type="line"/>
      <point x="2083.777777777778" y="1480.0" type="line"/>
      <point x="944.7979797979798" y="1480.0" type="line"/>
    </contour>
    <contour>
      <point x="1133.5353535353536" y="648.020202020202" type="line"/>
      <point x="1980.5353535353536" y="648.020202020202" type="line"/>
      <point x="1980.5353535353536" y="867.4949494949495" type="line"/>
      <point x="1133.5353535353536" y="867.4949494949495" type="line"/>
    </contour>
  </outline>
</glyph>
<glyph name="Eacute" format="2">
  <advance width="1399.6464646464647"/>
  <unicode hex="00C9"/>
  <anchor x="753.0707070707072" y="1520.0" name="_top"/>
  <anchor x="754.909090909091" y="0.0" name="bottom"/>
  <anchor x="1212.7272727272727" y="0.0" name="ogonek"/>
  <anchor x="753.0707070707072" y="1520.0" name="top"/>
  <anchor x="42.75757575757576" y="1480.0" name="topleft"/>
  <outline>
    <contour>
      <point x="169.5252525252525" y="0.0" type="line"/>
      <point x="1303.5353535353536" y="0.0" type="line"/>
      <point x="1303.5353535353536" y="219.47474747474752" type="line"/>
      <point x="454.7676767676768" y="219.47474747474752" type="line"/>
      <point x="454.7676767676768" y="1260.5252525252524" type="line"/>
      <point x="1293.5353535353536" y="1260.5252525252524" type="line"/>
      <point x="1293.5353535353536" y="1480.0" type="line"/>
      <point x="169.5252525252525" y="1480.0" type="line"/>
    </contour>
    <contour>
      <point x="311.1212121212121" y="648.020202020202" type="line"/>
      <point x="1190.2929292929293" y="648.020202020202" type="line"/>
      <point x="1190.2929292929293" y="867.4949494949495" type="line"/>
      <point x="311.1212121212121" y="867.4949494949495" type="line"/>
    </contour>
    <contour>
      <point x="620.8787878787879" y="1599.7878787878788" type="line"/>
      <point x="880.939393939394" y="1599.7878787878788" type="line"/>
      <point x="1136.3939393939395" y="1895.5656565656566" type="line"/>
      <point x="833.1515151515151" y="1895.5656565656566" type="line"/>
    </contour>
  </outline>
</glyph>
<glyph name="Ecircumflex" format="2">
  <advance width="1399.6464646464647"/>
  <unicode hex="00CA"/>
  <anchor x="753.0707070707072" y="1520.0" name="_top"/>
  <anchor x="754.909090909091" y="0.0" name="bottom"/>
  <anchor x="1212.7272727272727" y="0.0" name="ogonek"/>
  <anchor x="753.0707070707072" y="1520.0" name="top"/>
  <anchor x="42.75757575757576" y="1480.0" name="topleft"/>
  <outline>
    <contour>
      <point x="169.5252525252525" y="0.0" type="line"/>
      <point x="1303.5353535353536" y="0.0" type="line"/>
      <point x="1303.5353535353536" y="219.47474747474752" type="line"/>
      <point x="454.7676767676768" y="219.47474747474752" type="line"/>
      <point x="454.7676767676768" y="1260.5252525252524" type="line"/>
      <point x="1293.5353535353536" y="1260.5252525252524" type="line"/>
      <point x="1293.5353535353536" y="1480.0" type="line"/>
      <point x="169.5252525252525" y="1480.0" type="line"/>
    </contour>
    <contour>
      <point x="311.1212121212121" y="648.020202020202" type="line"/>
      <point x="1190.2929292929293" y="648.020202020202" type="line"/>
      <point x="1190.2929292929293" y="867.4949494949495" type="line"/>
      <point x="311.1212121212121" y="867.4949494949495" type="line"/>
    </contour>
    <contour>
      <point x="321.9090909090909" y="1599.7878787878788" type="line"/>
      <point x="560.89898989899" y="1599.7878787878788" type="line"/>
      <point x="781.8787878787879" y="1815.6868686868686" type="line"/>
      <point x="724.2626262626263" y="1815.6868686868686" type="line"/>
      <point x="945.2424242424242" y="1599.7878787878788" type="line"/>
      <point x="1184.2323232323233" y="1599.7878787878788" type="line"/>
      <point x="874.2929292929293" y="1895.5656565656566" type="line"/>
      <point x="631.8484848484849" y="1895.5656565656566" type="line"/>
    </contour>
  </outline>
</glyph>
<glyph name="Edieresis" format="2">
  <advance width="1399.6464646464647"/>
  <unicode hex="00CB"/>
  <anchor x="753.0707070707072" y="1520.0" name="_top"/>
  <anchor x="754.909090909091" y="0.0" name="bottom"/>
  <anchor x="1212.7272727272727" y="0.0" name="ogonek"/>
  <anchor x="753.0707070707072" y="1520.0" name="top"/>
  <anchor x="42.75757575757576" y="1480.0" name="topleft"/>
  <outline>
    <contour>
      <point x="169.5252525252525" y="0.0" type="line"/>
      <point x="1303.5353535353536" y="0.0" type="line"/>
      <point x="1303.5353535353536" y="219.47474747474752" type="line"/>
      <point x="454.7676767676768" y="219.47474747474752" type="line"/>
      <point x="454.7676767676768" y="1260.5252525252524" type="line"/>
      <point x="1293.5353535353536" y="1260.5252525252524" type="line"/>
      <point x="1293.5353535353536" y="1480.0" type="line"/>
      <point x="169.5252525252525" y="1480.0" type="line"/>
    </contour>
    <contour>
      <point x="311.1212121212121" y="648.020202020202" type="line"/>
      <point x="1190.2929292929293" y="648.020202020202" type="line"/>
      <point x="1190.2929292929293" y="867.4949494949495" type="line"/>
      <point x="311.1212121212121" y="867.4949494949495" type="line"/>
    </contour>
    <contour>
      <point x="1032.5252525252527" y="1625.151515151515" type="curve" smooth="yes"/>
      <point x="1135.5353535353536" y="1625.151515151515"/>
      <point x="1184.2323232323233" y="1672.9292929292928"/>
      <point x="1184.2323232323233" y="1750.919191919192" type="curve" smooth="yes"/>
      <point x="1184.2323232323233" y="1828.909090909091"/>
      <point x="1135.5353535353536" y="1877.6060606060605"/>
      <point x="1032.5252525252527" y="1877.6060606060605" type="curve" smooth="yes"/>
      <point x="929.5151515151515" y="1877.6060606060605"/>
      <point x="880.8181818181818" y="1828.909090909091"/>
      <point x="880.8181818181818" y="1750.919191919192" type="curve" smooth="yes"/>
      <point x="880.8181818181818" y="1672.9292929292928"/>
      <point x="929.5151515151515" y="1625.151515151515"/>
    </contour>
    <contour>
      <point x="473.6161616161616" y="1625.151515151515" type="curve" smooth="yes"/>
      <point x="576.6262626262626" y="1625.151515151515"/>
      <point x="625.3232323232323" y="1672.9292929292928"/>
      <point x="625.3232323232323" y="1750.919191919192" type="curve" smooth="yes"/>
      <point x="625.3232323232323" y="1828.909090909091"/>
      <point x="576.6262626262626" y="1877.6060606060605"/>
      <point x="473.6161616161616" y="1877.6060606060605" type="curve" smooth="yes"/>
      <point x="370.6060606060606" y="1877.6060606060605"/>
      <point x="321.9090909090909" y="1828.909090909091"/>
      <point x="321.9090909090909" y="1750.919191919192" type="curve" smooth="yes"/>
      <point x="321.9090909090909" y="1672.9292929292928"/>
      <point x="370.6060606060606" y="1625.151515151515"/>
    </contour>
  </outline>
</glyph>
<glyph name="Igrave" format="2">
  <advance width="627.5353535353536"/>
  <unicode hex="00CC"/>
  <anchor x="313.7676767676768" y="1520.0" name="_top"/>
  <anchor x="312.6868686868687" y="0.0" name="bottom"/>
  <anchor x="458.01010101010104" y="0.0" name="ogonek"/>
  <anchor x="313.7676767676768" y="1520.0" name="top"/>
  <outline>
    <contour>
      <point x="169.5252525252525" y="0.0" type="line"/>
      <point x="458.01010101010104" y="0.0" type="line"/>
      <point x="458.01010101010104" y="1480.0" type="line"/>
      <point x="169.5252525252525" y="1480.0" type="line"/>
    </contour>
    <contour>
      <point x="183.73737373737373" y="1599.7878787878788" type="line"/>
      <point x="443.79797979797985" y="1599.7878787878788" type="line"/>
      <point x="231.52525252525257" y="1895.5656565656566" type="line"/>
      <point x="-71.71717171717174" y="1895.5656565656566" type="line"/>
    </contour>
  </outline>
</glyph>
<glyph name="Iacute" format="2">
  <advance width="627.5353535353536"/>
  <unicode hex="00CD"/>
  <anchor x="313.7676767676768" y="1520.0" name="_top"/>
  <anchor x="312.6868686868687" y="0.0" name="bottom"/>
  <anchor x="458.01010101010104" y="0.0" name="ogonek"/>
  <anchor x="313.7676767676768" y="1520.0" name="top"/>
  <outline>
    <contour>
      <point x="169.5252525252525" y="0.0" type="line"/>
      <point x="458.01010101010104" y="0.0" type="line"/>
      <point x="458.01010101010104" y="1480.0" type="line"/>
      <point x="169.5252525252525" y="1480.0" type="line"/>
    </contour>
    <contour>
      <point x="181.57575757575756" y="1599.7878787878788" type="line"/>
      <point x="441.6363636363637" y="1599.7878787878788" type="line"/>
      <point x="697.0909090909091" y="1895.5656565656566" type="line"/>
      <point x="393.8484848484849" y="1895.5656565656566" type="line"/>
    </contour>
  </outline>
</glyph>
<glyph name="Icircumflex" format="2">
  <advance width="627.5353535353536"/>
  <unicode hex="00CE"/>
  <anchor x="313.7676767676768" y="1520.0" name="_top"/>
  <anchor x="312.6868686868687" y="0.0" name="bottom"/>
  <anchor x="458.01010101010104" y="0.0" name="ogonek"/>
  <anchor x="313.7676767676768" y="1520.0" name="top"/>
  <outline>
    <contour>
      <point x="169.5252525252525" y="0.0" type="line"/>
      <point x="458.01010101010104" y="0.0" type="line"/>
      <point x="458.01010101010104" y="1480.0" type="line"/>
      <point x="169.5252525252525" y="1480.0" type="line"/>
    </contour>
    <contour>
      <point x="-117.3939393939394" y="1599.7878787878788" type="line"/>
      <point x="121.59595959595961" y="1599.7878787878788" type="line"/>
      <point x="342.5757575757576" y="1815.6868686868686" type="line"/>
      <point x="284.95959595959596" y="1815.6868686868686" type="line"/>
      <point x="505.93939393939394" y="1599.7878787878788" type="line"/>
      <point x="744.929292929293" y="1599.7878787878788" type="line"/>
      <point x="434.989898989899" y="1895.5656565656566" type="line"/>
      <point x="192.54545454545453" y="1895.5656565656566" type="line"/>
    </contour>
  </outline>
</glyph>
<glyph name="Idieresis" format="2">
  <advance width="627.5353535353536"/>
  <unicode hex="00CF"/>
  <anchor x="313.7676767676768" y="1520.0" name="_top"/>
  <anchor x="312.6868686868687" y="0.0" name="bottom"/>
  <anchor x="458.01010101010104" y="0.0" name="ogonek"/>
  <anchor x="313.7676767676768" y="1520.0" name="top"/>
  <outline>
    <contour>
      <point x="169.5252525252525" y="0.0" type="line"/>
      <point x="458.01010101010104" y="0.0" type="line"/>
      <point x="458.01010101010104" y="1480.0" type="line"/>
      <point x="169.5252525252525" y="1480.0" type="line"/>
    </contour>
    <contour>
      <point x="593.2222222222222" y="1625.151515151515" type="curve" smooth="yes"/>
      <point x="696.2323232323233" y="1625.151515151515"/>
      <point x="744.929292929293" y="1672.9292929292928"/>
      <point x="744.929292929293" y="1750.919191919192" type="curve" smooth="yes"/>
      <point x="744.929292929293" y="1828.909090909091"/>
      <point x="696.2323232323233" y="1877.6060606060605"/>
      <point x="593.2222222222222" y="1877.6060606060605" type="curve" smooth="yes"/>
      <point x="490.21212121212125" y="1877.6060606060605"/>
      <point x="441.5151515151515" y="1828.909090909091"/>
      <point x="441.5151515151515" y="1750.919191919192" type="curve" smooth="yes"/>
      <point x="441.5151515151515" y="1672.9292929292928"/>
      <point x="490.21212121212125" y="1625.151515151515"/>
    </contour>
    <contour>
      <point x="34.31313131313133" y="1625.151515151515" type="curve" smooth="yes"/>
      <point x="137.32323232323236" y="1625.151515151515"/>
      <point x="186.02020202020208" y="1672.9292929292928"/>
      <point x="186.02020202020208" y="1750.919191919192" type="curve" smooth="yes"/>
      <point x="186.02020202020208" y="1828.909090909091"/>
      <point x="137.32323232323236" y="1877.6060606060605"/>
      <point x="34.31313131313133" y="1877.6060606060605" type="curve" smooth="yes"/>
      <point x="-68.6969696969697" y="1877.6060606060605"/>
      <point x="-117.3939393939394" y="1828.909090909091"/>
      <point x="-117.3939393939394" y="1750.919191919192" type="curve" smooth="yes"/>
      <point x="-117.3939393939394" y="1672.9292929292928"/>
      <point x="-68.6969696969697" y="1625.151515151515"/>
    </contour>
  </outline>
</glyph>
<glyph name="Ntilde" format="2">
  <advance width="1713.0"/>
  <unicode hex="00D1"/>
  <anchor x="856.959595959596" y="1520.0" name="_top"/>
  <anchor x="856.959595959596" y="0.0" name="bottom"/>
  <anchor x="856.959595959596" y="1520.0" name="top"/>
  <outline>
    <contour>
      <point x="169.5252525252525" y="0.0" type="line"/>
      <point x="441.959595959596" y="0.0" type="line"/>
      <point x="441.959595959596" y="1157.3636363636363" type="line"/>
      <point x="388.18181818181824" y="1157.3636363636363" type="line"/>
      <point x="1252.2323232323233" y="0.0" type="line"/>
      <point x="1543.4747474747476" y="0.0" type="line"/>
      <point x="1543.4747474747476" y="1480.0" type="line"/>
      <point x="1271.0404040404042" y="1480.0" type="line"/>
      <point x="1271.0404040404042" y="322.6363636363637" type="line"/>
      <point x="1324.8181818181818" y="322.6363636363637" type="line"/>
      <point x="460.7676767676768" y="1480.0" type="line"/>
      <point x="169.5252525252525" y="1480.0" type="line"/>
    </contour>
    <contour>
      <point x="1037.4949494949497" y="1637.4747474747473" type="curve" smooth="yes"/>
      <point x="1132.6262626262628" y="1637.4747474747473"/>
      <point x="1197.2727272727273" y="1658.5555555555557"/>
      <point x="1251.3232323232323" y="1705.040404040404" type="curve"/>
      <point x="1251.3232323232323" y="1861.6666666666667" type="line"/>
      <point x="1188.1919191919192" y="1815.828282828283"/>
      <point x="1129.7070707070707" y="1794.909090909091"/>
      <point x="1043.979797979798" y="1794.909090909091" type="curve" smooth="yes"/>
      <point x="919.2828282828283" y="1794.909090909091"/>
      <point x="819.8787878787879" y="1868.909090909091"/>
      <point x="676.4242424242425" y="1868.909090909091" type="curve" smooth="yes"/>
      <point x="581.2929292929293" y="1868.909090909091"/>
      <point x="516.6464646464647" y="1846.7474747474748"/>
      <point x="462.5959595959596" y="1800.2626262626263" type="curve"/>
      <point x="462.5959595959596" y="1643.6363636363635" type="line"/>
      <point x="525.7272727272727" y="1689.4747474747473"/>
      <point x="584.2121212121212" y="1710.3939393939395"/>
      <point x="669.939393939394" y="1710.3939393939395" type="curve" smooth="yes"/>
      <point x="794.6363636363636" y="1710.3939393939395"/>
      <point x="894.040404040404" y="1637.4747474747473"/>
    </contour>
  </outline>
</glyph>
<glyph name="Otilde" format="2">
  <advance width="1744.9292929292928"/>
  <unicode hex="00D5"/>
  <anchor x="872.4646464646464" y="1520.0" name="_top"/>
  <anchor x="872.4646464646464" y="0.0" name="bottom"/>
  <anchor x="872.4646464646464" y="740.0" name="center"/>
  <anchor x="1040.5757575757575" y="0.0" name="ogonek"/>
  <anchor x="872.4646464646464" y="1520.0" name="top"/>
  <anchor x="55.4040404040404" y="1480.0" name="topleft"/>
  <anchor x="1078.5656565656566" y="1480.0" name="topright"/>
  <outline>
    <contour>
      <point x="872.4646464646464" y="-19.08080808080808" type="curve" smooth="yes"/>
      <point x="1333.848484848485" y="-19.08080808080808"/>
      <point x="1636.1111111111113" y="243.66666666666669"/>
      <point x="1636.1111111111113" y="740.0" type="curve" smooth="yes"/>
      <point x="1636.1111111111113" y="1236.3333333333333"/>
      <point x="1337.6868686868688" y="1499.080808080808"/>
      <point x="872.4646464646464" y="1499.080808080808" type="curve" smooth="yes"/>
      <point x="410.0" y="1499.080808080808"/>
      <point x="108.81818181818181" y="1238.4949494949494"/>
      <point x="108.81818181818181" y="740.0" type="curve" smooth="yes"/>
      <point x="108.81818181818181" y="241.50505050505052"/>
      <point x="408.32323232323233" y="-19.08080808080808"/>
    </contour>
    <contour>
      <point x="872.4646464646464" y="211.0404040404041" type="curve" smooth="yes"/>
      <point x="583.2626262626263" y="211.0404040404041"/>
      <point x="403.46464646464653" y="370.61616161616166"/>
      <point x="403.46464646464653" y="746.1616161616162" type="curve" smooth="yes"/>
      <point x="403.46464646464653" y="1109.3838383838383"/>
      <point x="586.5050505050506" y="1268.9595959595958"/>
      <point x="872.4646464646464" y="1268.9595959595958" type="curve" smooth="yes"/>
      <point x="1158.4242424242425" y="1268.9595959595958"/>
      <point x="1341.4646464646464" y="1106.141414141414"/>
      <point x="1341.4646464646464" y="733.8383838383838" type="curve" smooth="yes"/>
      <point x="1341.4646464646464" y="373.8585858585859"/>
      <point x="1161.6666666666667" y="211.0404040404041"/>
    </contour>
    <contour>
      <point x="1053.0" y="1637.4747474747473" type="curve" smooth="yes"/>
      <point x="1148.1313131313132" y="1637.4747474747473"/>
      <point x="1212.7777777777778" y="1658.5555555555557"/>
      <point x="1266.828282828283" y="1705.040404040404" type="curve"/>
      <point x="1266.828282828283" y="1861.6666666666667" type="line"/>
      <point x="1203.6969696969697" y="1815.828282828283"/>
      <point x="1145.2121212121212" y="1794.909090909091"/>
      <point x="1059.4848484848485" y="1794.909090909091" type="curve" smooth="yes"/>
      <point x="934.7878787878788" y="1794.909090909091"/>
      <point x="835.3838383838383" y="1868.909090909091"/>
      <point x="691.929292929293" y="1868.909090909091" type="curve" smooth="yes"/>
      <point x="596.7979797979798" y="1868.909090909091"/>
      <point x="532.1515151515151" y="1846.7474747474748"/>
      <point x="478.1010101010101" y="1800.2626262626263" type="curve"/>
      <point x="478.1010101010101" y="1643.6363636363635" type="line"/>
      <point x="541.2323232323232" y="1689.4747474747473"/>
      <point x="599.7171717171717" y="1710.3939393939395"/>
      <point x="685.4444444444445" y="1710.3939393939395" type="curve" smooth="yes"/>
      <point x="810.1414141414141" y="1710.3939393939395"/>
      <point x="909.5454545454545" y="1637.4747474747473"/>
    </contour>
  </outline>
</glyph>
<glyph name="Odieresis" format="2">
  <advance width="1744.9292929292928"/>
  <unicode hex="00D6"/>
  <anchor x="872.4646464646464" y="1520.0" name="_top"/>
  <anchor x="872.4646464646464" y="0.0" name="bottom"/>
  <anchor x="872.4646464646464" y="740.0" name="center"/>
  <anchor x="1040.5757575757575" y="0.0" name="ogonek"/>
  <anchor x="872.4646464646464" y="1520.0" name="top"/>
  <anchor x="55.4040404040404" y="1480.0" name="topleft"/>
  <anchor x="1078.5656565656566" y="1480.0" name="topright"/>
  <outline>
    <contour>
      <point x="872.4646464646464" y="-19.08080808080808" type="curve" smooth="yes"/>
      <point x="1333.848484848485" y="-19.08080808080808"/>
      <point x="1636.1111111111113" y="243.66666666666669"/>
      <point x="1636.1111111111113" y="740.0" type="curve" smooth="yes"/>
      <point x="1636.1111111111113" y="1236.3333333333333"/>
      <point x="1337.6868686868688" y="1499.080808080808"/>
      <point x="872.4646464646464" y="1499.080808080808" type="curve" smooth="yes"/>
      <point x="410.0" y="1499.080808080808"/>
      <point x="108.81818181818181" y="1238.4949494949494"/>
      <point x="108.81818181818181" y="740.0" type="curve" smooth="yes"/>
      <point x="108.81818181818181" y="241.50505050505052"/>
      <point x="408.32323232323233" y="-19.08080808080808"/>
    </contour>
    <contour>
      <point x="872.4646464646464" y="211.0404040404041" type="curve" smooth="yes"/>
      <point x="583.2626262626263" y="211.0404040404041"/>
      <point x="403.46464646464653" y="370.61616161616166"/>
      <point x="403.46464646464653" y="746.1616161616162" type="curve" smooth="yes"/>
      <point x="403.46464646464653" y="1109.3838383838383"/>
      <point x="586.5050505050506" y="1268.9595959595958"/>
      <point x="872.4646464646464" y="1268.9595959595958" type="curve" smooth="yes"/>
      <point x="1158.4242424242425" y="1268.9595959595958"/>
      <point x="1341.4646464646464" y="1106.141414141414"/>
      <point x="1341.4646464646464" y="733.8383838383838" type="curve" smooth="yes"/>
      <point x="1341.4646464646464" y="373.8585858585859"/>
      <point x="1161.6666666666667" y="211.0404040404041"/>
    </contour>
    <contour>
      <point x="1151.919191919192" y="1625.151515151515" type="curve" smooth="yes"/>
      <point x="1254.9292929292928" y="1625.151515151515"/>
      <point x="1303.6262626262628" y="1672.9292929292928"/>
      <point x="1303.6262626262628" y="1750.919191919192" type="curve" smooth="yes"/>
      <point x="1303.6262626262628" y="1828.909090909091"/>
      <point x="1254.9292929292928" y="1877.6060606060605"/>
      <point x="1151.919191919192" y="1877.6060606060605" type="curve" smooth="yes"/>
      <point x="1048.909090909091" y="1877.6060606060605"/>
      <point x="1000.2121212121212" y="1828.909090909091"/>
      <point x="1000.2121212121212" y="1750.919191919192" type="curve" smooth="yes"/>
      <point x="1000.2121212121212" y="1672.9292929292928"/>
      <point x="1048.909090909091" y="1625.151515151515"/>
    </contour>
    <contour>
      <point x="593.010101010101" y="1625.151515151515" type="curve" smooth="yes"/>
      <point x="696.0202020202021" y="1625.151515151515"/>
      <point x="744.7171717171718" y="1672.9292929292928"/>
      <point x="744.7171717171718" y="1750.919191919192" type="curve" smooth="yes"/>
      <point x="744.7171717171718" y="1828.909090909091"/>
      <point x="696.0202020202021" y="1877.6060606060605"/>
      <point x="593.010101010101" y="1877.6060606060605" type="curve" smooth="yes"/>
      <point x="490.0" y="1877.6060606060605"/>
      <point x="441.3030303030303" y="1828.909090909091"/>
      <point x="441.3030303030303" y="1750.919191919192" type="curve" smooth="yes"/>
      <point x="441.3030303030303" y="1672.9292929292928"/>
      <point x="490.0" y="1625.151515151515"/>
    </contour>
  </outline>
</glyph>
<glyph name="multiply" format="2">
  <advance width="1071.0101010101012"/>
  <unicode hex="00D7"/>
  <outline>
    <contour>
      <point x="258.8484848484849" y="333.4242424242424" type="line"/>
      <point x="535.5050505050506" y="610.0808080808081" type="line"/>
      <point x="812.1616161616162" y="333.4242424242424" type="line"/>
      <point x="962.0808080808081" y="483.34343434343435" type="line"/>
      <point x="685.4242424242425" y="760.0" type="line"/>
      <point x="962.0808080808081" y="1036.6565656565656" type="line"/>
      <point x="812.1616161616162" y="1186.5757575757575" type="line"/>
      <point x="535.5050505050506" y="909.9191919191919" type="line"/>
      <point x="258.8484848484849" y="1186.5757575757575" type="line"/>
      <point x="108.92929292929291" y="1036.6565656565656" type="line"/>
      <point x="385.58585858585855" y="760.0" type="line"/>
      <point x="108.92929292929291" y="483.34343434343435" type="line"/>
    </contour>
  </outline>
</glyph>
<glyph name="Uacute" format="2">
  <advance width="1659.4848484848485"/>
  <unicode hex="00DA"/>
  <anchor x="832.3636363636364" y="1520.0" name="_top"/>
  <anchor x="832.3636363636364" y="0.0" name="bottom"/>
  <anchor x="1041.6464646464647" y="1.8383838383838378" name="ogonek"/>
  <anchor x="832.3636363636364" y="1520.0" name="top"/>
  <anchor x="1213.6363636363635" y="1480.0" name="topright"/>
  <outline>
    <contour>
      <point x="832.3636363636364" y="-19.08080808080808" type="curve" smooth="yes"/>
      <point x="1295.4242424242425" y="-19.08080808080808"/>
      <point x="1496.878787878788" y="203.71717171717174"/>
      <point x="1496.878787878788" y="635.1717171717172" type="curve" smooth="yes"/>
      <point x="1496.878787878788" y="1480.0" type="line"/>
      <point x="1213.6363636363635" y="1480.0" type="line"/>
      <point x="1213.6363636363635" y="610.040404040404" type="line" smooth="yes"/>
      <point x="1213.6363636363635" y="334.18181818181824"/>
      <point x="1090.2222222222222" y="214.44444444444449"/>
      <point x="832.3636363636364" y="214.44444444444449" type="curve" smooth="yes"/>
      <point x="574.5050505050506" y="214.44444444444449"/>
      <point x="451.0909090909091" y="334.18181818181824"/>
      <point x="451.0909090909091" y="610.040404040404" type="curve" smooth="yes"/>
      <point x="451.0909090909091" y="1480.0" type="line"/>
      <point x="162.6060606060606" y="1480.0" type="line"/>
      <point x="162.6060606060606" y="635.1717171717172" type="line" smooth="yes"/>
      <point x="162.6060606060606" y="203.71717171717174"/>
      <point x="363.8989898989899" y="-19.08080808080808"/>
    </contour>
    <contour>
      <point x="700.1717171717171" y="1599.7878787878788" type="line"/>
      <point x="960.2323232323233" y="1599.7878787878788" type="line"/>
      <point x="1215.6868686868688" y="1895.5656565656566" type="line"/>
      <point x="912.4444444444445" y="1895.5656565656566" type="line"/>
    </contour>
  </outline>
</glyph>
<glyph name="Udieresis" format="2">
  <advance width="1659.4848484848485"/>
  <unicode hex="00DC"/>
  <anchor x="832.3636363636364" y="1520.0" name="_top"/>
  <anchor x="832.3636363636364" y="0.0" name="bottom"/>
  <anchor x="1041.6464646464647" y="1.8383838383838378" name="ogonek"/>
  <anchor x="832.3636363636364" y="1520.0" name="top"/>
  <anchor x="1213.6363636363635" y="1480.0" name="topright"/>
  <outline>
    <contour>
      <point x="832.3636363636364" y="-19.08080808080808" type="curve" smooth="yes"/>
      <point x="1295.4242424242425" y="-19.08080808080808"/>
      <point x="1496.878787878788" y="203.71717171717174"/>
      <point x="1496.878787878788" y="635.1717171717172" type="curve" smooth="yes"/>
      <point x="1496.878787878788" y="1480.0" type="line"/>
      <point x="1213.6363636363635" y="1480.0" type="line"/>
      <point x="1213.6363636363635" y="610.040404040404" type="line" smooth="yes"/>
      <point x="1213.6363636363635" y="334.18181818181824"/>
      <point x="1090.2222222222222" y="214.44444444444449"/>
      <point x="832.3636363636364" y="214.44444444444449" type="curve" smooth="yes"/>
      <point x="574.5050505050506" y="214.44444444444449"/>
      <point x="451.0909090909091" y="334.18181818181824"/>
      <point x="451.0909090909091" y="610.040404040404" type="curve" smooth="yes"/>
      <point x="451.0909090909091" y="1480.0" type="line"/>
      <point x="162.6060606060606" y="1480.0" type="line"/>
      <point x="162.6060606060606" y="635.1717171717172" type="line" smooth="yes"/>
      <point x="162.6060606060606" y="203.71717171717174"/>
      <point x="363.8989898989899" y="-19.08080808080808"/>
    </contour>
    <contour>
      <point x="1111.818181818182" y="1625.151515151515" type="curve" smooth="yes"/>
      <point x="1214.828282828283" y="1625.151515151515"/>
      <point x="1263.5252525252527" y="1672.9292929292928"/>
      <point x="1263.5252525252527" y="1750.919191919192" type="curve" smooth="yes"/>
      <point x="1263.5252525252527" y="1828.909090909091"/>
      <point x="1214.828282828283" y="1877.6060606060605"/>
      <point x="1111.818181818182" y="1877.6060606060605" type="curve" smooth="yes"/>
      <point x="1008.8080808080808" y="1877.6060606060605"/>
      <point x="960.1111111111111" y="1828.909090909091"/>
      <point x="960.1111111111111" y="1750.919191919192" type="curve" smooth="yes"/>
      <point x="960.1111111111111" y="1672.9292929292928"/>
      <point x="1008.8080808080808" y="1625.151515151515"/>
    </contour>
    <contour>
      <point x="552.909090909091" y="1625.151515151515" type="curve" smooth="yes"/>
      <point x="655.9191919191919" y="1625.151515151515"/>
      <point x="704.6161616161617" y="1672.9292929292928"/>
      <point x="704.6161616161617" y="1750.919191919192" type="curve" smooth="yes"/>
      <point x="704.6161616161617" y="1828.909090909091"/>
      <point x="655.9191919191919" y="1877.6060606060605"/>
      <point x="552.909090909091" y="1877.6060606060605" type="curve" smooth="yes"/>
      <point x="449.8989898989899" y="1877.6060606060605"/>
      <point x="401.2020202020202" y="1828.909090909091"/>
      <point x="401.2020202020202" y="1750.919191919192" type="curve" smooth="yes"/>
      <point x="401.2020202020202" y="1672.9292929292928"/>
      <point x="449.8989898989899" y="1625.151515151515"/>
    </contour>
  </outline>
</glyph>
<glyph name="Thorn" format="2">
  <advance width="1439.6464646464647"/>
  <unicode hex="00DE"/>
  <outline>
    <contour>
      <point x="169.5252525252525" y="0.0" type="line"/>
      <point x="458.01010101010104" y="0.0" type="line"/>
      <point x="458.01010101010104" y="242.76767676767676" type="line"/>
      <point x="524.5050505050506" y="238.17171717171715"/>
      <point x="585.3737373737374" y="235.25252525252523"/>
      <point x="652.1919191919192" y="235.25252525252523" type="curve" smooth="yes"/>
      <point x="1117.4343434343434" y="235.25252525252523"/>
      <point x="1338.7777777777778" y="417.57575757575756"/>
      <point x="1338.7777777777778" y="761.8383838383838" type="curve" smooth="yes"/>
      <point x="1338.7777777777778" y="1124.858585858586"/>
      <point x="1105.3232323232323" y="1284.7474747474748"/>
      <point x="651.070707070707" y="1284.7474747474748" type="curve" smooth="yes"/>
      <point x="572.8383838383838" y="1284.7474747474748"/>
      <point x="511.42424242424244" y="1278.1515151515152"/>
      <point x="458.01010101010104" y="1270.79797979798" type="curve"/>
      <point x="458.01010101010104" y="1480.919191919192" type="line"/>
      <point x="169.5252525252525" y="1480.919191919192" type="line"/>
    </contour>
    <contour>
      <point x="652.1919191919192" y="441.75757575757575" type="curve" smooth="yes"/>
      <point x="578.4545454545455" y="441.75757575757575"/>
      <point x="522.3939393939395" y="445.59595959595964"/>
      <point x="458.01010101010104" y="453.2727272727273" type="curve"/>
      <point x="458.01010101010104" y="1061.050505050505" type="line"/>
      <point x="522.6666666666667" y="1072.5656565656566"/>
      <point x="587.9191919191919" y="1078.2424242424242"/>
      <point x="670.5252525252525" y="1078.2424242424242" type="curve" smooth="yes"/>
      <point x="932.060606060606" y="1078.2424242424242"/>
      <point x="1058.1818181818182" y="982.6666666666666"/>
      <point x="1058.1818181818182" y="760.9191919191919" type="curve" smooth="yes"/>
      <point x="1058.1818181818182" y="540.2020202020202"/>
      <point x="940.3333333333334" y="441.75757575757575"/>
    </contour>
  </outline>
</glyph>
<glyph name="germandbls" format="2">
  <advance width="1713.878787878788"/>
  <unicode hex="00DF"/>
  <outline>
    <contour>
      <point x="1095.848484848485" y="-20.161616161616163" type="curve" smooth="yes"/>
      <point x="1463.1818181818182" y="-20.161616161616163"/>
      <point x="1640.5757575757575" y="110.8080808080808"/>
      <point x="1640.5757575757575" y="321.989898989899" type="curve" smooth="yes"/>
      <point x="1640.5757575757575" y="515.0606060606061"/>
      <point x="1530.4747474747476" y="596.89898989899"/>
      <point x="1309.2323232323233" y="630.4141414141415" type="curve" smooth="yes"/>
      <point x="1105.4040404040404" y="660.4141414141415" type="line" smooth="yes"/>
      <point x="999.3333333333335" y="678.3636363636364"/>
      <point x="969.868686868687" y="720.5353535353536"/>
      <point x="969.868686868687" y="777.1414141414141" type="curve" smooth="yes"/>
      <point x="969.868686868687" y="852.9393939393939"/>
      <point x="1026.3636363636365" y="913.2727272727273"/>
      <point x="1269.0707070707072" y="913.2727272727273" type="curve" smooth="yes"/>
      <point x="1343.828282828283" y="913.2727272727273"/>
      <point x="1399.3939393939395" y="908.5151515151515"/>
      <point x="1446.3636363636365" y="903.5959595959596" type="curve"/>
      <point x="1463.4444444444446" y="971.4848484848485"/>
      <point x="1475.6060606060607" y="1040.3535353535353"/>
      <point x="1475.6060606060607" y="1109.6464646464647" type="curve" smooth="yes"/>
      <point x="1475.6060606060607" y="1466.7676767676767"/>
      <point x="1239.6161616161617" y="1636.0"/>
      <point x="896.9898989898991" y="1636.0" type="curve" smooth="yes"/>
      <point x="482.3131313131313" y="1636.0"/>
      <point x="244.7070707070707" y="1423.20202020202"/>
      <point x="244.7070707070707" y="1034.7272727272727" type="curve" smooth="yes"/>
      <point x="244.7070707070707" y="0.0" type="line"/>
      <point x="526.7070707070708" y="0.0" type="line"/>
      <point x="526.7070707070708" y="1040.6161616161617" type="line" smooth="yes"/>
      <point x="526.7070707070708" y="1317.7070707070707"/>
      <point x="659.4141414141415" y="1445.7070707070707"/>
      <point x="918.7676767676768" y="1445.7070707070707" type="curve" smooth="yes"/>
      <point x="1129.959595959596" y="1445.7070707070707"/>
      <point x="1274.3434343434344" y="1358.1919191919192"/>
      <point x="1273.4242424242425" y="1144.5555555555554" type="curve" smooth="yes"/>
      <point x="1273.4242424242425" y="1090.1818181818182"/>
      <point x="1264.1818181818182" y="1028.939393939394"/>
      <point x="1247.858585858586" y="974.1313131313132" type="curve"/>
      <point x="1398.6969696969697" y="1092.6464646464647" type="line"/>
      <point x="1349.939393939394" y="1097.5656565656566"/>
      <point x="1270.2727272727273" y="1100.4848484848485"/>
      <point x="1222.5959595959598" y="1100.4848484848485" type="curve" smooth="yes"/>
      <point x="870.7171717171718" y="1100.4848484848485"/>
      <point x="701.1616161616162" y="969.0808080808081"/>
      <point x="701.1616161616162" y="763.5757575757576" type="curve" smooth="yes"/>
      <point x="701.1616161616162" y="597.040404040404"/>
      <point x="789.6464646464647" y="491.3131313131313"/>
      <point x="1028.989898989899" y="455.47474747474746" type="curve" smooth="yes"/>
      <point x="1232.818181818182" y="425.47474747474746" type="line" smooth="yes"/>
      <point x="1341.6464646464647" y="407.52525252525254"/>
      <point x="1371.8686868686868" y="373.62626262626264"/>
      <point x="1371.8686868686868" y="307.5050505050505" type="curve" smooth="yes"/>
      <point x="1371.8686868686868" y="223.8686868686869"/>
      <point x="1306.1313131313132" y="174.4545454545455"/>
      <point x="1094.2828282828282" y="174.4545454545455" type="curve" smooth="yes"/>
      <point x="977.6363636363637" y="174.4545454545455"/>
      <point x="838.0808080808081" y="192.02020202020205"/>
      <point x="723.8080808080808" y="221.53535353535358" type="curve"/>
      <point x="723.8080808080808" y="24.919191919191917" type="line"/>
      <point x="838.7777777777778" y="-6.0"/>
      <point x="977.8484848484849" y="-20.161616161616163"/>
    </contour>
    <contour>
      <point x="37.131313131313135" y="859.4444444444443" type="line"/>
      <point x="349.82828282828285" y="859.4444444444443" type="line"/>
      <point x="349.82828282828285" y="1090.8080808080808" type="line"/>
      <point x="37.131313131313135" y="1090.8080808080808" type="line"/>
    </contour>
  </outline>
</glyph>
